SplineFontDB: 3.0
FontName: DejaVuSansMono-Oblique
FullName: DejaVu Sans Mono Oblique
FamilyName: DejaVu Sans Mono
Weight: Book
Copyright: Copyright (c) 2003 by Bitstream, Inc. All Rights Reserved.\nDejaVu changes are in public domain\n
Version: 2.37
ItalicAngle: -11
UnderlinePosition: -85
UnderlineWidth: 90
Ascent: 1556
Descent: 492
LayerCount: 2
Layer: 0 1 "Back"  1
Layer: 1 1 "Fore"  0
FSType: 0
OS2Version: 0
OS2_WeightWidthSlopeOnly: 0
OS2_UseTypoMetrics: 0
PfmFamily: 17
TTFWeight: 400
TTFWidth: 5
LineGap: 0
VLineGap: 0
Panose: 2 11 6 9 3 3 4 11 2 4
OS2TypoAscent: 1556
OS2TypoAOffset: 0
OS2TypoDescent: -492
OS2TypoDOffset: 0
OS2TypoLinegap: 410
OS2WinAscent: 1901
OS2WinAOffset: 0
OS2WinDescent: 483
OS2WinDOffset: 0
HheadAscent: 1901
HheadAOffset: 0
HheadDescent: -483
HheadDOffset: 0
OS2Vendor: 'PfEd'
Lookup: 1 0 0 "'locl' Localized Forms in Cyrillic lookup 0"  {"'locl' Localized Forms in Cyrillic lookup 0"  } ['locl' ('cyrl' <'SRB ' > ) ]
Lookup: 1 0 0 "'locl' Localized Forms in Latin lookup 0"  {"'locl' Localized Forms in Latin lookup 0-1"  } ['locl' ('latn' <'ISM ' 'KSM ' 'LSM ' 'NSM ' 'SKS ' 'SSM ' > ) ]
Lookup: 4 0 0 "'dlig' Discretionary Ligatures in Latin lookup 3"  {"'dlig' Discretionary Ligatures in Latin lookup 3"  } ['dlig' ('latn' <'ISM ' 'KSM ' 'LSM ' 'MOL ' 'NSM ' 'ROM ' 'SKS ' 'SSM ' 'dflt' > ) ]
Lookup: 1 0 0 "'case' Case-Sensitive Forms"  {"'case' Case-Sensitive Forms" ("case" ) } ['case' ('DFLT' <'dflt' > 'latn' <'CAT ' 'ESP ' 'GAL ' 'dflt' > ) ]
Lookup: 260 0 0 "'mark' Mark positioning in Lao"  {"'mark' Mark positioning in Lao"  } ['mark' ('lao ' <'dflt' > ) ]
DEI: 91125
TtTable: prep
PUSHW_1
 640
NPUSHB
 145
 219
 254
 3
 218
 254
 3
 217
 18
 3
 216
 254
 3
 215
 254
 3
 214
 154
 3
 213
 254
 3
 212
 180
 71
 5
 212
 125
 3
 211
 37
 3
 210
 50
 3
 209
 150
 3
 208
 254
 3
 207
 254
 3
 206
 14
 3
 205
 254
 3
 204
 254
 3
 203
 254
 3
 202
 254
 3
 199
 254
 3
 198
 125
 3
 197
 254
 3
 196
 254
 3
 195
 50
 3
 194
 187
 3
 193
 125
 3

StartChar: .notdef
Encoding: 0 -1 0
Width: 1233
Flags: W
LayerCount: 2
Fore
SplineSet
104 -362 m 1,0,-1
 104 1444 l 1,1,-1
 1128 1444 l 1,2,-1
 1128 -362 l 1,3,-1
 104 -362 l 1,0,-1
219 -248 m 1,4,-1
 1014 -248 l 1,5,-1
 1014 1329 l 1,6,-1
 219 1329 l 1,7,-1
 219 -248 l 1,4,-1
EndSplineSet
EndChar
StartChar: exclam
Encoding: 33 33 33
Width: 1233
Flags: W
LayerCount: 2
Fore
SplineSet
662 1493 m 1,0,-1
 864 1493 l 1,1,-1
 735 838 l 1,2,-1
 647 481 l 1,3,-1
 485 481 l 1,4,-1
 535 838 l 1,5,-1
 662 1493 l 1,0,-1
420 254 m 1,6,-1
 623 254 l 1,7,-1
 573 0 l 1,8,-1
 371 0 l 1,9,-1
 420 254 l 1,6,-1
EndSplineSet
EndChar
StartChar: quotedbl
Encoding: 34 34 34
Width: 1233
Flags: W
LayerCount: 2
Fore
SplineSet
895 1493 m 1,0,-1
 895 938 l 1,1,-1
 721 938 l 1,2,-1
 721 1493 l 1,3,-1
 895 1493 l 1,0,-1
512 1493 m 1,4,-1
 512 938 l 1,5,-1
 338 938 l 1,6,-1
 338 1493 l 1,7,-1
 512 1493 l 1,4,-1
EndSplineSet
EndChar
StartChar: numbersign
Encoding: 35 35 35
Width: 1233
Flags: W
LayerCount: 2
Fore
SplineSet
778 901 m 1,0,-1
 532 901 l 1,1,-1
 449 567 l 1,2,-1
 694 567 l 1,3,-1
 778 901 l 1,0,-1
676 1470 m 1,4,-1
 571 1055 l 1,5,-1
 817 1055 l 1,6,-1
 922 1470 l 1,7,-1
 1081 1470 l 1,8,-1
 977 1055 l 1,9,-1
 1233 1055 l 1,10,-1
 1194 901 l 1,11,-1
 938 901 l 1,12,-1
 854 567 l 1,13,-1
 1112 567 l 1,14,-1
 1073 414 l 1,15,-1
 815 414 l 1,16,-1
 711 0 l 1,17,-1
 551 0 l 1,18,-1
 655 414 l 1,19,-1
 410 414 l 1,20,-1
 305 0 l 1,21,-1
 145 0 l 1,22,-1
 250 414 l 1,23,-1
 -6 414 l 1,24,-1
 33 567 l 1,25,-1
 289 567 l 1,26,-1
 373 901 l 1,27,-1
 115 901 l 1,28,-1
 154 1055 l 1,29,-1
 412 1055 l 1,30,-1
 516 1470 l 1,31,-1
 676 1470 l 1,4,-1
EndSplineSet
EndChar
StartChar: dollar
Encoding: 36 36 36
Width: 1233
Flags: W
LayerCount: 2
Fore
SplineSet
629 588 m 1,0,-1
 543 145 l 1,1,2
 672 145 672 145 751.5 217.5 c 128,-1,3
 831 290 831 290 831 406 c 0,4,5
 831 484 831 484 784 526.5 c 128,-1,6
 737 569 737 569 629 588 c 1,0,-1
563 774 m 1,7,-1
 643 1184 l 1,8,9
 524 1176 524 1176 448.5 1107.5 c 128,-1,10
 373 1039 373 1039 373 940 c 0,11,12
 373 871 373 871 415 834 c 128,-1,13
 457 797 457 797 563 774 c 1,7,-1
455 -301 m 1,14,-1
 354 -301 l 1,15,-1
 413 0 l 1,16,17
 318 3 318 3 222 26 c 128,-1,18
 126 49 126 49 31 92 c 1,19,-1
 66 272 l 1,20,21
 147 212 147 212 241.5 179 c 128,-1,22
 336 146 336 146 440 141 c 1,23,-1
 530 606 l 1,24,25
 354 641 354 641 274.5 713.5 c 128,-1,26
 195 786 195 786 195 911 c 0,27,28
 195 1084 195 1084 327.5 1199 c 128,-1,29
 460 1314 460 1314 669 1321 c 1,30,-1
 717 1556 l 1,31,-1
 817 1556 l 1,32,-1
 770 1321 l 1,33,34
 855 1315 855 1315 933 1299.5 c 128,-1,35
 1011 1284 1011 1284 1083 1260 c 1,36,-1
 1051 1087 l 1,37,38
 986 1127 986 1127 909 1150.5 c 128,-1,39
 832 1174 832 1174 743 1182 c 1,40,-1
 662 756 l 1,41,42
 836 722 836 722 925 639 c 128,-1,43
 1014 556 1014 556 1014 426 c 0,44,45
 1014 242 1014 242 877 122 c 128,-1,46
 740 2 740 2 524 2 c 2,47,-1
 514 2 l 1,48,-1
 455 -301 l 1,14,-1
EndSplineSet
EndChar
StartChar: percent
Encoding: 37 37 37
Width: 1233
Flags: W
LayerCount: 2
Fore
SplineSet
696 319 m 0,0,1
 696 241 696 241 748.5 188 c 128,-1,2
 801 135 801 135 879 135 c 0,3,4
 956 135 956 135 1009.5 188.5 c 128,-1,5
 1063 242 1063 242 1063 319 c 0,6,7
 1063 396 1063 396 1009 450 c 128,-1,8
 955 504 955 504 879 504 c 0,9,10
 801 504 801 504 748.5 451 c 128,-1,11
 696 398 696 398 696 319 c 0,0,1
561 319 m 0,12,13
 561 454 561 454 653 546.5 c 128,-1,14
 745 639 745 639 879 639 c 0,15,16
 943 639 943 639 1000.5 615 c 128,-1,17
 1058 591 1058 591 1104 545 c 0,18,19
 1150 498 1150 498 1175 440 c 128,-1,20
 1200 382 1200 382 1200 319 c 0,21,22
 1200 186 1200 186 1107 93 c 128,-1,23
 1014 0 1014 0 879 0 c 0,24,25
 743 0 743 0 652 91.5 c 128,-1,26
 561 183 561 183 561 319 c 0,12,13
121 465 m 1,27,-1
 86 561 l 1,28,-1
 1128 979 l 1,29,-1
 1169 883 l 1,30,-1
 121 465 l 1,27,-1
168 1112 m 0,31,32
 168 1033 168 1033 220.5 980.5 c 128,-1,33
 273 928 273 928 352 928 c 0,34,35
 429 928 429 928 483 981.5 c 128,-1,36
 537 1035 537 1035 537 1112 c 0,37,38
 537 1189 537 1189 483 1242.5 c 128,-1,39
 429 1296 429 1296 352 1296 c 0,40,41
 275 1296 275 1296 221.5 1243 c 128,-1,42
 168 1190 168 1190 168 1112 c 0,31,32
33 1112 m 0,43,44
 33 1247 33 1247 125 1339.5 c 128,-1,45
 217 1432 217 1432 352 1432 c 0,46,47
 416 1432 416 1432 474.5 1408 c 128,-1,48
 533 1384 533 1384 578 1339 c 0,49,50
 623 1294 623 1294 647.5 1235.5 c 128,-1,51
 672 1177 672 1177 672 1112 c 0,52,53
 672 978 672 978 579 885.5 c 128,-1,54
 486 793 486 793 352 793 c 0,55,56
 217 793 217 793 125 885 c 128,-1,57
 33 977 33 977 33 1112 c 0,43,44
EndSplineSet
EndChar
StartChar: ampersand
Encoding: 38 38 38
Width: 1233
Flags: W
LayerCount: 2
Fore
SplineSet
567 907 m 2,0,-1
 874 350 l 1,1,2
 936 416 936 416 973 518.5 c 128,-1,3
 1010 621 1010 621 1022 760 c 1,4,-1
 1190 760 l 1,5,6
 1173 592 1173 592 1112 457.5 c 128,-1,7
 1051 323 1051 323 944 221 c 1,8,-1
 1067 0 l 1,9,-1
 868 0 l 1,10,-1
 809 113 l 1,11,12
 714 42 714 42 614 6.5 c 128,-1,13
 514 -29 514 -29 410 -29 c 0,14,15
 215 -29 215 -29 97.5 78 c 128,-1,16
 -20 185 -20 185 -20 360 c 0,17,18
 -20 528 -20 528 79.5 672.5 c 128,-1,19
 179 817 179 817 367 920 c 1,20,21
 338 972 338 972 323.5 1026 c 128,-1,22
 309 1080 309 1080 309 1135 c 0,23,24
 309 1309 309 1309 432 1414.5 c 128,-1,25
 555 1520 555 1520 762 1520 c 0,26,27
 827 1520 827 1520 889 1508 c 128,-1,28
 951 1496 951 1496 1008 1473 c 1,29,-1
 973 1290 l 1,30,31
 931 1328 931 1328 870 1347 c 128,-1,32
 809 1366 809 1366 733 1366 c 0,33,34
 620 1366 620 1366 551.5 1308.5 c 128,-1,35
 483 1251 483 1251 483 1157 c 0,36,37
 483 1110 483 1110 505 1044.5 c 128,-1,38
 527 979 527 979 567 907 c 2,0,-1
432 795 m 1,39,40
 297 722 297 722 227.5 623.5 c 128,-1,41
 158 525 158 525 158 408 c 0,42,43
 158 289 158 289 244 209 c 128,-1,44
 330 129 330 129 459 129 c 0,45,46
 524 129 524 129 597 157.5 c 128,-1,47
 670 186 670 186 741 240 c 1,48,-1
 432 795 l 1,39,40
EndSplineSet
EndChar
StartChar: quotesingle
Encoding: 39 39 39
Width: 1233
Flags: W
LayerCount: 2
Fore
SplineSet
702 1493 m 1,0,-1
 702 938 l 1,1,-1
 528 938 l 1,2,-1
 528 1493 l 1,3,-1
 702 1493 l 1,0,-1
EndSplineSet
EndChar
StartChar: parenleft
Encoding: 40 40 40
Width: 1233
Flags: W
LayerCount: 2
Fore
SplineSet
1042 1554 m 1,0,1
 806 1253 806 1253 686.5 947.5 c 128,-1,2
 567 642 567 642 567 340 c 0,3,4
 567 194 567 194 596.5 43 c 128,-1,5
 626 -108 626 -108 686 -270 c 1,6,-1
 526 -270 l 1,7,8
 447 -81 447 -81 410 76 c 128,-1,9
 373 233 373 233 373 375 c 0,10,11
 373 678 373 678 502 977.5 c 128,-1,12
 631 1277 631 1277 883 1554 c 1,13,-1
 1042 1554 l 1,0,1
EndSplineSet
EndChar
StartChar: parenright
Encoding: 41 41 41
Width: 1233
Flags: W
LayerCount: 2
Fore
SplineSet
150 -270 m 1,0,1
 386 30 386 30 505.5 335.5 c 128,-1,2
 625 641 625 641 625 944 c 0,3,4
 625 1090 625 1090 595.5 1241 c 128,-1,5
 566 1392 566 1392 506 1554 c 1,6,-1
 666 1554 l 1,7,8
 744 1366 744 1366 781.5 1208.5 c 128,-1,9
 819 1051 819 1051 819 909 c 0,10,11
 819 606 819 606 690 306.5 c 128,-1,12
 561 7 561 7 309 -270 c 1,13,-1
 150 -270 l 1,0,1
EndSplineSet
EndChar
StartChar: asterisk
Encoding: 42 42 42
Width: 1233
Flags: W
LayerCount: 2
Fore
SplineSet
1067 1247 m 1,0,-1
 709 1053 l 1,1,-1
 1067 858 l 1,2,-1
 1010 760 l 1,3,-1
 674 963 l 1,4,-1
 674 586 l 1,5,-1
 559 586 l 1,6,-1
 559 963 l 1,7,-1
 223 760 l 1,8,-1
 166 858 l 1,9,-1
 524 1053 l 1,10,-1
 166 1247 l 1,11,-1
 223 1346 l 1,12,-1
 559 1143 l 1,13,-1
 559 1520 l 1,14,-1
 674 1520 l 1,15,-1
 674 1143 l 1,16,-1
 1010 1346 l 1,17,-1
 1067 1247 l 1,0,-1
EndSplineSet
EndChar
StartChar: plus
Encoding: 43 43 43
Width: 1233
Flags: W
LayerCount: 2
Fore
SplineSet
700 1171 m 1,0,-1
 700 727 l 1,1,-1
 1145 727 l 1,2,-1
 1145 557 l 1,3,-1
 700 557 l 1,4,-1
 700 113 l 1,5,-1
 532 113 l 1,6,-1
 532 557 l 1,7,-1
 88 557 l 1,8,-1
 88 727 l 1,9,-1
 532 727 l 1,10,-1
 532 1171 l 1,11,-1
 700 1171 l 1,0,-1
EndSplineSet
EndChar
StartChar: comma
Encoding: 44 44 44
Width: 1233
Flags: W
LayerCount: 2
Fore
SplineSet
416 303 m 1,0,-1
 668 303 l 1,1,-1
 627 96 l 1,2,-1
 356 -287 l 1,3,-1
 203 -287 l 1,4,-1
 375 96 l 1,5,-1
 416 303 l 1,0,-1
EndSplineSet
EndChar
StartChar: hyphen
Encoding: 45 45 45
Width: 1233
Flags: W
LayerCount: 2
Fore
SplineSet
336 643 m 1,0,-1
 858 643 l 1,1,-1
 825 479 l 1,2,-1
 303 479 l 1,3,-1
 336 643 l 1,0,-1
EndSplineSet
EndChar
StartChar: period
Encoding: 46 46 46
Width: 1233
Flags: W
LayerCount: 2
Fore
SplineSet
414 303 m 1,0,-1
 666 303 l 1,1,-1
 606 0 l 1,2,-1
 354 0 l 1,3,-1
 414 303 l 1,0,-1
EndSplineSet
EndChar
StartChar: slash
Encoding: 47 47 47
Width: 1233
Flags: W
LayerCount: 2
Fore
SplineSet
16 -190 m 1,0,-1
 868 1493 l 1,1,-1
 1059 1493 l 1,2,-1
 205 -190 l 1,3,-1
 16 -190 l 1,0,-1
EndSplineSet
EndChar
StartChar: zero
Encoding: 48 48 48
Width: 1233
Flags: W
LayerCount: 2
Fore
SplineSet
481 750 m 0,0,1
 481 805 481 805 521 845 c 128,-1,2
 561 885 561 885 616 885 c 0,3,4
 671 885 671 885 710.5 845 c 128,-1,5
 750 805 750 805 750 750 c 0,6,7
 750 694 750 694 711 655 c 128,-1,8
 672 616 672 616 616 616 c 0,9,10
 561 616 561 616 521 655.5 c 128,-1,11
 481 695 481 695 481 750 c 0,0,1
1135 1020 m 0,12,13
 1135 829 1135 829 1077.5 607.5 c 128,-1,14
 1020 386 1020 386 936 248 c 0,15,16
 852 107 852 107 740.5 39 c 128,-1,17
 629 -29 629 -29 481 -29 c 0,18,19
 286 -29 286 -29 192 94 c 128,-1,20
 98 217 98 217 98 473 c 0,21,22
 98 665 98 665 155 884.5 c 128,-1,23
 212 1104 212 1104 297 1245 c 0,24,25
 382 1386 382 1386 492.5 1453 c 128,-1,26
 603 1520 603 1520 750 1520 c 0,27,28
 945 1520 945 1520 1040 1397 c 128,-1,29
 1135 1274 1135 1274 1135 1020 c 0,12,13
506 135 m 0,30,31
 586 135 586 135 654.5 186.5 c 128,-1,32
 723 238 723 238 770 334 c 0,33,34
 839 474 839 474 885.5 680.5 c 128,-1,35
 932 887 932 887 932 1063 c 0,36,37
 932 1217 932 1217 883 1286.5 c 128,-1,38
 834 1356 834 1356 727 1356 c 0,39,40
 647 1356 647 1356 578 1305 c 128,-1,41
 509 1254 509 1254 461 1159 c 0,42,43
 391 1020 391 1020 345 811.5 c 128,-1,44
 299 603 299 603 299 414 c 0,45,46
 299 273 299 273 350.5 204 c 128,-1,47
 402 135 402 135 506 135 c 0,30,31
EndSplineSet
EndChar
StartChar: one
Encoding: 49 49 49
Width: 1233
Flags: W
LayerCount: 2
Fore
SplineSet
156 170 m 1,0,-1
 469 170 l 1,1,-1
 690 1311 l 1,2,-1
 338 1235 l 1,3,-1
 373 1419 l 1,4,-1
 725 1493 l 1,5,-1
 928 1493 l 1,6,-1
 670 170 l 1,7,-1
 979 170 l 1,8,-1
 946 0 l 1,9,-1
 123 0 l 1,10,-1
 156 170 l 1,0,-1
EndSplineSet
EndChar
StartChar: two
Encoding: 50 50 50
Width: 1233
Flags: W
LayerCount: 2
Fore
SplineSet
268 170 m 1,0,-1
 952 170 l 1,1,-1
 920 0 l 1,2,-1
 6 0 l 1,3,-1
 39 170 l 1,4,-1
 350 444 l 1,5,-1
 389 479 l 2,6,7
 926 950 926 950 926 1153 c 0,8,9
 926 1246 926 1246 862 1299 c 128,-1,10
 798 1352 798 1352 684 1352 c 0,11,12
 592 1352 592 1352 486 1318.5 c 128,-1,13
 380 1285 380 1285 254 1217 c 1,14,-1
 295 1421 l 1,15,16
 407 1470 407 1470 511.5 1495 c 128,-1,17
 616 1520 616 1520 713 1520 c 0,18,19
 898 1520 898 1520 1012 1423 c 128,-1,20
 1126 1326 1126 1326 1126 1171 c 0,21,22
 1126 1075 1126 1075 1090.5 988.5 c 128,-1,23
 1055 902 1055 902 973 799 c 0,24,25
 940 757 940 757 854 678 c 128,-1,26
 768 599 768 599 588 444 c 2,27,-1
 268 170 l 1,0,-1
EndSplineSet
EndChar
StartChar: three
Encoding: 51 51 51
Width: 1233
Flags: W
LayerCount: 2
Fore
SplineSet
762 799 m 1,0,1
 876 779 876 779 940 697 c 128,-1,2
 1004 615 1004 615 1004 489 c 0,3,4
 1004 255 1004 255 836.5 113 c 128,-1,5
 669 -29 669 -29 389 -29 c 0,6,7
 281 -29 281 -29 178.5 -10.5 c 128,-1,8
 76 8 76 8 -18 45 c 1,9,-1
 20 246 l 1,10,11
 111 194 111 194 206 167.5 c 128,-1,12
 301 141 301 141 399 141 c 0,13,14
 581 141 581 141 693 234.5 c 128,-1,15
 805 328 805 328 805 477 c 0,16,17
 805 594 805 594 733.5 654.5 c 128,-1,18
 662 715 662 715 524 715 c 2,19,-1
 371 715 l 1,20,-1
 403 881 l 1,21,-1
 557 881 l 2,22,23
 715 881 715 881 808 956 c 128,-1,24
 901 1031 901 1031 901 1155 c 0,25,26
 901 1255 901 1255 839.5 1302.5 c 128,-1,27
 778 1350 778 1350 649 1350 c 0,28,29
 567 1350 567 1350 470 1330 c 128,-1,30
 373 1310 373 1310 260 1270 c 1,31,-1
 297 1456 l 1,32,33
 420 1489 420 1489 517 1504.5 c 128,-1,34
 614 1520 614 1520 698 1520 c 0,35,36
 886 1520 886 1520 994 1432 c 128,-1,37
 1102 1344 1102 1344 1102 1192 c 0,38,39
 1102 1039 1102 1039 1012.5 935.5 c 128,-1,40
 923 832 923 832 762 799 c 1,0,1
EndSplineSet
EndChar
StartChar: four
Encoding: 52 52 52
Width: 1233
Flags: W
LayerCount: 2
Fore
SplineSet
842 1282 m 1,0,-1
 217 520 l 1,1,-1
 690 520 l 1,2,-1
 842 1282 l 1,0,-1
846 1493 m 1,3,-1
 1079 1493 l 1,4,-1
 889 520 l 1,5,-1
 1087 520 l 1,6,-1
 1057 356 l 1,7,-1
 858 356 l 1,8,-1
 788 0 l 1,9,-1
 590 0 l 1,10,-1
 659 356 l 1,11,-1
 25 356 l 1,12,-1
 61 547 l 1,13,-1
 846 1493 l 1,3,-1
EndSplineSet
EndChar
StartChar: five
Encoding: 53 53 53
Width: 1233
Flags: W
LayerCount: 2
Fore
SplineSet
352 1493 m 1,0,-1
 1108 1493 l 1,1,-1
 1075 1323 l 1,2,-1
 504 1323 l 1,3,-1
 432 956 l 1,4,5
 479 972 479 972 523.5 979.5 c 128,-1,6
 568 987 568 987 612 987 c 0,7,8
 800 987 800 987 915 873.5 c 128,-1,9
 1030 760 1030 760 1030 575 c 0,10,11
 1030 451 1030 451 977.5 334 c 128,-1,12
 925 217 925 217 829 131 c 0,13,14
 741 51 741 51 627.5 11 c 128,-1,15
 514 -29 514 -29 371 -29 c 0,16,17
 263 -29 263 -29 169.5 -12.5 c 128,-1,18
 76 4 76 4 4 35 c 1,19,-1
 45 240 l 1,20,21
 129 189 129 189 217 164 c 128,-1,22
 305 139 305 139 399 139 c 0,23,24
 585 139 585 139 707 256 c 128,-1,25
 829 373 829 373 829 547 c 0,26,27
 829 675 829 675 748.5 748 c 128,-1,28
 668 821 668 821 526 821 c 0,29,30
 447 821 447 821 364.5 801 c 128,-1,31
 282 781 282 781 207 743 c 1,32,-1
 352 1493 l 1,0,-1
EndSplineSet
EndChar
StartChar: six
Encoding: 54 54 54
Width: 1233
Flags: W
LayerCount: 2
Fore
SplineSet
860 594 m 0,0,1
 860 707 860 707 802 768 c 128,-1,2
 744 829 744 829 637 829 c 0,3,4
 491 829 491 829 392 703 c 128,-1,5
 293 577 293 577 293 387 c 0,6,7
 293 266 293 266 354 197.5 c 128,-1,8
 415 129 415 129 522 129 c 0,9,10
 666 129 666 129 763 263 c 128,-1,11
 860 397 860 397 860 594 c 0,0,1
1128 1460 m 1,12,-1
 1092 1274 l 1,13,14
 1034 1311 1034 1311 966 1330.5 c 128,-1,15
 898 1350 898 1350 823 1350 c 0,16,17
 630 1350 630 1350 504.5 1206.5 c 128,-1,18
 379 1063 379 1063 324 780 c 1,19,20
 392 882 392 882 485.5 934.5 c 128,-1,21
 579 987 579 987 692 987 c 0,22,23
 870 987 870 987 966.5 887.5 c 128,-1,24
 1063 788 1063 788 1063 604 c 0,25,26
 1063 485 1063 485 1023 366 c 128,-1,27
 983 247 983 247 915 164 c 0,28,29
 837 67 837 67 737.5 19 c 128,-1,30
 638 -29 638 -29 516 -29 c 0,31,32
 313 -29 313 -29 202.5 88 c 128,-1,33
 92 205 92 205 92 420 c 0,34,35
 92 586 92 586 131 765 c 128,-1,36
 170 944 170 944 238 1090 c 0,37,38
 336 1305 336 1305 488.5 1412.5 c 128,-1,39
 641 1520 641 1520 848 1520 c 0,40,41
 923 1520 923 1520 994 1504.5 c 128,-1,42
 1065 1489 1065 1489 1128 1460 c 1,12,-1
EndSplineSet
EndChar
StartChar: seven
Encoding: 55 55 55
Width: 1233
Flags: W
LayerCount: 2
Fore
SplineSet
276 1493 m 1,0,-1
 1212 1493 l 1,1,-1
 1196 1399 l 1,2,-1
 391 0 l 1,3,-1
 174 0 l 1,4,-1
 952 1323 l 1,5,-1
 244 1323 l 1,6,-1
 276 1493 l 1,0,-1
EndSplineSet
EndChar
StartChar: eight
Encoding: 56 56 56
Width: 1233
Flags: W
LayerCount: 2
Fore
SplineSet
821 461 m 0,0,1
 821 577 821 577 755 643 c 128,-1,2
 689 709 689 709 571 709 c 0,3,4
 429 709 429 709 337.5 610.5 c 128,-1,5
 246 512 246 512 246 358 c 0,6,7
 246 253 246 253 313 190 c 128,-1,8
 380 127 380 127 492 127 c 0,9,10
 640 127 640 127 730.5 219 c 128,-1,11
 821 311 821 311 821 461 c 0,0,1
430 793 m 1,12,13
 323 831 323 831 269 903.5 c 128,-1,14
 215 976 215 976 215 1081 c 0,15,16
 215 1263 215 1263 363 1391.5 c 128,-1,17
 511 1520 511 1520 725 1520 c 0,18,19
 903 1520 903 1520 1014.5 1429 c 128,-1,20
 1126 1338 1126 1338 1126 1194 c 0,21,22
 1126 1050 1126 1050 1029 936.5 c 128,-1,23
 932 823 932 823 772 782 c 1,24,25
 898 752 898 752 962 669 c 128,-1,26
 1026 586 1026 586 1026 453 c 0,27,28
 1026 244 1026 244 874 107.5 c 128,-1,29
 722 -29 722 -29 485 -29 c 0,30,31
 278 -29 278 -29 159.5 73 c 128,-1,32
 41 175 41 175 41 354 c 0,33,34
 41 520 41 520 145.5 638 c 128,-1,35
 250 756 250 756 430 793 c 1,12,13
707 1364 m 0,36,37
 580 1364 580 1364 498 1283.5 c 128,-1,38
 416 1203 416 1203 416 1079 c 0,39,40
 416 980 416 980 474.5 923 c 128,-1,41
 533 866 533 866 635 866 c 0,42,43
 758 866 758 866 842 953 c 128,-1,44
 926 1040 926 1040 926 1165 c 0,45,46
 926 1256 926 1256 866 1310 c 128,-1,47
 806 1364 806 1364 707 1364 c 0,36,37
EndSplineSet
EndChar
StartChar: nine
Encoding: 57 57 57
Width: 1233
Flags: W
LayerCount: 2
Fore
SplineSet
330 897 m 0,0,1
 330 784 330 784 388 723 c 128,-1,2
 446 662 446 662 553 662 c 0,3,4
 699 662 699 662 798 788 c 128,-1,5
 897 914 897 914 897 1104 c 0,6,7
 897 1226 897 1226 837 1294 c 128,-1,8
 777 1362 777 1362 670 1362 c 0,9,10
 526 1362 526 1362 428 1228 c 128,-1,11
 330 1094 330 1094 330 897 c 0,0,1
63 31 m 1,12,-1
 98 217 l 1,13,14
 156 180 156 180 224 160.5 c 128,-1,15
 292 141 292 141 367 141 c 0,16,17
 560 141 560 141 685.5 284.5 c 128,-1,18
 811 428 811 428 866 711 c 1,19,20
 798 609 798 609 704.5 556.5 c 128,-1,21
 611 504 611 504 498 504 c 0,22,23
 320 504 320 504 223.5 604 c 128,-1,24
 127 704 127 704 127 889 c 0,25,26
 127 1007 127 1007 167 1125.5 c 128,-1,27
 207 1244 207 1244 274 1327 c 0,28,29
 352 1423 352 1423 452 1471.5 c 128,-1,30
 552 1520 552 1520 674 1520 c 0,31,32
 877 1520 877 1520 988.5 1402.5 c 128,-1,33
 1100 1285 1100 1285 1100 1071 c 0,34,35
 1100 905 1100 905 1061 726 c 128,-1,36
 1022 547 1022 547 954 401 c 0,37,38
 856 187 856 187 703 79 c 128,-1,39
 550 -29 550 -29 342 -29 c 0,40,41
 267 -29 267 -29 197 -14 c 128,-1,42
 127 1 127 1 63 31 c 1,12,-1
EndSplineSet
EndChar
StartChar: colon
Encoding: 58 58 58
Width: 1233
Flags: W
LayerCount: 2
Fore
SplineSet
551 1061 m 1,0,-1
 803 1061 l 1,1,-1
 743 758 l 1,2,-1
 492 758 l 1,3,-1
 551 1061 l 1,0,-1
403 303 m 1,4,-1
 655 303 l 1,5,-1
 596 0 l 1,6,-1
 344 0 l 1,7,-1
 403 303 l 1,4,-1
EndSplineSet
EndChar
StartChar: semicolon
Encoding: 59 59 59
Width: 1233
Flags: W
LayerCount: 2
Fore
SplineSet
403 303 m 1,0,-1
 655 303 l 1,1,-1
 614 96 l 1,2,-1
 356 -287 l 1,3,-1
 203 -287 l 1,4,-1
 362 96 l 1,5,-1
 403 303 l 1,0,-1
551 1063 m 1,6,-1
 803 1063 l 1,7,-1
 743 760 l 1,8,-1
 492 760 l 1,9,-1
 551 1063 l 1,6,-1
EndSplineSet
EndChar
StartChar: less
Encoding: 60 60 60
Width: 1233
Flags: W
LayerCount: 2
Fore
SplineSet
1145 961 m 1,0,-1
 295 641 l 1,1,-1
 1145 324 l 1,2,-1
 1145 141 l 1,3,-1
 88 559 l 1,4,-1
 88 725 l 1,5,-1
 1145 1143 l 1,6,-1
 1145 961 l 1,0,-1
EndSplineSet
EndChar
StartChar: equal
Encoding: 61 61 61
Width: 1233
Flags: W
LayerCount: 2
Fore
SplineSet
88 524 m 1,0,-1
 1145 524 l 1,1,-1
 1145 352 l 1,2,-1
 88 352 l 1,3,-1
 88 524 l 1,0,-1
88 930 m 1,4,-1
 1145 930 l 1,5,-1
 1145 760 l 1,6,-1
 88 760 l 1,7,-1
 88 930 l 1,4,-1
EndSplineSet
EndChar
StartChar: greater
Encoding: 62 62 62
Width: 1233
Flags: W
LayerCount: 2
Fore
SplineSet
88 961 m 1,0,-1
 88 1143 l 1,1,-1
 1145 725 l 1,2,-1
 1145 559 l 1,3,-1
 88 141 l 1,4,-1
 88 324 l 1,5,-1
 938 641 l 1,6,-1
 88 961 l 1,0,-1
EndSplineSet
EndChar
StartChar: question
Encoding: 63 63 63
Width: 1233
Flags: W
LayerCount: 2
Fore
SplineSet
608 401 m 1,0,-1
 418 401 l 1,1,-1
 446 555 l 1,2,3
 465 646 465 646 503.5 711 c 128,-1,4
 542 776 542 776 655 870 c 1,5,-1
 762 961 l 2,6,7
 847 1033 847 1033 882.5 1088.5 c 128,-1,8
 918 1144 918 1144 918 1200 c 0,9,10
 918 1274 918 1274 862 1315 c 128,-1,11
 806 1356 806 1356 707 1356 c 0,12,13
 628 1356 628 1356 529.5 1320.5 c 128,-1,14
 431 1285 431 1285 326 1219 c 1,15,-1
 362 1407 l 1,16,17
 471 1464 471 1464 572 1492 c 128,-1,18
 673 1520 673 1520 774 1520 c 0,19,20
 927 1520 927 1520 1023.5 1438.5 c 128,-1,21
 1120 1357 1120 1357 1120 1231 c 0,22,23
 1120 1137 1120 1137 1071.5 1056.5 c 128,-1,24
 1023 976 1023 976 893 868 c 2,25,-1
 788 782 l 2,26,27
 704 712 704 712 674 661 c 128,-1,28
 644 610 644 610 629 524 c 1,29,-1
 608 401 l 1,0,-1
383 254 m 1,30,-1
 586 254 l 1,31,-1
 537 0 l 1,32,-1
 332 0 l 1,33,-1
 383 254 l 1,30,-1
EndSplineSet
EndChar
StartChar: at
Encoding: 64 64 64
Width: 1233
Flags: W
LayerCount: 2
Fore
SplineSet
709 260 m 0,0,1
 834 260 834 260 921 365.5 c 128,-1,2
 1008 471 1008 471 1008 623 c 0,3,4
 1008 719 1008 719 957.5 774 c 128,-1,5
 907 829 907 829 819 829 c 0,6,7
 696 829 696 829 610 724.5 c 128,-1,8
 524 620 524 620 524 469 c 0,9,10
 524 372 524 372 573.5 316 c 128,-1,11
 623 260 623 260 709 260 c 0,0,1
1059 135 m 1,12,-1
 915 135 l 1,13,-1
 936 246 l 1,14,15
 885 183 885 183 814 149 c 128,-1,16
 743 115 743 115 662 115 c 0,17,18
 531 115 531 115 448 207 c 128,-1,19
 365 299 365 299 365 444 c 0,20,21
 365 664 365 664 497 820.5 c 128,-1,22
 629 977 629 977 811 977 c 0,23,24
 895 977 895 977 959.5 941 c 128,-1,25
 1024 905 1024 905 1053 844 c 1,26,-1
 1061 887 l 1,27,28
 1067 922 1067 922 1070 948 c 128,-1,29
 1073 974 1073 974 1073 989 c 0,30,31
 1073 1115 1073 1115 1000 1185 c 128,-1,32
 927 1255 927 1255 797 1255 c 0,33,34
 655 1255 655 1255 523.5 1177 c 128,-1,35
 392 1099 392 1099 297 956 c 0,36,37
 213 831 213 831 169 681.5 c 128,-1,38
 125 532 125 532 125 375 c 0,39,40
 125 118 125 118 254 -29 c 128,-1,41
 383 -176 383 -176 608 -176 c 0,42,43
 665 -176 665 -176 725 -163.5 c 128,-1,44
 785 -151 785 -151 852 -125 c 1,45,-1
 897 -256 l 1,46,47
 831 -287 831 -287 760 -302 c 128,-1,48
 689 -317 689 -317 606 -317 c 0,49,50
 318 -317 318 -317 144.5 -127.5 c 128,-1,51
 -29 62 -29 62 -29 379 c 0,52,53
 -29 580 -29 580 42.5 779.5 c 128,-1,54
 114 979 114 979 238 1124 c 1,55,56
 348 1255 348 1255 495 1326 c 128,-1,57
 642 1397 642 1397 801 1397 c 0,58,59
 990 1397 990 1397 1102 1292.5 c 128,-1,60
 1214 1188 1214 1188 1214 1012 c 0,61,62
 1214 982 1214 982 1209.5 943.5 c 128,-1,63
 1205 905 1205 905 1196 858 c 2,64,-1
 1059 135 l 1,12,-1
EndSplineSet
EndChar
StartChar: A
Encoding: 65 65 65
Width: 1233
Flags: W
LayerCount: 2
Fore
SplineSet
735 1325 m 1,0,-1
 371 551 l 1,1,-1
 801 551 l 1,2,-1
 735 1325 l 1,0,-1
639 1493 m 1,3,-1
 885 1493 l 1,4,-1
 1051 0 l 1,5,-1
 850 0 l 1,6,-1
 815 389 l 1,7,-1
 295 389 l 1,8,-1
 111 0 l 1,9,-1
 -106 0 l 1,10,-1
 639 1493 l 1,3,-1
EndSplineSet
EndChar
StartChar: B
Encoding: 66 66 66
Width: 1233
Flags: W
LayerCount: 2
Fore
SplineSet
365 713 m 1,0,-1
 258 166 l 1,1,-1
 506 166 l 2,2,3
 690 166 690 166 787.5 253 c 128,-1,4
 885 340 885 340 885 504 c 0,5,6
 885 611 885 611 817 662 c 128,-1,7
 749 713 749 713 606 713 c 2,8,-1
 365 713 l 1,0,-1
483 1327 m 1,9,-1
 395 877 l 1,10,-1
 639 877 l 2,11,12
 790 877 790 877 876.5 949.5 c 128,-1,13
 963 1022 963 1022 963 1149 c 0,14,15
 963 1243 963 1243 907.5 1285 c 128,-1,16
 852 1327 852 1327 727 1327 c 2,17,-1
 483 1327 l 1,9,-1
313 1493 m 1,18,-1
 756 1493 l 2,19,20
 959 1493 959 1493 1063 1413.5 c 128,-1,21
 1167 1334 1167 1334 1167 1180 c 0,22,23
 1167 1026 1167 1026 1075 922.5 c 128,-1,24
 983 819 983 819 827 799 c 1,25,26
 952 776 952 776 1018.5 697 c 128,-1,27
 1085 618 1085 618 1085 494 c 0,28,29
 1085 260 1085 260 925.5 130 c 128,-1,30
 766 0 766 0 475 0 c 2,31,-1
 23 0 l 1,32,-1
 313 1493 l 1,18,-1
EndSplineSet
EndChar
StartChar: C
Encoding: 67 67 67
Width: 1233
Flags: W
LayerCount: 2
Fore
SplineSet
944 53 m 1,0,1
 860 12 860 12 774.5 -8.5 c 128,-1,2
 689 -29 689 -29 598 -29 c 0,3,4
 368 -29 368 -29 241.5 104 c 128,-1,5
 115 237 115 237 115 477 c 0,6,7
 115 697 115 697 185 913 c 128,-1,8
 255 1129 255 1129 369 1266 c 0,9,10
 476 1396 476 1396 605 1458 c 128,-1,11
 734 1520 734 1520 899 1520 c 0,12,13
 979 1520 979 1520 1058 1499 c 128,-1,14
 1137 1478 1137 1478 1212 1438 c 1,15,-1
 1171 1231 l 1,16,17
 1107 1294 1107 1294 1036 1325 c 128,-1,18
 965 1356 965 1356 885 1356 c 0,19,20
 790 1356 790 1356 709 1315.5 c 128,-1,21
 628 1275 628 1275 557 1192 c 0,22,23
 453 1069 453 1069 389.5 877 c 128,-1,24
 326 685 326 685 326 492 c 0,25,26
 326 319 326 319 404 227 c 128,-1,27
 482 135 482 135 629 135 c 0,28,29
 714 135 714 135 804.5 167 c 128,-1,30
 895 199 895 199 983 260 c 1,31,-1
 944 53 l 1,0,1
EndSplineSet
EndChar
StartChar: D
Encoding: 68 68 68
Width: 1233
Flags: W
LayerCount: 2
Fore
SplineSet
324 166 m 2,0,1
 509 166 509 166 621 228.5 c 128,-1,2
 733 291 733 291 801 432 c 0,3,4
 855 547 855 547 889.5 706.5 c 128,-1,5
 924 866 924 866 924 999 c 0,6,7
 924 1175 924 1175 842 1251 c 128,-1,8
 760 1327 760 1327 567 1327 c 2,9,-1
 453 1327 l 1,10,-1
 227 166 l 1,11,-1
 324 166 l 2,0,1
586 1493 m 2,12,13
 859 1493 859 1493 994.5 1369 c 128,-1,14
 1130 1245 1130 1245 1130 993 c 0,15,16
 1130 831 1130 831 1088 659 c 128,-1,17
 1046 487 1046 487 975 354 c 0,18,19
 871 163 871 163 715.5 81.5 c 128,-1,20
 560 0 560 0 295 0 c 2,21,-1
 -8 0 l 1,22,-1
 283 1493 l 1,23,-1
 586 1493 l 2,12,13
EndSplineSet
EndChar
StartChar: E
Encoding: 69 69 69
Width: 1233
Flags: W
LayerCount: 2
Fore
SplineSet
344 1493 m 1,0,-1
 1229 1493 l 1,1,-1
 1196 1323 l 1,2,-1
 512 1323 l 1,3,-1
 426 881 l 1,4,-1
 1079 881 l 1,5,-1
 1047 711 l 1,6,-1
 393 711 l 1,7,-1
 289 170 l 1,8,-1
 991 170 l 1,9,-1
 958 0 l 1,10,-1
 53 0 l 1,11,-1
 344 1493 l 1,0,-1
EndSplineSet
EndChar
StartChar: F
Encoding: 70 70 70
Width: 1233
Flags: W
LayerCount: 2
Fore
SplineSet
383 1493 m 1,0,-1
 1262 1493 l 1,1,-1
 1229 1323 l 1,2,-1
 553 1323 l 1,3,-1
 467 883 l 1,4,-1
 1079 883 l 1,5,-1
 1047 713 l 1,6,-1
 434 713 l 1,7,-1
 295 0 l 1,8,-1
 92 0 l 1,9,-1
 383 1493 l 1,0,-1
EndSplineSet
EndChar
StartChar: G
Encoding: 71 71 71
Width: 1233
Flags: W
LayerCount: 2
Fore
SplineSet
969 96 m 1,0,1
 882 34 882 34 779 2.5 c 128,-1,2
 676 -29 676 -29 559 -29 c 0,3,4
 327 -29 327 -29 202.5 105.5 c 128,-1,5
 78 240 78 240 78 489 c 0,6,7
 78 579 78 579 94.5 680.5 c 128,-1,8
 111 782 111 782 143 893 c 0,9,10
 178 1010 178 1010 225 1104.5 c 128,-1,11
 272 1199 272 1199 328 1266 c 0,12,13
 435 1396 435 1396 564.5 1458 c 128,-1,14
 694 1520 694 1520 860 1520 c 0,15,16
 940 1520 940 1520 1019.5 1499 c 128,-1,17
 1099 1478 1099 1478 1176 1438 c 1,18,-1
 1135 1231 l 1,19,20
 1070 1294 1070 1294 998.5 1325 c 128,-1,21
 927 1356 927 1356 846 1356 c 0,22,23
 748 1356 748 1356 662 1314.5 c 128,-1,24
 576 1273 576 1273 508 1192 c 0,25,26
 464 1140 464 1140 425 1062 c 128,-1,27
 386 984 386 984 356 887 c 0,28,29
 322 773 322 773 304.5 673 c 128,-1,30
 287 573 287 573 287 492 c 0,31,32
 287 321 287 321 366 228 c 128,-1,33
 445 135 445 135 590 135 c 0,34,35
 658 135 658 135 712 153.5 c 128,-1,36
 766 172 766 172 803 207 c 1,37,-1
 879 600 l 1,38,-1
 662 600 l 1,39,-1
 692 766 l 1,40,-1
 1102 766 l 1,41,-1
 969 96 l 1,0,1
EndSplineSet
EndChar
StartChar: H
Encoding: 72 72 72
Width: 1233
Flags: W
LayerCount: 2
Fore
SplineSet
283 1493 m 1,0,-1
 485 1493 l 1,1,-1
 367 881 l 1,2,-1
 920 881 l 1,3,-1
 1038 1493 l 1,4,-1
 1241 1493 l 1,5,-1
 950 0 l 1,6,-1
 748 0 l 1,7,-1
 887 711 l 1,8,-1
 332 711 l 1,9,-1
 195 0 l 1,10,-1
 -8 0 l 1,11,-1
 283 1493 l 1,0,-1
EndSplineSet
EndChar
StartChar: I
Encoding: 73 73 73
Width: 1233
Flags: W
LayerCount: 2
Fore
SplineSet
346 1493 m 1,0,-1
 1176 1493 l 1,1,-1
 1143 1323 l 1,2,-1
 829 1323 l 1,3,-1
 606 170 l 1,4,-1
 920 170 l 1,5,-1
 887 0 l 1,6,-1
 57 0 l 1,7,-1
 90 170 l 1,8,-1
 403 170 l 1,9,-1
 627 1323 l 1,10,-1
 313 1323 l 1,11,-1
 346 1493 l 1,0,-1
EndSplineSet
EndChar
StartChar: J
Encoding: 74 74 74
Width: 1233
Flags: W
LayerCount: 2
Fore
SplineSet
-25 61 m 1,0,-1
 20 297 l 1,1,2
 92 218 92 218 184 176.5 c 128,-1,3
 276 135 276 135 379 135 c 0,4,5
 521 135 521 135 591.5 208 c 128,-1,6
 662 281 662 281 702 487 c 1,7,-1
 866 1323 l 1,8,-1
 485 1323 l 1,9,-1
 518 1493 l 1,10,-1
 1102 1493 l 1,11,-1
 905 487 l 1,12,13
 849 198 849 198 729 84.5 c 128,-1,14
 609 -29 609 -29 371 -29 c 0,15,16
 274 -29 274 -29 174 -6 c 128,-1,17
 74 17 74 17 -25 61 c 1,0,-1
EndSplineSet
EndChar
StartChar: K
Encoding: 75 75 75
Width: 1233
Flags: W
LayerCount: 2
Fore
SplineSet
283 1493 m 1,0,-1
 485 1493 l 1,1,-1
 358 846 l 1,2,-1
 1100 1493 l 1,3,-1
 1354 1493 l 1,4,-1
 651 874 l 1,5,-1
 1079 0 l 1,6,-1
 860 0 l 1,7,-1
 500 741 l 1,8,-1
 307 573 l 1,9,-1
 195 0 l 1,10,-1
 -8 0 l 1,11,-1
 283 1493 l 1,0,-1
EndSplineSet
EndChar
StartChar: L
Encoding: 76 76 76
Width: 1233
Flags: W
LayerCount: 2
Fore
SplineSet
369 1493 m 1,0,-1
 571 1493 l 1,1,-1
 313 170 l 1,2,-1
 1034 170 l 1,3,-1
 1001 0 l 1,4,-1
 78 0 l 1,5,-1
 369 1493 l 1,0,-1
EndSplineSet
EndChar
StartChar: M
Encoding: 77 77 77
Width: 1233
Flags: W
LayerCount: 2
Fore
SplineSet
229 1493 m 1,0,-1
 498 1493 l 1,1,-1
 608 737 l 1,2,-1
 1022 1493 l 1,3,-1
 1292 1493 l 1,4,-1
 1001 0 l 1,5,-1
 815 0 l 1,6,-1
 1073 1327 l 1,7,-1
 639 532 l 1,8,-1
 498 532 l 1,9,-1
 383 1327 l 1,10,-1
 127 0 l 1,11,-1
 -59 0 l 1,12,-1
 229 1493 l 1,0,-1
EndSplineSet
EndChar
StartChar: N
Encoding: 78 78 78
Width: 1233
Flags: W
LayerCount: 2
Fore
SplineSet
285 1493 m 1,0,-1
 541 1493 l 1,1,-1
 805 264 l 1,2,-1
 1044 1493 l 1,3,-1
 1239 1493 l 1,4,-1
 948 0 l 1,5,-1
 692 0 l 1,6,-1
 428 1229 l 1,7,-1
 188 0 l 1,8,-1
 -6 0 l 1,9,-1
 285 1493 l 1,0,-1
EndSplineSet
EndChar
StartChar: O
Encoding: 79 79 79
Width: 1233
Flags: W
LayerCount: 2
Fore
SplineSet
502 135 m 0,0,1
 587 135 587 135 659 186 c 128,-1,2
 731 237 731 237 778 332 c 0,3,4
 852 477 852 477 898 683 c 128,-1,5
 944 889 944 889 944 1079 c 0,6,7
 944 1221 944 1221 891.5 1288.5 c 128,-1,8
 839 1356 839 1356 729 1356 c 0,9,10
 644 1356 644 1356 573 1305 c 128,-1,11
 502 1254 502 1254 455 1159 c 1,12,13
 379 1012 379 1012 333 808 c 128,-1,14
 287 604 287 604 287 414 c 0,15,16
 287 271 287 271 339.5 203 c 128,-1,17
 392 135 392 135 502 135 c 0,0,1
1151 1020 m 0,18,19
 1151 910 1151 910 1128.5 781 c 128,-1,20
 1106 652 1106 652 1063 516 c 0,21,22
 1034 424 1034 424 1000.5 351 c 128,-1,23
 967 278 967 278 928 219 c 1,24,25
 840 92 840 92 731 31.5 c 128,-1,26
 622 -29 622 -29 477 -29 c 0,27,28
 276 -29 276 -29 179 94 c 128,-1,29
 82 217 82 217 82 473 c 0,30,31
 82 584 82 584 103.5 711.5 c 128,-1,32
 125 839 125 839 168 975 c 0,33,34
 197 1067 197 1067 230.5 1140 c 128,-1,35
 264 1213 264 1213 303 1272 c 1,36,37
 391 1399 391 1399 500 1459.5 c 128,-1,38
 609 1520 609 1520 754 1520 c 0,39,40
 956 1520 956 1520 1053.5 1397.5 c 128,-1,41
 1151 1275 1151 1275 1151 1020 c 0,18,19
EndSplineSet
EndChar
StartChar: P
Encoding: 80 80 80
Width: 1233
Flags: W
LayerCount: 2
Fore
SplineSet
512 1327 m 1,0,-1
 403 766 l 1,1,-1
 637 766 l 2,2,3
 802 766 802 766 900.5 861.5 c 128,-1,4
 999 957 999 957 999 1116 c 0,5,6
 999 1224 999 1224 937 1275.5 c 128,-1,7
 875 1327 875 1327 745 1327 c 2,8,-1
 512 1327 l 1,0,-1
342 1493 m 1,9,-1
 782 1493 l 2,10,11
 988 1493 988 1493 1096 1401 c 128,-1,12
 1204 1309 1204 1309 1204 1135 c 0,13,14
 1204 886 1204 886 1044 743 c 128,-1,15
 884 600 884 600 604 600 c 2,16,-1
 371 600 l 1,17,-1
 254 0 l 1,18,-1
 51 0 l 1,19,-1
 342 1493 l 1,9,-1
EndSplineSet
EndChar
StartChar: Q
Encoding: 81 81 81
Width: 1233
Flags: W
LayerCount: 2
Fore
SplineSet
504 -27 m 1,0,-1
 494 -27 l 2,1,2
 279 -27 279 -27 180.5 92 c 128,-1,3
 82 211 82 211 82 473 c 0,4,5
 82 584 82 584 103.5 711.5 c 128,-1,6
 125 839 125 839 168 975 c 0,7,8
 197 1067 197 1067 230.5 1140 c 128,-1,9
 264 1213 264 1213 303 1272 c 1,10,11
 391 1399 391 1399 500 1459.5 c 128,-1,12
 609 1520 609 1520 754 1520 c 0,13,14
 956 1520 956 1520 1053.5 1397.5 c 128,-1,15
 1151 1275 1151 1275 1151 1020 c 0,16,17
 1151 937 1151 937 1136.5 838.5 c 128,-1,18
 1122 740 1122 740 1094 629 c 0,19,20
 1064 513 1064 513 1032 427 c 128,-1,21
 1000 341 1000 341 963 274 c 0,22,23
 909 179 909 179 839 111 c 128,-1,24
 769 43 769 43 690 10 c 1,25,-1
 844 -178 l 1,26,-1
 690 -270 l 1,27,-1
 504 -27 l 1,0,-1
502 135 m 0,28,29
 587 135 587 135 659 186 c 128,-1,30
 731 237 731 237 778 332 c 0,31,32
 852 477 852 477 898 683 c 128,-1,33
 944 889 944 889 944 1079 c 0,34,35
 944 1221 944 1221 891.5 1288.5 c 128,-1,36
 839 1356 839 1356 729 1356 c 0,37,38
 644 1356 644 1356 573 1305 c 128,-1,39
 502 1254 502 1254 455 1159 c 1,40,41
 379 1012 379 1012 333 808 c 128,-1,42
 287 604 287 604 287 414 c 0,43,44
 287 271 287 271 339.5 203 c 128,-1,45
 392 135 392 135 502 135 c 0,28,29
EndSplineSet
EndChar
StartChar: R
Encoding: 82 82 82
Width: 1233
Flags: W
LayerCount: 2
Fore
SplineSet
766 705 m 1,0,1
 838 691 838 691 881.5 638 c 128,-1,2
 925 585 925 585 979 408 c 1,3,-1
 1100 0 l 1,4,-1
 899 0 l 1,5,-1
 793 377 l 2,6,7
 749 533 749 533 694.5 582 c 128,-1,8
 640 631 640 631 530 631 c 2,9,-1
 338 631 l 1,10,-1
 215 0 l 1,11,-1
 12 0 l 1,12,-1
 301 1493 l 1,13,-1
 717 1493 l 2,14,15
 924 1493 924 1493 1037.5 1403.5 c 128,-1,16
 1151 1314 1151 1314 1151 1151 c 0,17,18
 1151 968 1151 968 1047.5 848 c 128,-1,19
 944 728 944 728 766 705 c 1,0,1
473 1327 m 1,20,-1
 371 797 l 1,21,-1
 590 797 l 2,22,23
 753 797 753 797 850.5 882.5 c 128,-1,24
 948 968 948 968 948 1110 c 0,25,26
 948 1222 948 1222 885 1274.5 c 128,-1,27
 822 1327 822 1327 686 1327 c 2,28,-1
 473 1327 l 1,20,-1
EndSplineSet
EndChar
StartChar: S
Encoding: 83 83 83
Width: 1233
Flags: W
LayerCount: 2
Fore
SplineSet
1147 1442 m 1,0,-1
 1108 1237 l 1,1,2
 1027 1296 1027 1296 940 1326 c 128,-1,3
 853 1356 853 1356 760 1356 c 0,4,5
 595 1356 595 1356 491 1274 c 128,-1,6
 387 1192 387 1192 387 1065 c 0,7,8
 387 994 387 994 436 950 c 128,-1,9
 485 906 485 906 614 866 c 2,10,-1
 735 827 l 1,11,12
 898 777 898 777 973.5 693.5 c 128,-1,13
 1049 610 1049 610 1049 481 c 0,14,15
 1049 246 1049 246 883 108.5 c 128,-1,16
 717 -29 717 -29 430 -29 c 0,17,18
 326 -29 326 -29 225.5 -6.5 c 128,-1,19
 125 16 125 16 25 61 c 1,20,-1
 66 270 l 1,21,22
 164 201 164 201 264.5 168 c 128,-1,23
 365 135 365 135 477 135 c 0,24,25
 642 135 642 135 745 223 c 128,-1,26
 848 311 848 311 848 446 c 0,27,28
 848 528 848 528 804 573 c 128,-1,29
 760 618 760 618 627 659 c 1,30,-1
 526 692 l 2,31,32
 342 750 342 750 268.5 823.5 c 128,-1,33
 195 897 195 897 195 1018 c 0,34,35
 195 1239 195 1239 360 1379.5 c 128,-1,36
 525 1520 525 1520 791 1520 c 0,37,38
 871 1520 871 1520 961.5 1500 c 128,-1,39
 1052 1480 1052 1480 1147 1442 c 1,0,-1
EndSplineSet
EndChar
StartChar: T
Encoding: 84 84 84
Width: 1233
Flags: W
LayerCount: 2
Fore
SplineSet
193 1493 m 1,0,-1
 1333 1493 l 1,1,-1
 1300 1323 l 1,2,-1
 831 1323 l 1,3,-1
 575 0 l 1,4,-1
 371 0 l 1,5,-1
 629 1323 l 1,6,-1
 160 1323 l 1,7,-1
 193 1493 l 1,0,-1
EndSplineSet
EndChar
StartChar: U
Encoding: 85 85 85
Width: 1233
Flags: W
LayerCount: 2
Fore
SplineSet
115 573 m 2,0,-1
 293 1493 l 1,1,-1
 496 1493 l 1,2,-1
 317 573 l 1,3,4
 315 560 315 560 309 532 c 0,5,6
 279 378 279 378 279 319 c 0,7,8
 279 227 279 227 333.5 181 c 128,-1,9
 388 135 388 135 498 135 c 0,10,11
 587 135 587 135 649 163.5 c 128,-1,12
 711 192 711 192 756 254 c 0,13,14
 778 285 778 285 800.5 360.5 c 128,-1,15
 823 436 823 436 850 573 c 1,16,-1
 1028 1493 l 1,17,-1
 1231 1493 l 1,18,-1
 1053 573 l 1,19,20
 1011 354 1011 354 963.5 251.5 c 128,-1,21
 916 149 916 149 838 86 c 0,22,23
 767 30 767 30 676 0.5 c 128,-1,24
 585 -29 585 -29 479 -29 c 0,25,26
 287 -29 287 -29 183.5 61 c 128,-1,27
 80 151 80 151 80 317 c 0,28,29
 80 354 80 354 88.5 417 c 128,-1,30
 97 480 97 480 115 573 c 2,0,-1
EndSplineSet
EndChar
StartChar: V
Encoding: 86 86 86
Width: 1233
Flags: W
LayerCount: 2
Fore
SplineSet
510 190 m 1,0,-1
 1108 1493 l 1,1,-1
 1323 1493 l 1,2,-1
 604 0 l 1,3,-1
 346 0 l 1,4,-1
 199 1493 l 1,5,-1
 397 1493 l 1,6,-1
 510 190 l 1,0,-1
EndSplineSet
EndChar
StartChar: W
Encoding: 87 87 87
Width: 1233
Flags: W
LayerCount: 2
Fore
SplineSet
145 1493 m 1,0,-1
 336 1493 l 1,1,-1
 246 283 l 1,2,-1
 575 1083 l 1,3,-1
 786 1083 l 1,4,-1
 801 281 l 1,5,-1
 1178 1493 l 1,6,-1
 1376 1493 l 1,7,-1
 866 0 l 1,8,-1
 672 0 l 1,9,-1
 641 870 l 1,10,-1
 270 0 l 1,11,-1
 82 0 l 1,12,-1
 145 1493 l 1,0,-1
EndSplineSet
EndChar
StartChar: X
Encoding: 88 88 88
Width: 1233
Flags: W
LayerCount: 2
Fore
SplineSet
242 1493 m 1,0,-1
 442 1493 l 1,1,-1
 666 961 l 1,2,-1
 1106 1493 l 1,3,-1
 1337 1493 l 1,4,-1
 741 774 l 1,5,-1
 1065 0 l 1,6,-1
 864 0 l 1,7,-1
 610 612 l 1,8,-1
 104 0 l 1,9,-1
 -127 0 l 1,10,-1
 530 797 l 1,11,-1
 242 1493 l 1,0,-1
EndSplineSet
EndChar
StartChar: Y
Encoding: 89 89 89
Width: 1233
Flags: W
LayerCount: 2
Fore
SplineSet
195 1493 m 1,0,-1
 397 1493 l 1,1,-1
 633 842 l 1,2,-1
 1130 1493 l 1,3,-1
 1348 1493 l 1,4,-1
 713 670 l 1,5,-1
 584 0 l 1,6,-1
 377 0 l 1,7,-1
 508 670 l 1,8,-1
 195 1493 l 1,0,-1
EndSplineSet
EndChar
StartChar: Z
Encoding: 90 90 90
Width: 1233
Flags: W
LayerCount: 2
Fore
SplineSet
305 1493 m 1,0,-1
 1274 1493 l 1,1,-1
 1245 1339 l 1,2,-1
 266 170 l 1,3,-1
 1040 170 l 1,4,-1
 1006 0 l 1,5,-1
 -6 0 l 1,6,-1
 23 154 l 1,7,-1
 999 1323 l 1,8,-1
 272 1323 l 1,9,-1
 305 1493 l 1,0,-1
EndSplineSet
EndChar
StartChar: bracketleft
Encoding: 91 91 91
Width: 1233
Flags: W
LayerCount: 2
Fore
SplineSet
621 1556 m 1,0,-1
 1044 1556 l 1,1,-1
 1016 1413 l 1,2,-1
 776 1413 l 1,3,-1
 477 -127 l 1,4,-1
 717 -127 l 1,5,-1
 690 -270 l 1,6,-1
 264 -270 l 1,7,-1
 621 1556 l 1,0,-1
EndSplineSet
EndChar
StartChar: backslash
Encoding: 92 92 92
Width: 1233
Flags: W
LayerCount: 2
Fore
SplineSet
725 -190 m 1,0,-1
 555 -190 l 1,1,-1
 356 1493 l 1,2,-1
 526 1493 l 1,3,-1
 725 -190 l 1,0,-1
EndSplineSet
EndChar
StartChar: bracketright
Encoding: 93 93 93
Width: 1233
Flags: W
LayerCount: 2
Fore
SplineSet
928 1556 m 1,0,-1
 571 -270 l 1,1,-1
 147 -270 l 1,2,-1
 176 -127 l 1,3,-1
 416 -127 l 1,4,-1
 715 1413 l 1,5,-1
 475 1413 l 1,6,-1
 504 1556 l 1,7,-1
 928 1556 l 1,0,-1
EndSplineSet
EndChar
StartChar: asciicircum
Encoding: 94 94 94
Width: 1233
Flags: W
LayerCount: 2
Fore
SplineSet
705 1493 m 1,0,-1
 1161 936 l 1,1,-1
 983 936 l 1,2,-1
 616 1331 l 1,3,-1
 250 936 l 1,4,-1
 72 936 l 1,5,-1
 528 1493 l 1,6,-1
 705 1493 l 1,0,-1
EndSplineSet
EndChar
StartChar: underscore
Encoding: 95 95 95
Width: 1233
Flags: W
LayerCount: 2
Fore
SplineSet
1233 -403 m 1,0,-1
 1233 -483 l 1,1,-1
 0 -483 l 1,2,-1
 0 -403 l 1,3,-1
 1233 -403 l 1,0,-1
EndSplineSet
EndChar
StartChar: grave
Encoding: 96 96 96
Width: 1233
Flags: W
LayerCount: 2
Fore
SplineSet
651 1638 m 1,0,-1
 848 1262 l 1,1,-1
 705 1262 l 1,2,-1
 453 1638 l 1,3,-1
 651 1638 l 1,0,-1
EndSplineSet
EndChar
StartChar: a
Encoding: 97 97 97
Width: 1233
Flags: W
LayerCount: 2
Fore
SplineSet
692 563 m 2,0,1
 573 563 573 563 515 555.5 c 128,-1,2
 457 548 457 548 414 530 c 0,3,4
 346 503 346 503 305 441.5 c 128,-1,5
 264 380 264 380 264 307 c 0,6,7
 264 224 264 224 315.5 174.5 c 128,-1,8
 367 125 367 125 455 125 c 0,9,10
 603 125 603 125 710.5 231 c 128,-1,11
 818 337 818 337 856 522 c 1,12,-1
 864 563 l 1,13,-1
 692 563 l 2,0,1
1063 639 m 1,14,-1
 938 0 l 1,15,-1
 754 0 l 1,16,-1
 786 166 l 1,17,18
 714 72 714 72 616 21.5 c 128,-1,19
 518 -29 518 -29 408 -29 c 0,20,21
 255 -29 255 -29 163.5 54.5 c 128,-1,22
 72 138 72 138 72 276 c 0,23,24
 72 472 72 472 226.5 589.5 c 128,-1,25
 381 707 381 707 645 707 c 2,26,-1
 891 707 l 1,27,-1
 903 768 l 1,28,29
 905 777 905 777 906 787 c 128,-1,30
 907 797 907 797 907 815 c 0,31,32
 907 900 907 900 844 945.5 c 128,-1,33
 781 991 781 991 664 991 c 0,34,35
 578 991 578 991 478.5 965.5 c 128,-1,36
 379 940 379 940 268 889 c 1,37,-1
 303 1069 l 1,38,39
 411 1108 411 1108 508 1127.5 c 128,-1,40
 605 1147 605 1147 694 1147 c 0,41,42
 880 1147 880 1147 983.5 1065 c 128,-1,43
 1087 983 1087 983 1087 838 c 0,44,45
 1087 806 1087 806 1081 754 c 128,-1,46
 1075 702 1075 702 1063 639 c 1,14,-1
EndSplineSet
EndChar
StartChar: b
Encoding: 98 98 98
Width: 1233
Flags: W
LayerCount: 2
Fore
SplineSet
539 127 m 0,0,1
 623 127 623 127 691 172 c 128,-1,2
 759 217 759 217 805 303 c 0,3,4
 854 397 854 397 882.5 513 c 128,-1,5
 911 629 911 629 911 737 c 0,6,7
 911 865 911 865 860.5 929 c 128,-1,8
 810 993 810 993 709 993 c 0,9,10
 626 993 626 993 557.5 947 c 128,-1,11
 489 901 489 901 438 813 c 0,12,13
 390 727 390 727 361 610.5 c 128,-1,14
 332 494 332 494 332 383 c 0,15,16
 332 260 332 260 385.5 193.5 c 128,-1,17
 439 127 439 127 539 127 c 0,0,1
434 977 m 1,18,19
 496 1061 496 1061 578 1104 c 128,-1,20
 660 1147 660 1147 762 1147 c 0,21,22
 926 1147 926 1147 1017 1043.5 c 128,-1,23
 1108 940 1108 940 1108 754 c 0,24,25
 1108 609 1108 609 1067 465 c 128,-1,26
 1026 321 1026 321 954 213 c 0,27,28
 878 98 878 98 768.5 34.5 c 128,-1,29
 659 -29 659 -29 535 -29 c 0,30,31
 437 -29 437 -29 370.5 14 c 128,-1,32
 304 57 304 57 270 141 c 1,33,-1
 244 0 l 1,34,-1
 59 0 l 1,35,-1
 362 1556 l 1,36,-1
 547 1556 l 1,37,-1
 434 977 l 1,18,19
EndSplineSet
EndChar
StartChar: c
Encoding: 99 99 99
Width: 1233
Flags: W
LayerCount: 2
Fore
SplineSet
940 51 m 1,0,1
 867 12 867 12 783.5 -8.5 c 128,-1,2
 700 -29 700 -29 610 -29 c 0,3,4
 386 -29 386 -29 271 83.5 c 128,-1,5
 156 196 156 196 156 416 c 0,6,7
 156 565 156 565 209.5 708.5 c 128,-1,8
 263 852 263 852 354 950 c 0,9,10
 447 1049 447 1049 558.5 1098 c 128,-1,11
 670 1147 670 1147 803 1147 c 0,12,13
 892 1147 892 1147 975 1125.5 c 128,-1,14
 1058 1104 1058 1104 1137 1061 c 1,15,-1
 1100 879 l 1,16,17
 1034 937 1034 937 964 964 c 128,-1,18
 894 991 894 991 809 991 c 0,19,20
 699 991 699 991 614 946.5 c 128,-1,21
 529 902 529 902 469 813 c 0,22,23
 413 731 413 731 381.5 625.5 c 128,-1,24
 350 520 350 520 350 416 c 0,25,26
 350 272 350 272 418.5 199.5 c 128,-1,27
 487 127 487 127 623 127 c 0,28,29
 719 127 719 127 807.5 158 c 128,-1,30
 896 189 896 189 979 252 c 1,31,-1
 940 51 l 1,0,1
EndSplineSet
EndChar
StartChar: d
Encoding: 100 100 100
Width: 1233
Flags: W
LayerCount: 2
Fore
SplineSet
686 991 m 0,0,1
 598 991 598 991 531 947.5 c 128,-1,2
 464 904 464 904 418 817 c 0,3,4
 369 727 369 727 342 612.5 c 128,-1,5
 315 498 315 498 315 383 c 0,6,7
 315 255 315 255 366 191 c 128,-1,8
 417 127 417 127 518 127 c 0,9,10
 603 127 603 127 671.5 172 c 128,-1,11
 740 217 740 217 788 305 c 0,12,13
 837 392 837 392 865 507.5 c 128,-1,14
 893 623 893 623 893 737 c 0,15,16
 893 857 893 857 838.5 924 c 128,-1,17
 784 991 784 991 686 991 c 0,0,1
954 977 m 1,18,-1
 1069 1556 l 1,19,-1
 1253 1556 l 1,20,-1
 950 0 l 1,21,-1
 766 0 l 1,22,-1
 793 141 l 1,23,24
 728 57 728 57 645.5 14 c 128,-1,25
 563 -29 563 -29 463 -29 c 0,26,27
 300 -29 300 -29 209.5 76 c 128,-1,28
 119 181 119 181 119 369 c 0,29,30
 119 512 119 512 159 656.5 c 128,-1,31
 199 801 199 801 268 909 c 0,32,33
 343 1027 343 1027 444.5 1087 c 128,-1,34
 546 1147 546 1147 670 1147 c 0,35,36
 767 1147 767 1147 840 1103.5 c 128,-1,37
 913 1060 913 1060 954 977 c 1,18,-1
EndSplineSet
EndChar
StartChar: e
Encoding: 101 101 101
Width: 1233
Flags: W
LayerCount: 2
Fore
SplineSet
938 659 m 1,0,1
 944 686 944 686 946 703.5 c 128,-1,2
 948 721 948 721 948 737 c 0,3,4
 948 857 948 857 883 924 c 128,-1,5
 818 991 818 991 702 991 c 0,6,7
 579 991 579 991 477.5 901 c 128,-1,8
 376 811 376 811 332 659 c 1,9,-1
 938 659 l 1,0,1
961 57 m 1,10,11
 856 14 856 14 756 -7.5 c 128,-1,12
 656 -29 656 -29 553 -29 c 0,13,14
 330 -29 330 -29 214 82.5 c 128,-1,15
 98 194 98 194 98 408 c 0,16,17
 98 564 98 564 158 714 c 128,-1,18
 218 864 218 864 324 973 c 0,19,20
 407 1059 407 1059 507.5 1104 c 128,-1,21
 608 1149 608 1149 717 1149 c 0,22,23
 903 1149 903 1149 1014.5 1034.5 c 128,-1,24
 1126 920 1126 920 1126 729 c 0,25,26
 1126 695 1126 695 1121 644.5 c 128,-1,27
 1116 594 1116 594 1104 516 c 1,28,-1
 297 516 l 1,29,30
 291 484 291 484 288 458 c 128,-1,31
 285 432 285 432 285 412 c 0,32,33
 285 273 285 273 362 200 c 128,-1,34
 439 127 439 127 586 127 c 0,35,36
 674 127 674 127 778.5 155.5 c 128,-1,37
 883 184 883 184 997 240 c 1,38,-1
 961 57 l 1,10,11
EndSplineSet
EndChar
StartChar: f
Encoding: 102 102 102
Width: 1233
Flags: W
LayerCount: 2
Fore
SplineSet
1245 1556 m 1,0,-1
 1214 1403 l 1,1,-1
 1006 1403 l 2,2,3
 911 1403 911 1403 863 1361.5 c 128,-1,4
 815 1320 815 1320 795 1219 c 1,5,-1
 774 1120 l 1,6,-1
 1159 1120 l 1,7,-1
 1133 977 l 1,8,-1
 748 977 l 1,9,-1
 557 0 l 1,10,-1
 373 0 l 1,11,-1
 563 977 l 1,12,-1
 264 977 l 1,13,-1
 293 1120 l 1,14,-1
 590 1120 l 1,15,-1
 606 1198 l 1,16,17
 644 1391 644 1391 740.5 1473.5 c 128,-1,18
 837 1556 837 1556 1024 1556 c 2,19,-1
 1245 1556 l 1,0,-1
EndSplineSet
EndChar
StartChar: g
Encoding: 103 103 103
Width: 1233
Flags: W
LayerCount: 2
Fore
SplineSet
512 145 m 0,0,1
 591 145 591 145 657.5 190 c 128,-1,2
 724 235 724 235 770 319 c 0,3,4
 819 409 819 409 846.5 521 c 128,-1,5
 874 633 874 633 874 739 c 0,6,7
 874 858 874 858 818 924.5 c 128,-1,8
 762 991 762 991 662 991 c 0,9,10
 508 991 508 991 402.5 822.5 c 128,-1,11
 297 654 297 654 297 399 c 0,12,13
 297 280 297 280 354 212.5 c 128,-1,14
 411 145 411 145 512 145 c 0,0,1
942 72 m 1,15,16
 889 -199 889 -199 755.5 -319.5 c 128,-1,17
 622 -440 622 -440 375 -440 c 0,18,19
 293 -440 293 -440 213.5 -426 c 128,-1,20
 134 -412 134 -412 59 -385 c 1,21,-1
 96 -203 l 1,22,23
 169 -247 169 -247 247.5 -270 c 128,-1,24
 326 -293 326 -293 406 -293 c 0,25,26
 555 -293 555 -293 637 -213 c 128,-1,27
 719 -133 719 -133 756 53 c 1,28,-1
 780 170 l 1,29,30
 722 83 722 83 635 37.5 c 128,-1,31
 548 -8 548 -8 438 -8 c 0,32,33
 284 -8 284 -8 193 99.5 c 128,-1,34
 102 207 102 207 102 391 c 0,35,36
 102 530 102 530 142 667.5 c 128,-1,37
 182 805 182 805 254 911 c 1,38,39
 328 1023 328 1023 432 1085 c 128,-1,40
 536 1147 536 1147 647 1147 c 0,41,42
 748 1147 748 1147 824 1098.5 c 128,-1,43
 900 1050 900 1050 934 965 c 1,44,-1
 961 1116 l 1,45,-1
 1145 1116 l 1,46,-1
 942 72 l 1,15,16
EndSplineSet
EndChar
StartChar: h
Encoding: 104 104 104
Width: 1233
Flags: W
LayerCount: 2
Fore
SplineSet
1075 694 m 2,0,-1
 940 0 l 1,1,-1
 756 0 l 1,2,-1
 891 695 l 1,3,4
 892 699 892 699 894 709 c 0,5,6
 909 780 909 780 909 819 c 0,7,8
 909 900 909 900 862.5 943.5 c 128,-1,9
 816 987 816 987 729 987 c 0,10,11
 602 987 602 987 513 894 c 128,-1,12
 424 801 424 801 391 633 c 1,13,-1
 268 0 l 1,14,-1
 84 0 l 1,15,-1
 387 1556 l 1,16,-1
 571 1556 l 1,17,-1
 455 952 l 1,18,19
 530 1049 530 1049 617.5 1098 c 128,-1,20
 705 1147 705 1147 803 1147 c 0,21,22
 942 1147 942 1147 1019 1074.5 c 128,-1,23
 1096 1002 1096 1002 1096 872 c 0,24,25
 1096 840 1096 840 1090.5 793 c 128,-1,26
 1085 746 1085 746 1075 694 c 2,0,-1
EndSplineSet
EndChar
StartChar: i
Encoding: 105 105 105
Width: 1233
Flags: W
LayerCount: 2
Fore
SplineSet
358 1120 m 1,0,-1
 829 1120 l 1,1,-1
 639 143 l 1,2,-1
 1004 143 l 1,3,-1
 975 0 l 1,4,-1
 61 0 l 1,5,-1
 90 143 l 1,6,-1
 455 143 l 1,7,-1
 616 977 l 1,8,-1
 330 977 l 1,9,-1
 358 1120 l 1,0,-1
729 1556 m 1,10,-1
 913 1556 l 1,11,-1
 868 1323 l 1,12,-1
 684 1323 l 1,13,-1
 729 1556 l 1,10,-1
EndSplineSet
EndChar
StartChar: j
Encoding: 106 106 106
Width: 1233
Flags: W
LayerCount: 2
Fore
SplineSet
498 -20 m 1,0,-1
 690 977 l 1,1,-1
 373 977 l 1,2,-1
 401 1120 l 1,3,-1
 903 1120 l 1,4,-1
 682 -20 l 1,5,6
 641 -233 641 -233 540 -329.5 c 128,-1,7
 439 -426 439 -426 258 -426 c 2,8,-1
 4 -426 l 1,9,-1
 35 -270 l 1,10,-1
 268 -270 l 2,11,12
 363 -270 363 -270 418 -210.5 c 128,-1,13
 473 -151 473 -151 498 -20 c 1,0,-1
803 1556 m 1,14,-1
 987 1556 l 1,15,-1
 942 1323 l 1,16,-1
 758 1323 l 1,17,-1
 803 1556 l 1,14,-1
EndSplineSet
EndChar
StartChar: k
Encoding: 107 107 107
Width: 1233
Flags: W
LayerCount: 2
Fore
SplineSet
393 1556 m 1,0,-1
 584 1556 l 1,1,-1
 414 682 l 1,2,-1
 963 1120 l 1,3,-1
 1204 1120 l 1,4,-1
 684 698 l 1,5,-1
 1057 0 l 1,6,-1
 844 0 l 1,7,-1
 537 582 l 1,8,-1
 369 449 l 1,9,-1
 281 0 l 1,10,-1
 90 0 l 1,11,-1
 393 1556 l 1,0,-1
EndSplineSet
EndChar
StartChar: l
Encoding: 108 108 108
Width: 1233
Flags: W
LayerCount: 2
Fore
SplineSet
600 408 m 1,0,1
 593 373 593 373 589.5 346 c 128,-1,2
 586 319 586 319 586 301 c 0,3,4
 586 228 586 228 630.5 192 c 128,-1,5
 675 156 675 156 766 156 c 2,6,-1
 977 156 l 1,7,-1
 946 0 l 1,8,-1
 739 0 l 2,9,10
 566 0 566 0 481.5 63.5 c 128,-1,11
 397 127 397 127 397 258 c 0,12,13
 397 286 397 286 402 326 c 128,-1,14
 407 366 407 366 416 412 c 1,15,-1
 627 1423 l 1,16,-1
 311 1423 l 1,17,-1
 340 1567 l 1,18,-1
 840 1567 l 1,19,-1
 600 408 l 1,0,1
EndSplineSet
EndChar
StartChar: m
Encoding: 109 109 109
Width: 1233
Flags: W
LayerCount: 2
Fore
SplineSet
748 1006 m 1,0,1
 787 1074 787 1074 849.5 1110.5 c 128,-1,2
 912 1147 912 1147 989 1147 c 0,3,4
 1075 1147 1075 1147 1126.5 1092.5 c 128,-1,5
 1178 1038 1178 1038 1178 946 c 0,6,7
 1178 892 1178 892 1169 824 c 128,-1,8
 1160 756 1160 756 1139 649 c 2,9,-1
 1012 0 l 1,10,-1
 844 0 l 1,11,-1
 969 641 l 2,12,13
 987 733 987 733 996.5 791.5 c 128,-1,14
 1006 850 1006 850 1006 874 c 0,15,16
 1006 937 1006 937 983 965 c 128,-1,17
 960 993 960 993 909 993 c 0,18,19
 834 993 834 993 792 928.5 c 128,-1,20
 750 864 750 864 707 641 c 1,21,-1
 582 0 l 1,22,-1
 414 0 l 1,23,-1
 539 641 l 2,24,25
 558 738 558 738 566.5 794.5 c 128,-1,26
 575 851 575 851 575 874 c 0,27,28
 575 935 575 935 551.5 964 c 128,-1,29
 528 993 528 993 479 993 c 0,30,31
 405 993 405 993 364.5 933.5 c 128,-1,32
 324 874 324 874 279 641 c 1,33,-1
 154 0 l 1,34,-1
 -14 0 l 1,35,-1
 203 1120 l 1,36,-1
 371 1120 l 1,37,-1
 352 1024 l 1,38,39
 396 1084 396 1084 451.5 1115.5 c 128,-1,40
 507 1147 507 1147 571 1147 c 0,41,42
 646 1147 646 1147 692 1109.5 c 128,-1,43
 738 1072 738 1072 748 1006 c 1,0,1
EndSplineSet
EndChar
StartChar: n
Encoding: 110 110 110
Width: 1233
Flags: W
LayerCount: 2
Fore
SplineSet
1075 694 m 2,0,-1
 940 0 l 1,1,-1
 756 0 l 1,2,-1
 891 695 l 1,3,4
 892 699 892 699 894 709 c 0,5,6
 909 780 909 780 909 819 c 0,7,8
 909 900 909 900 862.5 943.5 c 128,-1,9
 816 987 816 987 729 987 c 0,10,11
 602 987 602 987 513 894 c 128,-1,12
 424 801 424 801 391 633 c 1,13,-1
 268 0 l 1,14,-1
 84 0 l 1,15,-1
 303 1120 l 1,16,-1
 487 1120 l 1,17,-1
 455 952 l 1,18,19
 530 1049 530 1049 617.5 1098 c 128,-1,20
 705 1147 705 1147 803 1147 c 0,21,22
 942 1147 942 1147 1019 1074.5 c 128,-1,23
 1096 1002 1096 1002 1096 872 c 0,24,25
 1096 840 1096 840 1090.5 793 c 128,-1,26
 1085 746 1085 746 1075 694 c 2,0,-1
EndSplineSet
EndChar
StartChar: o
Encoding: 111 111 111
Width: 1233
Flags: W
LayerCount: 2
Fore
SplineSet
696 991 m 0,0,1
 532 991 532 991 422.5 820 c 128,-1,2
 313 649 313 649 313 385 c 0,3,4
 313 256 313 256 369 191.5 c 128,-1,5
 425 127 425 127 537 127 c 0,6,7
 701 127 701 127 810.5 298 c 128,-1,8
 920 469 920 469 920 733 c 0,9,10
 920 862 920 862 864 926.5 c 128,-1,11
 808 991 808 991 696 991 c 0,0,1
713 1147 m 0,12,13
 909 1147 909 1147 1011.5 1040 c 128,-1,14
 1114 933 1114 933 1114 727 c 0,15,16
 1114 589 1114 589 1073 452.5 c 128,-1,17
 1032 316 1032 316 958 207 c 0,18,19
 879 89 879 89 766 30 c 128,-1,20
 653 -29 653 -29 506 -29 c 0,21,22
 319 -29 319 -29 218 80.5 c 128,-1,23
 117 190 117 190 117 393 c 0,24,25
 117 528 117 528 158 663 c 128,-1,26
 199 798 199 798 274 911 c 0,27,28
 353 1027 353 1027 464.5 1087 c 128,-1,29
 576 1147 576 1147 713 1147 c 0,12,13
EndSplineSet
EndChar
StartChar: p
Encoding: 112 112 112
Width: 1233
Flags: W
LayerCount: 2
Fore
SplineSet
293 141 m 1,0,-1
 182 -426 l 1,1,-1
 -2 -426 l 1,2,-1
 299 1120 l 1,3,-1
 483 1120 l 1,4,-1
 455 977 l 1,5,6
 516 1059 516 1059 602 1103 c 128,-1,7
 688 1147 688 1147 788 1147 c 0,8,9
 950 1147 950 1147 1039 1043 c 128,-1,10
 1128 939 1128 939 1128 752 c 0,11,12
 1128 609 1128 609 1088.5 465 c 128,-1,13
 1049 321 1049 321 979 211 c 0,14,15
 904 93 904 93 802 32 c 128,-1,16
 700 -29 700 -29 578 -29 c 0,17,18
 478 -29 478 -29 407.5 13 c 128,-1,19
 337 55 337 55 293 141 c 1,0,-1
569 127 m 0,20,21
 650 127 650 127 717 171.5 c 128,-1,22
 784 216 784 216 829 301 c 0,23,24
 878 393 878 393 906 508.5 c 128,-1,25
 934 624 934 624 934 737 c 0,26,27
 934 864 934 864 882.5 927.5 c 128,-1,28
 831 991 831 991 729 991 c 0,29,30
 644 991 644 991 575.5 946 c 128,-1,31
 507 901 507 901 459 813 c 0,32,33
 410 725 410 725 382 611 c 128,-1,34
 354 497 354 497 354 383 c 0,35,36
 354 260 354 260 410 193.5 c 128,-1,37
 466 127 466 127 569 127 c 0,20,21
EndSplineSet
EndChar
StartChar: q
Encoding: 113 113 113
Width: 1233
Flags: W
LayerCount: 2
Fore
SplineSet
774 141 m 1,0,1
 713 57 713 57 630.5 14 c 128,-1,2
 548 -29 548 -29 446 -29 c 0,3,4
 282 -29 282 -29 190 74.5 c 128,-1,5
 98 178 98 178 98 365 c 0,6,7
 98 507 98 507 139 652 c 128,-1,8
 180 797 180 797 252 909 c 0,9,10
 327 1027 327 1027 431.5 1087 c 128,-1,11
 536 1147 536 1147 666 1147 c 0,12,13
 766 1147 766 1147 833.5 1104.5 c 128,-1,14
 901 1062 901 1062 936 977 c 1,15,-1
 963 1120 l 1,16,-1
 1147 1120 l 1,17,-1
 848 -426 l 1,18,-1
 664 -426 l 1,19,-1
 774 141 l 1,0,1
668 991 m 0,20,21
 583 991 583 991 515 947 c 128,-1,22
 447 903 447 903 401 817 c 0,23,24
 352 723 352 723 323.5 607 c 128,-1,25
 295 491 295 491 295 383 c 0,26,27
 295 255 295 255 345.5 191 c 128,-1,28
 396 127 396 127 498 127 c 0,29,30
 580 127 580 127 649 172.5 c 128,-1,31
 718 218 718 218 768 305 c 0,32,33
 816 390 816 390 845 507.5 c 128,-1,34
 874 625 874 625 874 737 c 0,35,36
 874 860 874 860 820.5 925.5 c 128,-1,37
 767 991 767 991 668 991 c 0,20,21
EndSplineSet
EndChar
StartChar: r
Encoding: 114 114 114
Width: 1233
Flags: W
LayerCount: 2
Fore
SplineSet
1184 889 m 1,0,1
 1139 933 1139 933 1079.5 955 c 128,-1,2
 1020 977 1020 977 944 977 c 0,3,4
 780 977 780 977 663 862.5 c 128,-1,5
 546 748 546 748 508 549 c 1,6,-1
 401 0 l 1,7,-1
 217 0 l 1,8,-1
 434 1120 l 1,9,-1
 618 1120 l 1,10,-1
 578 901 l 1,11,12
 645 1021 645 1021 751.5 1084 c 128,-1,13
 858 1147 858 1147 993 1147 c 0,14,15
 1064 1147 1064 1147 1121.5 1128.5 c 128,-1,16
 1179 1110 1179 1110 1219 1075 c 1,17,-1
 1184 889 l 1,0,1
EndSplineSet
EndChar
StartChar: s
Encoding: 115 115 115
Width: 1233
Flags: W
LayerCount: 2
Fore
SplineSet
1077 1081 m 1,0,-1
 1042 901 l 1,1,2
 971 946 971 946 892.5 969.5 c 128,-1,3
 814 993 814 993 737 993 c 0,4,5
 600 993 600 993 524.5 942 c 128,-1,6
 449 891 449 891 449 799 c 0,7,8
 449 701 449 701 670 645 c 0,9,10
 685 641 685 641 692 639 c 2,11,-1
 764 621 l 2,12,13
 881 590 881 590 939 528.5 c 128,-1,14
 997 467 997 467 997 375 c 0,15,16
 997 194 997 194 853 82.5 c 128,-1,17
 709 -29 709 -29 471 -29 c 0,18,19
 390 -29 390 -29 302 -11.5 c 128,-1,20
 214 6 214 6 115 41 c 1,21,-1
 152 231 l 1,22,23
 246 178 246 178 334.5 151.5 c 128,-1,24
 423 125 423 125 506 125 c 0,25,26
 639 125 639 125 723 184.5 c 128,-1,27
 807 244 807 244 807 336 c 0,28,29
 807 435 807 435 611 487 c 0,30,31
 593 491 593 491 583 494 c 2,32,-1
 516 512 l 2,33,34
 387 545 387 545 326.5 609 c 128,-1,35
 266 673 266 673 266 776 c 0,36,37
 266 946 266 946 398 1046.5 c 128,-1,38
 530 1147 530 1147 754 1147 c 0,39,40
 842 1147 842 1147 923 1130.5 c 128,-1,41
 1004 1114 1004 1114 1077 1081 c 1,0,-1
EndSplineSet
EndChar
StartChar: t
Encoding: 116 116 116
Width: 1233
Flags: W
LayerCount: 2
Fore
SplineSet
768 1438 m 1,0,-1
 707 1120 l 1,1,-1
 1124 1120 l 1,2,-1
 1096 977 l 1,3,-1
 678 977 l 1,4,-1
 559 369 l 2,5,6
 553 339 553 339 550 313.5 c 128,-1,7
 547 288 547 288 547 266 c 0,8,9
 547 200 547 200 586 173.5 c 128,-1,10
 625 147 625 147 727 147 c 2,11,-1
 934 147 l 1,12,-1
 905 0 l 1,13,-1
 682 0 l 2,14,15
 515 0 515 0 436.5 55.5 c 128,-1,16
 358 111 358 111 358 229 c 0,17,18
 358 254 358 254 362 288 c 128,-1,19
 366 322 366 322 375 369 c 2,20,-1
 494 977 l 1,21,-1
 195 977 l 1,22,-1
 223 1120 l 1,23,-1
 522 1120 l 1,24,-1
 584 1438 l 1,25,-1
 768 1438 l 1,0,-1
EndSplineSet
EndChar
StartChar: u
Encoding: 117 117 117
Width: 1233
Flags: W
LayerCount: 2
Fore
SplineSet
143 426 m 2,0,-1
 276 1120 l 1,1,-1
 461 1120 l 1,2,-1
 326 426 l 2,3,4
 319 389 319 389 315 355 c 128,-1,5
 311 321 311 321 311 297 c 0,6,7
 311 218 311 218 357.5 175.5 c 128,-1,8
 404 133 404 133 489 133 c 0,9,10
 616 133 616 133 704 225.5 c 128,-1,11
 792 318 792 318 825 487 c 2,12,-1
 948 1120 l 1,13,-1
 1133 1120 l 1,14,-1
 915 0 l 1,15,-1
 731 0 l 1,16,-1
 764 168 l 1,17,18
 691 70 691 70 602 21.5 c 128,-1,19
 513 -27 513 -27 408 -27 c 0,20,21
 277 -27 277 -27 201 46.5 c 128,-1,22
 125 120 125 120 125 246 c 0,23,24
 125 285 125 285 129.5 331.5 c 128,-1,25
 134 378 134 378 143 426 c 2,0,-1
EndSplineSet
EndChar
StartChar: v
Encoding: 118 118 118
Width: 1233
Flags: W
LayerCount: 2
Fore
SplineSet
182 1120 m 1,0,-1
 360 1120 l 1,1,-1
 514 164 l 1,2,-1
 1016 1120 l 1,3,-1
 1214 1120 l 1,4,-1
 600 0 l 1,5,-1
 362 0 l 1,6,-1
 182 1120 l 1,0,-1
EndSplineSet
EndChar
StartChar: w
Encoding: 119 119 119
Width: 1233
Flags: W
LayerCount: 2
Fore
SplineSet
92 1120 m 1,0,-1
 268 1120 l 1,1,-1
 283 215 l 1,2,-1
 551 793 l 1,3,-1
 713 793 l 1,4,-1
 762 215 l 1,5,-1
 1124 1120 l 1,6,-1
 1315 1120 l 1,7,-1
 829 0 l 1,8,-1
 664 0 l 1,9,-1
 604 623 l 1,10,-1
 307 0 l 1,11,-1
 141 0 l 1,12,-1
 92 1120 l 1,0,-1
EndSplineSet
EndChar
StartChar: x
Encoding: 120 120 120
Width: 1233
Flags: W
LayerCount: 2
Fore
SplineSet
1208 1120 m 1,0,-1
 696 573 l 1,1,-1
 1014 0 l 1,2,-1
 817 0 l 1,3,-1
 573 444 l 1,4,-1
 156 0 l 1,5,-1
 -70 0 l 1,6,-1
 494 596 l 1,7,-1
 201 1120 l 1,8,-1
 397 1120 l 1,9,-1
 614 725 l 1,10,-1
 983 1120 l 1,11,-1
 1208 1120 l 1,0,-1
EndSplineSet
EndChar
StartChar: y
Encoding: 121 121 121
Width: 1233
Flags: W
LayerCount: 2
Fore
SplineSet
786 360 m 2,0,1
 724 253 724 253 621 72 c 0,2,3
 466 -203 466 -203 412 -276 c 0,4,5
 354 -352 354 -352 279.5 -389 c 128,-1,6
 205 -426 205 -426 109 -426 c 2,7,-1
 -39 -426 l 1,8,-1
 -10 -272 l 1,9,-1
 98 -272 l 2,10,11
 179 -272 179 -272 237.5 -225.5 c 128,-1,12
 296 -179 296 -179 356 -66 c 1,13,-1
 399 18 l 1,14,-1
 182 1120 l 1,15,-1
 365 1120 l 1,16,-1
 537 258 l 1,17,-1
 1020 1120 l 1,18,-1
 1225 1120 l 1,19,-1
 786 360 l 2,0,1
EndSplineSet
EndChar
StartChar: z
Encoding: 122 122 122
Width: 1233
Flags: W
LayerCount: 2
Fore
SplineSet
319 1120 m 1,0,-1
 1133 1120 l 1,1,-1
 1100 952 l 1,2,-1
 315 147 l 1,3,-1
 944 147 l 1,4,-1
 915 0 l 1,5,-1
 78 0 l 1,6,-1
 111 168 l 1,7,-1
 895 973 l 1,8,-1
 291 973 l 1,9,-1
 319 1120 l 1,0,-1
EndSplineSet
EndChar
StartChar: braceleft
Encoding: 123 123 123
Width: 1233
Flags: W
LayerCount: 2
Fore
SplineSet
1176 1556 m 1,0,-1
 1147 1413 l 1,1,-1
 1069 1413 l 2,2,3
 933 1413 933 1413 886 1373.5 c 128,-1,4
 839 1334 839 1334 809 1184 c 1,5,-1
 758 932 l 1,6,7
 725 772 725 772 665 699.5 c 128,-1,8
 605 627 605 627 494 606 c 1,9,10
 567 588 567 588 607 536.5 c 128,-1,11
 647 485 647 485 647 410 c 0,12,13
 647 385 647 385 643.5 353 c 128,-1,14
 640 321 640 321 633 283 c 1,15,-1
 586 39 l 1,16,17
 580 6 580 6 578 -19.5 c 128,-1,18
 576 -45 576 -45 575 -70 c 0,19,20
 575 -133 575 -133 618 -161.5 c 128,-1,21
 661 -190 661 -190 758 -190 c 2,22,-1
 836 -190 l 1,23,-1
 807 -334 l 1,24,-1
 735 -334 l 2,25,26
 548 -334 548 -334 466.5 -279.5 c 128,-1,27
 385 -225 385 -225 385 -102 c 0,28,29
 385 -71 385 -71 388.5 -37 c 128,-1,30
 392 -3 392 -3 399 34 c 2,31,-1
 444 270 l 1,32,33
 445 273 445 273 447 282 c 0,34,35
 457 332 457 332 457 377 c 0,36,37
 457 462 457 462 408 499.5 c 128,-1,38
 359 537 359 537 246 537 c 2,39,-1
 184 537 l 1,40,-1
 213 684 l 1,41,-1
 274 684 l 2,42,43
 419 684 419 684 482 739 c 128,-1,44
 545 794 545 794 575 944 c 1,45,-1
 625 1188 l 2,46,47
 650 1311 650 1311 686 1382.5 c 128,-1,48
 722 1454 722 1454 776 1493 c 0,49,50
 823 1527 823 1527 892 1541.5 c 128,-1,51
 961 1556 961 1556 1094 1556 c 2,52,-1
 1176 1556 l 1,0,-1
EndSplineSet
EndChar
StartChar: bar
Encoding: 124 124 124
Width: 1233
Flags: W
LayerCount: 2
Fore
SplineSet
702 1565 m 1,0,-1
 702 -483 l 1,1,-1
 530 -483 l 1,2,-1
 530 1565 l 1,3,-1
 702 1565 l 1,0,-1
EndSplineSet
EndChar
StartChar: braceright
Encoding: 125 125 125
Width: 1233
Flags: W
LayerCount: 2
Fore
SplineSet
-14 -334 m 1,0,-1
 14 -190 l 1,1,-1
 92 -190 l 2,2,3
 228 -190 228 -190 275 -150.5 c 128,-1,4
 322 -111 322 -111 352 39 c 1,5,-1
 403 291 l 1,6,7
 436 451 436 451 496 523.5 c 128,-1,8
 556 596 556 596 668 616 c 1,9,10
 594 635 594 635 554 686 c 128,-1,11
 514 737 514 737 514 813 c 0,12,13
 514 837 514 837 517.5 869.5 c 128,-1,14
 521 902 521 902 528 940 c 1,15,-1
 575 1183 l 1,16,17
 581 1217 581 1217 583.5 1242.5 c 128,-1,18
 586 1268 586 1268 586 1292 c 0,19,20
 586 1356 586 1356 543.5 1384.5 c 128,-1,21
 501 1413 501 1413 403 1413 c 2,22,-1
 326 1413 l 1,23,-1
 352 1556 l 1,24,-1
 426 1556 l 2,25,26
 614 1556 614 1556 695 1502 c 128,-1,27
 776 1448 776 1448 776 1325 c 0,28,29
 776 1293 776 1293 772.5 1259 c 128,-1,30
 769 1225 769 1225 762 1188 c 2,31,-1
 717 952 l 1,32,33
 716 949 716 949 715 940 c 0,34,35
 705 891 705 891 705 846 c 0,36,37
 705 760 705 760 754 723 c 128,-1,38
 803 686 803 686 915 686 c 2,39,-1
 977 686 l 1,40,-1
 948 539 l 1,41,-1
 887 539 l 2,42,43
 743 539 743 539 679.5 484 c 128,-1,44
 616 429 616 429 584 279 c 1,45,-1
 537 35 l 1,46,47
 511 -89 511 -89 475 -160 c 128,-1,48
 439 -231 439 -231 385 -270 c 0,49,50
 338 -304 338 -304 269 -319 c 128,-1,51
 200 -334 200 -334 68 -334 c 2,52,-1
 -14 -334 l 1,0,-1
EndSplineSet
EndChar
StartChar: asciitilde
Encoding: 126 126 126
Width: 1233
Flags: W
LayerCount: 2
Fore
SplineSet
1145 780 m 1,0,-1
 1145 606 l 1,1,2
 1070 547 1070 547 998.5 519.5 c 128,-1,3
 927 492 927 492 848 492 c 0,4,5
 758 492 758 492 645 543 c 0,6,7
 623 553 623 553 612 557 c 0,8,9
 535 590 535 590 483.5 602 c 128,-1,10
 432 614 432 614 381 614 c 0,11,12
 302 614 302 614 231.5 584.5 c 128,-1,13
 161 555 161 555 88 492 c 1,14,-1
 88 666 l 1,15,16
 166 726 166 726 239 753 c 128,-1,17
 312 780 312 780 395 780 c 0,18,19
 448 780 448 780 498 769 c 128,-1,20
 548 758 548 758 622 727 c 0,21,22
 634 722 634 722 655 712 c 0,23,24
 771 657 771 657 864 657 c 0,25,26
 934 657 934 657 1002.5 687.5 c 128,-1,27
 1071 718 1071 718 1145 780 c 1,0,-1
EndSplineSet
EndChar
StartChar: exclamdown
Encoding: 161 161 161
Width: 1233
Flags: W
LayerCount: 2
Fore
SplineSet
834 866 m 1,0,-1
 631 866 l 1,1,-1
 680 1120 l 1,2,-1
 883 1120 l 1,3,-1
 834 866 l 1,0,-1
592 -373 m 1,4,-1
 389 -373 l 1,5,-1
 518 282 l 1,6,-1
 606 639 l 1,7,-1
 768 639 l 1,8,-1
 719 282 l 1,9,-1
 592 -373 l 1,4,-1
EndSplineSet
Substitution2: "'case' Case-Sensitive Forms" exclamdown.case
EndChar
StartChar: cent
Encoding: 162 162 162
Width: 1233
Flags: W
LayerCount: 2
Fore
SplineSet
1087 1077 m 1,0,-1
 1055 905 l 1,1,2
 1006 943 1006 943 944.5 965 c 128,-1,3
 883 987 883 987 811 993 c 1,4,-1
 641 123 l 1,5,6
 706 128 706 128 775.5 150.5 c 128,-1,7
 845 173 845 173 920 213 c 1,8,-1
 887 41 l 1,9,10
 812 10 812 10 743.5 -6.5 c 128,-1,11
 675 -23 675 -23 612 -27 c 1,12,-1
 557 -313 l 1,13,-1
 455 -313 l 1,14,-1
 510 -27 l 1,15,16
 327 -7 327 -7 225 114 c 128,-1,17
 123 235 123 235 123 430 c 0,18,19
 123 616 123 616 204 778 c 128,-1,20
 285 940 285 940 426 1036 c 0,21,22
 496 1085 496 1085 573.5 1112 c 128,-1,23
 651 1139 651 1139 737 1145 c 1,24,-1
 793 1432 l 1,25,-1
 895 1432 l 1,26,-1
 840 1145 l 1,27,28
 900 1142 900 1142 962.5 1125 c 128,-1,29
 1025 1108 1025 1108 1087 1077 c 1,0,-1
541 127 m 1,30,-1
 709 991 l 1,31,32
 544 976 544 976 429.5 811.5 c 128,-1,33
 315 647 315 647 315 422 c 0,34,35
 315 292 315 292 373.5 215.5 c 128,-1,36
 432 139 432 139 541 127 c 1,30,-1
EndSplineSet
EndChar
StartChar: sterling
Encoding: 163 163 163
Width: 1233
Flags: W
LayerCount: 2
Fore
SplineSet
1229 1462 m 1,0,-1
 1192 1278 l 1,1,2
 1138 1321 1138 1321 1077.5 1343.5 c 128,-1,3
 1017 1366 1017 1366 954 1366 c 0,4,5
 815 1366 815 1366 738 1281 c 128,-1,6
 661 1196 661 1196 623 995 c 1,7,-1
 580 778 l 1,8,-1
 950 778 l 1,9,-1
 922 635 l 1,10,-1
 551 635 l 1,11,-1
 461 170 l 1,12,-1
 997 170 l 1,13,-1
 965 0 l 1,14,-1
 -8 0 l 1,15,-1
 25 170 l 1,16,-1
 262 170 l 1,17,-1
 352 635 l 1,18,-1
 154 635 l 1,19,-1
 180 778 l 1,20,-1
 379 778 l 1,21,-1
 426 1016 l 2,22,23
 477 1276 477 1276 608 1398 c 128,-1,24
 739 1520 739 1520 967 1520 c 0,25,26
 1027 1520 1027 1520 1092 1505.5 c 128,-1,27
 1157 1491 1157 1491 1229 1462 c 1,0,-1
EndSplineSet
EndChar
StartChar: currency
Encoding: 164 164 164
Width: 1233
Flags: W
LayerCount: 2
Fore
SplineSet
868 643 m 0,0,1
 868 733 868 733 806 794.5 c 128,-1,2
 744 856 744 856 653 856 c 0,3,4
 563 856 563 856 500.5 794.5 c 128,-1,5
 438 733 438 733 438 643 c 0,6,7
 438 551 438 551 500.5 488.5 c 128,-1,8
 563 426 563 426 653 426 c 0,9,10
 744 426 744 426 806 489 c 128,-1,11
 868 552 868 552 868 643 c 0,0,1
844 924 m 1,12,-1
 1010 1090 l 1,13,-1
 1100 997 l 1,14,-1
 934 831 l 1,15,16
 964 782 964 782 978.5 735.5 c 128,-1,17
 993 689 993 689 993 641 c 0,18,19
 993 591 993 591 978 545.5 c 128,-1,20
 963 500 963 500 932 455 c 1,21,-1
 1100 289 l 1,22,-1
 1006 195 l 1,23,-1
 840 362 l 1,24,25
 794 331 794 331 748.5 316 c 128,-1,26
 703 301 703 301 653 301 c 0,27,28
 605 301 605 301 557 315.5 c 128,-1,29
 509 330 509 330 461 358 c 1,30,-1
 297 195 l 1,31,-1
 205 285 l 1,32,-1
 371 451 l 1,33,34
 340 502 340 502 325.5 548.5 c 128,-1,35
 311 595 311 595 311 641 c 0,36,37
 311 691 311 691 326.5 737.5 c 128,-1,38
 342 784 342 784 373 829 c 1,39,-1
 205 995 l 1,40,-1
 299 1090 l 1,41,-1
 465 922 l 1,42,43
 511 953 511 953 556.5 968 c 128,-1,44
 602 983 602 983 653 983 c 0,45,46
 699 983 699 983 746 968.5 c 128,-1,47
 793 954 793 954 844 924 c 1,12,-1
EndSplineSet
EndChar
StartChar: yen
Encoding: 165 165 165
Width: 1233
Flags: W
LayerCount: 2
Fore
SplineSet
1036 524 m 1,0,-1
 643 524 l 1,1,-1
 545 0 l 1,2,-1
 346 0 l 1,3,-1
 444 524 l 1,4,-1
 47 524 l 1,5,-1
 70 635 l 1,6,-1
 467 635 l 1,7,-1
 473 670 l 1,8,-1
 418 821 l 1,9,-1
 109 821 l 1,10,-1
 131 932 l 1,11,-1
 377 932 l 1,12,-1
 172 1493 l 1,13,-1
 379 1493 l 1,14,-1
 602 829 l 1,15,-1
 1061 1493 l 1,16,-1
 1272 1493 l 1,17,-1
 868 932 l 1,18,-1
 1120 932 l 1,19,-1
 1098 821 l 1,20,-1
 786 821 l 1,21,-1
 676 670 l 1,22,-1
 666 635 l 1,23,-1
 1059 635 l 1,24,-1
 1036 524 l 1,0,-1
EndSplineSet
EndChar
StartChar: brokenbar
Encoding: 166 166 166
Width: 1233
Flags: W
LayerCount: 2
Fore
SplineSet
702 1432 m 1,0,-1
 702 674 l 1,1,-1
 530 674 l 1,2,-1
 530 1432 l 1,3,-1
 702 1432 l 1,0,-1
702 408 m 1,4,-1
 702 -350 l 1,5,-1
 530 -350 l 1,6,-1
 530 408 l 1,7,-1
 702 408 l 1,4,-1
EndSplineSet
EndChar
StartChar: section
Encoding: 167 167 167
Width: 1233
Flags: W
LayerCount: 2
Fore
SplineSet
1069 1454 m 1,0,-1
 1036 1290 l 1,1,2
 965 1328 965 1328 896.5 1348 c 128,-1,3
 828 1368 828 1368 770 1368 c 0,4,5
 667 1368 667 1368 601 1319 c 128,-1,6
 535 1270 535 1270 535 1198 c 0,7,8
 535 1119 535 1119 669 1029 c 0,9,10
 700 1009 700 1009 717 997 c 2,11,-1
 803 938 l 2,12,13
 927 852 927 852 969.5 793.5 c 128,-1,14
 1012 735 1012 735 1012 666 c 0,15,16
 1012 565 1012 565 946 475 c 128,-1,17
 880 385 880 385 766 332 c 1,18,19
 807 297 807 297 827.5 252 c 128,-1,20
 848 207 848 207 848 152 c 0,21,22
 848 -5 848 -5 726.5 -103 c 128,-1,23
 605 -201 605 -201 406 -201 c 0,24,25
 336 -201 336 -201 259.5 -186.5 c 128,-1,26
 183 -172 183 -172 100 -143 c 1,27,-1
 133 18 l 1,28,29
 207 -18 207 -18 279 -37.5 c 128,-1,30
 351 -57 351 -57 412 -57 c 0,31,32
 524 -57 524 -57 590.5 -10 c 128,-1,33
 657 37 657 37 657 115 c 0,34,35
 657 213 657 213 474 337 c 2,36,-1
 461 346 l 1,37,-1
 387 397 l 2,38,39
 262 482 262 482 222 537.5 c 128,-1,40
 182 593 182 593 182 666 c 0,41,42
 182 762 182 762 246 848 c 128,-1,43
 310 934 310 934 428 997 c 1,44,45
 387 1034 387 1034 368.5 1074 c 128,-1,46
 350 1114 350 1114 350 1167 c 0,47,48
 350 1316 350 1316 470 1413.5 c 128,-1,49
 590 1511 590 1511 776 1511 c 0,50,51
 847 1511 847 1511 920.5 1497 c 128,-1,52
 994 1483 994 1483 1069 1454 c 1,0,-1
678 401 m 1,53,54
 762 452 762 452 806 507.5 c 128,-1,55
 850 563 850 563 850 618 c 0,56,57
 850 671 850 671 796.5 727 c 128,-1,58
 743 783 743 783 596 877 c 2,59,-1
 516 928 l 1,60,61
 434 876 434 876 391 820 c 128,-1,62
 348 764 348 764 348 709 c 0,63,64
 348 658 348 658 390.5 610 c 128,-1,65
 433 562 433 562 559 479 c 2,66,-1
 678 401 l 1,53,54
EndSplineSet
EndChar
StartChar: dieresis
Encoding: 168 168 168
Width: 1233
Flags: W
LayerCount: 2
Fore
SplineSet
475 1552 m 1,0,-1
 678 1552 l 1,1,-1
 639 1350 l 1,2,-1
 436 1350 l 1,3,-1
 475 1552 l 1,0,-1
866 1552 m 1,4,-1
 1069 1552 l 1,5,-1
 1030 1350 l 1,6,-1
 827 1350 l 1,7,-1
 866 1552 l 1,4,-1
EndSplineSet
LCarets2: 1 0 
EndChar
StartChar: copyright
Encoding: 169 169 169
Width: 1233
Flags: W
LayerCount: 2
Fore
SplineSet
864 1071 m 1,0,-1
 864 963 l 1,1,2
 806 991 806 991 750.5 1004.5 c 128,-1,3
 695 1018 695 1018 637 1018 c 0,4,5
 520 1018 520 1018 452.5 943.5 c 128,-1,6
 385 869 385 869 385 741 c 0,7,8
 385 609 385 609 455 538 c 128,-1,9
 525 467 525 467 655 467 c 0,10,11
 711 467 711 467 762.5 479.5 c 128,-1,12
 814 492 814 492 864 518 c 1,13,-1
 864 414 l 1,14,15
 812 391 812 391 755 380 c 128,-1,16
 698 369 698 369 637 369 c 0,17,18
 457 369 457 369 353.5 469 c 128,-1,19
 250 569 250 569 250 741 c 0,20,21
 250 914 250 914 354 1015 c 128,-1,22
 458 1116 458 1116 637 1116 c 0,23,24
 698 1116 698 1116 755 1105 c 128,-1,25
 812 1094 812 1094 864 1071 c 1,0,-1
616 1255 m 0,26,27
 510 1255 510 1255 419.5 1218 c 128,-1,28
 329 1181 329 1181 254 1106 c 0,29,30
 179 1031 179 1031 140.5 939 c 128,-1,31
 102 847 102 847 102 741 c 0,32,33
 102 637 102 637 140.5 545.5 c 128,-1,34
 179 454 179 454 254 379 c 0,35,36
 330 303 330 303 420.5 265 c 128,-1,37
 511 227 511 227 616 227 c 0,38,39
 722 227 722 227 812.5 265 c 128,-1,40
 903 303 903 303 979 379 c 0,41,42
 1055 455 1055 455 1092.5 545.5 c 128,-1,43
 1130 636 1130 636 1130 741 c 0,44,45
 1130 847 1130 847 1092 939 c 128,-1,46
 1054 1031 1054 1031 979 1106 c 0,47,48
 904 1181 904 1181 813.5 1218 c 128,-1,49
 723 1255 723 1255 616 1255 c 0,26,27
616 1358 m 0,50,51
 743 1358 743 1358 852 1313 c 128,-1,52
 961 1268 961 1268 1051 1178 c 0,53,54
 1141 1087 1141 1087 1187 977 c 128,-1,55
 1233 867 1233 867 1233 741 c 0,56,57
 1233 616 1233 616 1187.5 507 c 128,-1,58
 1142 398 1142 398 1051 307 c 0,59,60
 960 216 960 216 851 170.5 c 128,-1,61
 742 125 742 125 616 125 c 0,62,63
 491 125 491 125 382 170.5 c 128,-1,64
 273 216 273 216 182 307 c 0,65,66
 91 398 91 398 45.5 507 c 128,-1,67
 0 616 0 616 0 741 c 0,68,69
 0 867 0 867 46 977 c 128,-1,70
 92 1087 92 1087 182 1178 c 0,71,72
 272 1268 272 1268 381 1313 c 128,-1,73
 490 1358 490 1358 616 1358 c 0,50,51
EndSplineSet
EndChar
StartChar: ordfeminine
Encoding: 170 170 170
Width: 1233
Flags: W
LayerCount: 2
Fore
SplineSet
729 1104 m 2,0,1
 581 1104 581 1104 511.5 1064 c 128,-1,2
 442 1024 442 1024 442 938 c 0,3,4
 442 883 442 883 478.5 850 c 128,-1,5
 515 817 515 817 575 817 c 0,6,7
 686 817 686 817 761.5 884 c 128,-1,8
 837 951 837 951 864 1075 c 1,9,-1
 870 1104 l 1,10,-1
 729 1104 l 2,0,1
1026 1165 m 1,11,-1
 940 717 l 1,12,-1
 797 717 l 1,13,-1
 819 829 l 1,14,15
 766 766 766 766 692 732 c 128,-1,16
 618 698 618 698 532 698 c 0,17,18
 423 698 423 698 359 758 c 128,-1,19
 295 818 295 818 295 920 c 0,20,21
 295 1060 295 1060 406.5 1139.5 c 128,-1,22
 518 1219 518 1219 717 1219 c 2,23,-1
 891 1219 l 1,24,25
 891 1221 891 1221 892 1228 c 0,26,27
 895 1255 895 1255 895 1268 c 0,28,29
 895 1339 895 1339 851 1372 c 128,-1,30
 807 1405 807 1405 711 1405 c 0,31,32
 642 1405 642 1405 574 1388.5 c 128,-1,33
 506 1372 506 1372 434 1337 c 1,34,-1
 457 1464 l 1,35,36
 532 1492 532 1492 605 1506 c 128,-1,37
 678 1520 678 1520 743 1520 c 0,38,39
 891 1520 891 1520 963.5 1457.5 c 128,-1,40
 1036 1395 1036 1395 1036 1268 c 0,41,42
 1036 1245 1036 1245 1033.5 1219.5 c 128,-1,43
 1031 1194 1031 1194 1026 1165 c 1,11,-1
246 592 m 1,44,-1
 922 592 l 1,45,-1
 899 469 l 1,46,-1
 223 469 l 1,47,-1
 246 592 l 1,44,-1
EndSplineSet
EndChar
StartChar: guillemotleft
Encoding: 171 171 171
Width: 1233
Flags: W
LayerCount: 2
Fore
SplineSet
1106 1059 m 1,0,-1
 1063 848 l 1,1,-1
 713 584 l 1,2,-1
 963 317 l 1,3,-1
 928 141 l 1,4,-1
 541 559 l 1,5,-1
 557 641 l 1,6,-1
 1106 1059 l 1,0,-1
639 1059 m 1,7,-1
 596 848 l 1,8,-1
 246 584 l 1,9,-1
 496 317 l 1,10,-1
 461 141 l 1,11,-1
 74 559 l 1,12,-1
 90 641 l 1,13,-1
 639 1059 l 1,7,-1
EndSplineSet
EndChar
StartChar: logicalnot
Encoding: 172 172 172
Width: 1233
Flags: W
LayerCount: 2
Fore
SplineSet
88 862 m 1,0,-1
 1145 862 l 1,1,-1
 1145 371 l 1,2,-1
 977 371 l 1,3,-1
 977 690 l 1,4,-1
 88 690 l 1,5,-1
 88 862 l 1,0,-1
EndSplineSet
EndChar
StartChar: sfthyphen
Encoding: 173 173 173
Width: 1233
Flags: W
LayerCount: 2
Fore
SplineSet
336 643 m 1,0,-1
 858 643 l 1,1,-1
 825 479 l 1,2,-1
 303 479 l 1,3,-1
 336 643 l 1,0,-1
EndSplineSet
EndChar
StartChar: registered
Encoding: 174 174 174
Width: 1233
Flags: W
LayerCount: 2
Fore
SplineSet
600 1100 m 2,0,1
 747 1100 747 1100 819 1051 c 128,-1,2
 891 1002 891 1002 891 901 c 0,3,4
 891 830 891 830 847 783.5 c 128,-1,5
 803 737 803 737 723 723 c 1,6,7
 742 718 742 718 771 684.5 c 128,-1,8
 800 651 800 651 838 592 c 1,9,-1
 952 406 l 1,10,-1
 809 406 l 1,11,-1
 702 580 l 2,12,13
 653 660 653 660 622.5 681 c 128,-1,14
 592 702 592 702 547 702 c 2,15,-1
 492 702 l 1,16,-1
 492 406 l 1,17,-1
 362 406 l 1,18,-1
 362 1100 l 1,19,-1
 600 1100 l 2,0,1
594 1016 m 2,20,-1
 492 1016 l 1,21,-1
 492 784 l 1,22,-1
 594 784 l 2,23,24
 684 784 684 784 721 811 c 128,-1,25
 758 838 758 838 758 901 c 0,26,27
 758 963 758 963 721 989.5 c 128,-1,28
 684 1016 684 1016 594 1016 c 2,20,-1
616 1358 m 0,29,30
 743 1358 743 1358 852 1313 c 128,-1,31
 961 1268 961 1268 1051 1178 c 0,32,33
 1141 1087 1141 1087 1187 977 c 128,-1,34
 1233 867 1233 867 1233 741 c 0,35,36
 1233 616 1233 616 1187.5 507 c 128,-1,37
 1142 398 1142 398 1051 307 c 0,38,39
 960 216 960 216 851 170.5 c 128,-1,40
 742 125 742 125 616 125 c 0,41,42
 491 125 491 125 382 170.5 c 128,-1,43
 273 216 273 216 182 307 c 0,44,45
 91 398 91 398 45.5 507 c 128,-1,46
 0 616 0 616 0 741 c 0,47,48
 0 867 0 867 46 977 c 128,-1,49
 92 1087 92 1087 182 1178 c 0,50,51
 272 1268 272 1268 381 1313 c 128,-1,52
 490 1358 490 1358 616 1358 c 0,29,30
616 1255 m 0,53,54
 510 1255 510 1255 419.5 1218 c 128,-1,55
 329 1181 329 1181 254 1106 c 0,56,57
 179 1031 179 1031 140.5 939 c 128,-1,58
 102 847 102 847 102 741 c 0,59,60
 102 637 102 637 140.5 545.5 c 128,-1,61
 179 454 179 454 254 379 c 0,62,63
 330 303 330 303 420.5 265 c 128,-1,64
 511 227 511 227 616 227 c 0,65,66
 722 227 722 227 812.5 265 c 128,-1,67
 903 303 903 303 979 379 c 0,68,69
 1055 455 1055 455 1092.5 545.5 c 128,-1,70
 1130 636 1130 636 1130 741 c 0,71,72
 1130 847 1130 847 1092 939 c 128,-1,73
 1054 1031 1054 1031 979 1106 c 0,74,75
 904 1181 904 1181 813.5 1218 c 128,-1,76
 723 1255 723 1255 616 1255 c 0,53,54
EndSplineSet
EndChar
StartChar: macron
Encoding: 175 175 175
Width: 1233
Flags: W
LayerCount: 2
Fore
SplineSet
469 1526 m 1,0,-1
 1067 1526 l 1,1,-1
 1038 1378 l 1,2,-1
 440 1378 l 1,3,-1
 469 1526 l 1,0,-1
EndSplineSet
LCarets2: 1 0 
EndChar
StartChar: degree
Encoding: 176 176 176
Width: 1233
Flags: W
LayerCount: 2
Fore
SplineSet
616 1520 m 0,0,1
 681 1520 681 1520 739.5 1495.5 c 128,-1,2
 798 1471 798 1471 842 1425 c 0,3,4
 887 1380 887 1380 910.5 1323 c 128,-1,5
 934 1266 934 1266 934 1200 c 0,6,7
 934 1068 934 1068 841 976.5 c 128,-1,8
 748 885 748 885 614 885 c 0,9,10
 479 885 479 885 389 975 c 128,-1,11
 299 1065 299 1065 299 1200 c 0,12,13
 299 1334 299 1334 391 1427 c 128,-1,14
 483 1520 483 1520 616 1520 c 0,0,1
616 1391 m 0,15,16
 537 1391 537 1391 481.5 1335.5 c 128,-1,17
 426 1280 426 1280 426 1200 c 0,18,19
 426 1120 426 1120 480.5 1066 c 128,-1,20
 535 1012 535 1012 614 1012 c 0,21,22
 694 1012 694 1012 750.5 1067 c 128,-1,23
 807 1122 807 1122 807 1200 c 0,24,25
 807 1279 807 1279 751 1335 c 128,-1,26
 695 1391 695 1391 616 1391 c 0,15,16
EndSplineSet
EndChar
StartChar: plusminus
Encoding: 177 177 177
Width: 1233
Flags: W
LayerCount: 2
Fore
SplineSet
88 170 m 1,0,-1
 1145 170 l 1,1,-1
 1145 0 l 1,2,-1
 88 0 l 1,3,-1
 88 170 l 1,0,-1
700 1171 m 1,4,-1
 700 842 l 1,5,-1
 1145 842 l 1,6,-1
 1145 672 l 1,7,-1
 700 672 l 1,8,-1
 700 340 l 1,9,-1
 532 340 l 1,10,-1
 532 672 l 1,11,-1
 88 672 l 1,12,-1
 88 842 l 1,13,-1
 532 842 l 1,14,-1
 532 1171 l 1,15,-1
 700 1171 l 1,4,-1
EndSplineSet
EndChar
StartChar: twosuperior
Encoding: 178 178 178
Width: 1233
Flags: W
LayerCount: 2
Fore
SplineSet
492 782 m 1,0,-1
 887 782 l 1,1,-1
 864 668 l 1,2,-1
 307 668 l 1,3,-1
 328 778 l 1,4,-1
 498 918 l 1,5,-1
 531 945 l 2,6,7
 844 1198 844 1198 844 1303 c 0,8,9
 844 1354 844 1354 807 1384.5 c 128,-1,10
 770 1415 770 1415 707 1415 c 0,11,12
 656 1415 656 1415 595 1396.5 c 128,-1,13
 534 1378 534 1378 451 1337 c 1,14,-1
 475 1464 l 1,15,16
 559 1493 559 1493 621.5 1506.5 c 128,-1,17
 684 1520 684 1520 737 1520 c 0,18,19
 855 1520 855 1520 923 1464.5 c 128,-1,20
 991 1409 991 1409 991 1315 c 0,21,22
 991 1176 991 1176 682 933 c 2,23,-1
 662 918 l 1,24,-1
 492 782 l 1,0,-1
EndSplineSet
EndChar
StartChar: threesuperior
Encoding: 179 179 179
Width: 1233
Flags: W
LayerCount: 2
Fore
SplineSet
772 1116 m 1,0,1
 844 1104 844 1104 883 1058.5 c 128,-1,2
 922 1013 922 1013 922 942 c 0,3,4
 922 811 922 811 818 732 c 128,-1,5
 714 653 714 653 539 653 c 0,6,7
 473 653 473 653 409.5 663.5 c 128,-1,8
 346 674 346 674 287 694 c 1,9,-1
 311 815 l 1,10,11
 378 786 378 786 430 773 c 128,-1,12
 482 760 482 760 532 760 c 0,13,14
 644 760 644 760 709 806 c 128,-1,15
 774 852 774 852 774 930 c 0,16,17
 774 997 774 997 731.5 1029 c 128,-1,18
 689 1061 689 1061 600 1061 c 2,19,-1
 528 1061 l 1,20,-1
 549 1167 l 1,21,-1
 621 1167 l 2,22,23
 718 1167 718 1167 777 1207 c 128,-1,24
 836 1247 836 1247 836 1311 c 0,25,26
 836 1362 836 1362 793 1387.5 c 128,-1,27
 750 1413 750 1413 664 1413 c 0,28,29
 622 1413 622 1413 571.5 1402.5 c 128,-1,30
 521 1392 521 1392 461 1370 c 1,31,-1
 483 1485 l 1,32,33
 554 1502 554 1502 615 1511 c 128,-1,34
 676 1520 676 1520 731 1520 c 0,35,36
 852 1520 852 1520 917.5 1470 c 128,-1,37
 983 1420 983 1420 983 1329 c 0,38,39
 983 1250 983 1250 926 1192 c 128,-1,40
 869 1134 869 1134 772 1116 c 1,0,1
EndSplineSet
EndChar
StartChar: acute
Encoding: 180 180 180
Width: 1233
Flags: W
LayerCount: 2
Fore
SplineSet
907 1638 m 1,0,-1
 1126 1638 l 1,1,-1
 731 1262 l 1,2,-1
 575 1262 l 1,3,-1
 907 1638 l 1,0,-1
EndSplineSet
LCarets2: 1 0 
EndChar
StartChar: mu
Encoding: 181 181 181
Width: 1233
Flags: W
LayerCount: 2
Fore
SplineSet
-39 -426 m 1,0,-1
 262 1120 l 1,1,-1
 449 1120 l 1,2,-1
 313 424 l 2,3,4
 307 393 307 393 304 366 c 128,-1,5
 301 339 301 339 301 319 c 0,6,7
 301 228 301 228 355.5 179.5 c 128,-1,8
 410 131 410 131 512 131 c 0,9,10
 649 131 649 131 731 214 c 128,-1,11
 813 297 813 297 846 467 c 2,12,-1
 973 1120 l 1,13,-1
 1159 1120 l 1,14,-1
 991 258 l 1,15,16
 988 240 988 240 986.5 227 c 128,-1,17
 985 214 985 214 985 203 c 0,18,19
 985 173 985 173 997.5 157 c 128,-1,20
 1010 141 1010 141 1034 141 c 0,21,22
 1043 141 1043 141 1059 146 c 128,-1,23
 1075 151 1075 151 1106 164 c 1,24,-1
 1077 16 l 1,25,26
 1037 -6 1037 -6 1000 -17.5 c 128,-1,27
 963 -29 963 -29 930 -29 c 0,28,29
 863 -29 863 -29 823.5 13.5 c 128,-1,30
 784 56 784 56 784 129 c 1,31,32
 731 47 731 47 661.5 9 c 128,-1,33
 592 -29 592 -29 494 -29 c 0,34,35
 402 -29 402 -29 340 12.5 c 128,-1,36
 278 54 278 54 246 137 c 1,37,-1
 137 -426 l 1,38,-1
 -39 -426 l 1,0,-1
EndSplineSet
EndChar
StartChar: paragraph
Encoding: 182 182 182
Width: 1233
Flags: W
LayerCount: 2
Fore
SplineSet
735 1493 m 2,0,-1
 1141 1493 l 1,1,-1
 813 -197 l 1,2,-1
 674 -197 l 1,3,-1
 977 1370 l 1,4,-1
 786 1370 l 1,5,-1
 483 -197 l 1,6,-1
 342 -197 l 1,7,-1
 506 649 l 1,8,9
 329 653 329 653 227 748 c 128,-1,10
 125 843 125 843 125 1004 c 0,11,12
 125 1213 125 1213 298 1353 c 128,-1,13
 471 1493 471 1493 735 1493 c 2,0,-1
EndSplineSet
EndChar
StartChar: periodcentered
Encoding: 183 183 183
Width: 1233
Flags: W
LayerCount: 2
Fore
SplineSet
512 864 m 1,0,-1
 766 864 l 1,1,-1
 707 559 l 1,2,-1
 455 559 l 1,3,-1
 512 864 l 1,0,-1
EndSplineSet
EndChar
StartChar: onesuperior
Encoding: 185 185 185
Width: 1233
Flags: W
LayerCount: 2
Fore
SplineSet
369 778 m 1,0,-1
 575 778 l 1,1,-1
 692 1389 l 1,2,-1
 461 1348 l 1,3,-1
 483 1464 l 1,4,-1
 721 1503 l 1,5,-1
 858 1503 l 1,6,-1
 717 778 l 1,7,-1
 922 778 l 1,8,-1
 901 668 l 1,9,-1
 348 668 l 1,10,-1
 369 778 l 1,0,-1
EndSplineSet
EndChar
StartChar: ordmasculine
Encoding: 186 186 186
Width: 1233
Flags: W
LayerCount: 2
Fore
SplineSet
633 698 m 0,0,1
 481 698 481 698 394 788.5 c 128,-1,2
 307 879 307 879 307 1036 c 0,3,4
 307 1123 307 1123 339.5 1212 c 128,-1,5
 372 1301 372 1301 428 1368 c 0,6,7
 489 1442 489 1442 570 1481 c 128,-1,8
 651 1520 651 1520 741 1520 c 0,9,10
 892 1520 892 1520 978.5 1429 c 128,-1,11
 1065 1338 1065 1338 1065 1180 c 0,12,13
 1065 1092 1065 1092 1033 1004 c 128,-1,14
 1001 916 1001 916 946 850 c 0,15,16
 885 776 885 776 804.5 737 c 128,-1,17
 724 698 724 698 633 698 c 0,0,1
463 1038 m 0,18,19
 463 933 463 933 512.5 873 c 128,-1,20
 562 813 562 813 649 813 c 0,21,22
 755 813 755 813 833 921 c 128,-1,23
 911 1029 911 1029 911 1180 c 0,24,25
 911 1285 911 1285 861.5 1345 c 128,-1,26
 812 1405 812 1405 725 1405 c 0,27,28
 618 1405 618 1405 540.5 1297.5 c 128,-1,29
 463 1190 463 1190 463 1038 c 0,18,19
246 592 m 1,30,-1
 922 592 l 1,31,-1
 899 469 l 1,32,-1
 223 469 l 1,33,-1
 246 592 l 1,30,-1
EndSplineSet
EndChar
StartChar: guillemotright
Encoding: 187 187 187
Width: 1233
Flags: W
LayerCount: 2
Fore
SplineSet
82 141 m 1,0,-1
 125 352 l 1,1,-1
 475 614 l 1,2,-1
 225 883 l 1,3,-1
 260 1059 l 1,4,-1
 647 641 l 1,5,-1
 633 559 l 1,6,-1
 82 141 l 1,0,-1
549 141 m 1,7,-1
 592 352 l 1,8,-1
 942 614 l 1,9,-1
 692 883 l 1,10,-1
 727 1059 l 1,11,-1
 1114 641 l 1,12,-1
 1100 559 l 1,13,-1
 549 141 l 1,7,-1
EndSplineSet
EndChar
StartChar: questiondown
Encoding: 191 191 191
Width: 1233
Flags: W
LayerCount: 2
Fore
SplineSet
655 719 m 1,0,-1
 846 719 l 1,1,-1
 817 565 l 1,2,3
 799 472 799 472 759 406.5 c 128,-1,4
 719 341 719 341 608 248 c 2,5,-1
 502 159 l 2,6,7
 417 87 417 87 381.5 31.5 c 128,-1,8
 346 -24 346 -24 346 -80 c 0,9,10
 346 -154 346 -154 401.5 -195 c 128,-1,11
 457 -236 457 -236 557 -236 c 0,12,13
 636 -236 636 -236 734 -200.5 c 128,-1,14
 832 -165 832 -165 938 -99 c 1,15,-1
 901 -287 l 1,16,17
 793 -344 793 -344 691.5 -372 c 128,-1,18
 590 -400 590 -400 489 -400 c 0,19,20
 337 -400 337 -400 240 -318.5 c 128,-1,21
 143 -237 143 -237 143 -111 c 0,22,23
 143 -17 143 -17 192 63.5 c 128,-1,24
 241 144 241 144 371 252 c 2,25,-1
 475 338 l 2,26,27
 559 408 559 408 589.5 459 c 128,-1,28
 620 510 620 510 635 596 c 1,29,-1
 655 719 l 1,0,-1
881 866 m 1,30,-1
 678 866 l 1,31,-1
 727 1120 l 1,32,-1
 930 1120 l 1,33,-1
 881 866 l 1,30,-1
EndSplineSet
Substitution2: "'case' Case-Sensitive Forms" questiondown.case
EndChar
StartChar: Aring
Encoding: 197 197 197
Width: 1233
Flags: W
LayerCount: 2
Fore
SplineSet
924 1626 m 0,0,1
 924 1689 924 1689 879.5 1733.5 c 128,-1,2
 835 1778 835 1778 772 1778 c 0,3,4
 708 1778 708 1778 664.5 1734.5 c 128,-1,5
 621 1691 621 1691 621 1626 c 0,6,7
 621 1563 621 1563 664.5 1519 c 128,-1,8
 708 1475 708 1475 772 1475 c 0,9,10
 835 1475 835 1475 879.5 1519 c 128,-1,11
 924 1563 924 1563 924 1626 c 0,0,1
735 1325 m 1,12,-1
 371 551 l 1,13,-1
 801 551 l 1,14,-1
 735 1325 l 1,12,-1
600 1415 m 1,15,16
 549 1450 549 1450 523.5 1503.5 c 128,-1,17
 498 1557 498 1557 498 1626 c 0,18,19
 498 1740 498 1740 577.5 1820.5 c 128,-1,20
 657 1901 657 1901 772 1901 c 0,21,22
 886 1901 886 1901 966.5 1820.5 c 128,-1,23
 1047 1740 1047 1740 1047 1626 c 0,24,25
 1047 1545 1047 1545 1007 1481.5 c 128,-1,26
 967 1418 967 1418 897 1386 c 1,27,-1
 1051 0 l 1,28,-1
 850 0 l 1,29,-1
 815 389 l 1,30,-1
 295 389 l 1,31,-1
 111 0 l 1,32,-1
 -106 0 l 1,33,-1
 600 1415 l 1,15,16
EndSplineSet
EndChar
StartChar: AE
Encoding: 198 198 198
Width: 1233
Flags: W
LayerCount: 2
Fore
SplineSet
1307 1493 m 1,0,-1
 1274 1323 l 1,1,-1
 936 1323 l 1,2,-1
 850 881 l 1,3,-1
 1157 881 l 1,4,-1
 1124 711 l 1,5,-1
 817 711 l 1,6,-1
 711 170 l 1,7,-1
 1067 170 l 1,8,-1
 1034 0 l 1,9,-1
 492 0 l 1,10,-1
 567 383 l 1,11,-1
 215 383 l 1,12,-1
 39 0 l 1,13,-1
 -145 0 l 1,14,-1
 555 1493 l 1,15,-1
 1307 1493 l 1,0,-1
647 1323 m 1,16,-1
 291 551 l 1,17,-1
 600 551 l 1,18,-1
 750 1323 l 1,19,-1
 647 1323 l 1,16,-1
EndSplineSet
EndChar
StartChar: Eth
Encoding: 208 208 208
Width: 1233
Flags: W
LayerCount: 2
Fore
SplineSet
324 166 m 2,0,1
 509 166 509 166 621 228.5 c 128,-1,2
 733 291 733 291 801 432 c 0,3,4
 855 547 855 547 889.5 706.5 c 128,-1,5
 924 866 924 866 924 999 c 0,6,7
 924 1175 924 1175 842 1251 c 128,-1,8
 760 1327 760 1327 567 1327 c 2,9,-1
 453 1327 l 1,10,-1
 362 858 l 1,11,-1
 629 858 l 1,12,-1
 600 709 l 1,13,-1
 334 709 l 1,14,-1
 227 166 l 1,15,-1
 324 166 l 2,0,1
586 1493 m 2,16,17
 859 1493 859 1493 994.5 1369 c 128,-1,18
 1130 1245 1130 1245 1130 993 c 0,19,20
 1130 831 1130 831 1088 659 c 128,-1,21
 1046 487 1046 487 975 354 c 0,22,23
 871 163 871 163 715.5 81.5 c 128,-1,24
 560 0 560 0 295 0 c 2,25,-1
 -8 0 l 1,26,-1
 129 709 l 1,27,-1
 2 709 l 1,28,-1
 31 858 l 1,29,-1
 160 858 l 1,30,-1
 283 1493 l 1,31,-1
 586 1493 l 2,16,17
EndSplineSet
EndChar
StartChar: multiply
Encoding: 215 215 215
Width: 1233
Flags: W
LayerCount: 2
Fore
SplineSet
150 293 m 1,0,-1
 500 641 l 1,1,-1
 150 991 l 1,2,-1
 266 1108 l 1,3,-1
 616 758 l 1,4,-1
 967 1108 l 1,5,-1
 1083 991 l 1,6,-1
 733 641 l 1,7,-1
 1081 293 l 1,8,-1
 965 174 l 1,9,-1
 616 524 l 1,10,-1
 268 174 l 1,11,-1
 150 293 l 1,0,-1
EndSplineSet
EndChar
StartChar: Oslash
Encoding: 216 216 216
Width: 1233
Flags: W
LayerCount: 2
Fore
SplineSet
322 229 m 1,0,1
 342 185 342 185 389 160 c 128,-1,2
 436 135 436 135 502 135 c 0,3,4
 614 135 614 135 694.5 217 c 128,-1,5
 775 299 775 299 836 473 c 0,6,7
 886 618 886 618 913 765.5 c 128,-1,8
 940 913 940 913 940 1036 c 0,9,10
 940 1064 940 1064 939.5 1081.5 c 128,-1,11
 939 1099 939 1099 938 1116 c 1,12,-1
 322 229 l 1,0,1
291 389 m 1,13,-1
 905 1274 l 1,14,15
 876 1313 876 1313 830.5 1334.5 c 128,-1,16
 785 1356 785 1356 729 1356 c 0,17,18
 616 1356 616 1356 535.5 1274 c 128,-1,19
 455 1192 455 1192 395 1018 c 0,20,21
 345 870 345 870 316 717.5 c 128,-1,22
 287 565 287 565 287 457 c 0,23,24
 287 447 287 447 289 419 c 0,25,26
 290 401 290 401 291 389 c 1,13,-1
1094 1337 m 1,27,28
 1123 1277 1123 1277 1137 1205 c 128,-1,29
 1151 1133 1151 1133 1151 1042 c 0,30,31
 1151 846 1151 846 1098.5 635 c 128,-1,32
 1046 424 1046 424 963 276 c 0,33,34
 875 122 875 122 755 46.5 c 128,-1,35
 635 -29 635 -29 477 -29 c 0,36,37
 396 -29 396 -29 328.5 -6 c 128,-1,38
 261 17 261 17 207 63 c 1,39,-1
 113 -70 l 1,40,-1
 14 -6 l 1,41,-1
 133 164 l 1,42,43
 106 222 106 222 93 292.5 c 128,-1,44
 80 363 80 363 80 449 c 0,45,46
 80 647 80 647 132 857.5 c 128,-1,47
 184 1068 184 1068 268 1217 c 0,48,49
 356 1370 356 1370 475.5 1445 c 128,-1,50
 595 1520 595 1520 754 1520 c 0,51,52
 831 1520 831 1520 896.5 1498.5 c 128,-1,53
 962 1477 962 1477 1016 1434 c 1,54,-1
 1100 1559 l 1,55,-1
 1200 1495 l 1,56,-1
 1094 1337 l 1,27,28
EndSplineSet
EndChar
StartChar: Thorn
Encoding: 222 222 222
Width: 1233
Flags: W
LayerCount: 2
Fore
SplineSet
326 365 m 1,0,-1
 254 0 l 1,1,-1
 51 0 l 1,2,-1
 342 1493 l 1,3,-1
 545 1491 l 1,4,-1
 494 1217 l 1,5,-1
 735 1217 l 2,6,7
 942 1217 942 1217 1050.5 1129 c 128,-1,8
 1159 1041 1159 1041 1159 874 c 0,9,10
 1159 638 1159 638 998 501.5 c 128,-1,11
 837 365 837 365 557 365 c 2,12,-1
 326 365 l 1,0,-1
461 1059 m 1,13,-1
 356 522 l 1,14,-1
 590 522 l 2,15,16
 754 522 754 522 853 614 c 128,-1,17
 952 706 952 706 952 858 c 0,18,19
 952 961 952 961 890 1010 c 128,-1,20
 828 1059 828 1059 698 1059 c 2,21,-1
 461 1059 l 1,13,-1
EndSplineSet
EndChar
StartChar: germandbls
Encoding: 223 223 223
Width: 1233
Flags: W
LayerCount: 2
Fore
SplineSet
276 1137 m 1,0,1
 318 1349 318 1349 437.5 1452.5 c 128,-1,2
 557 1556 557 1556 760 1556 c 0,3,4
 936 1556 936 1556 1031 1476 c 128,-1,5
 1126 1396 1126 1396 1126 1247 c 0,6,7
 1126 1214 1126 1214 1121.5 1179 c 128,-1,8
 1117 1144 1117 1144 1108 1108 c 1,9,10
 934 1087 934 1087 833.5 1019.5 c 128,-1,11
 733 952 733 952 733 856 c 0,12,13
 733 818 733 818 753.5 787.5 c 128,-1,14
 774 757 774 757 834 713 c 2,15,-1
 885 674 l 2,16,17
 1000 589 1000 589 1040.5 522.5 c 128,-1,18
 1081 456 1081 456 1081 369 c 0,19,20
 1081 186 1081 186 951.5 78.5 c 128,-1,21
 822 -29 822 -29 600 -29 c 0,22,23
 529 -29 529 -29 462 -16.5 c 128,-1,24
 395 -4 395 -4 330 20 c 1,25,-1
 360 184 l 1,26,27
 419 152 419 152 485.5 135.5 c 128,-1,28
 552 119 552 119 623 119 c 0,29,30
 754 119 754 119 829.5 181.5 c 128,-1,31
 905 244 905 244 905 352 c 0,32,33
 905 404 905 404 878 445 c 128,-1,34
 851 486 851 486 766 549 c 1,35,-1
 705 596 l 2,36,37
 615 664 615 664 587 710 c 128,-1,38
 559 756 559 756 559 819 c 0,39,40
 559 950 559 950 660.5 1046 c 128,-1,41
 762 1142 762 1142 940 1178 c 1,42,43
 943 1193 943 1193 944.5 1207.5 c 128,-1,44
 946 1222 946 1222 946 1237 c 0,45,46
 946 1316 946 1316 894 1360.5 c 128,-1,47
 842 1405 842 1405 750 1405 c 0,48,49
 629 1405 629 1405 558 1337.5 c 128,-1,50
 487 1270 487 1270 461 1133 c 1,51,-1
 242 0 l 1,52,-1
 55 0 l 1,53,-1
 276 1137 l 1,0,1
EndSplineSet
EndChar
StartChar: ae
Encoding: 230 230 230
Width: 1233
Flags: W
LayerCount: 2
Fore
SplineSet
487 442 m 1,0,-1
 502 514 l 1,1,-1
 453 514 l 2,2,3
 328 514 328 514 275.5 498.5 c 128,-1,4
 223 483 223 483 188 444 c 0,5,6
 158 411 158 411 140.5 362 c 128,-1,7
 123 313 123 313 123 262 c 0,8,9
 123 202 123 202 162 162.5 c 128,-1,10
 201 123 201 123 260 123 c 0,11,12
 350 123 350 123 400.5 190 c 128,-1,13
 451 257 451 257 487 442 c 1,0,-1
1024 657 m 1,14,-1
 1040 731 l 2,15,16
 1046 758 1046 758 1048.5 786 c 128,-1,17
 1051 814 1051 814 1051 846 c 0,18,19
 1051 916 1051 916 1017 955.5 c 128,-1,20
 983 995 983 995 924 995 c 0,21,22
 841 995 841 995 788 931.5 c 128,-1,23
 735 868 735 868 711 739 c 1,24,-1
 694 657 l 1,25,-1
 1024 657 l 1,14,-1
1163 514 m 1,26,-1
 668 514 l 1,27,28
 649 423 649 423 641 368 c 128,-1,29
 633 313 633 313 633 285 c 0,30,31
 633 207 633 207 681.5 163 c 128,-1,32
 730 119 730 119 815 119 c 0,33,34
 885 119 885 119 956.5 148 c 128,-1,35
 1028 177 1028 177 1081 227 c 1,36,-1
 1047 55 l 1,37,38
 988 14 988 14 922 -7.5 c 128,-1,39
 856 -29 856 -29 784 -29 c 0,40,41
 678 -29 678 -29 608.5 12.5 c 128,-1,42
 539 54 539 54 514 131 c 1,43,44
 467 51 467 51 396.5 11 c 128,-1,45
 326 -29 326 -29 233 -29 c 0,46,47
 105 -29 105 -29 29 44 c 128,-1,48
 -47 117 -47 117 -47 240 c 0,49,50
 -47 440 -47 440 73.5 548.5 c 128,-1,51
 194 657 194 657 418 657 c 2,52,-1
 535 657 l 1,53,-1
 553 745 l 2,54,55
 557 765 557 765 559 786.5 c 128,-1,56
 561 808 561 808 561 834 c 0,57,58
 561 910 561 910 518.5 952.5 c 128,-1,59
 476 995 476 995 399 995 c 0,60,61
 350 995 350 995 283.5 973.5 c 128,-1,62
 217 952 217 952 141 911 c 1,63,-1
 176 1079 l 1,64,65
 255 1113 255 1113 324 1130 c 128,-1,66
 393 1147 393 1147 449 1147 c 0,67,68
 531 1147 531 1147 590 1114 c 128,-1,69
 649 1081 649 1081 680 1018 c 1,70,71
 730 1080 730 1080 800 1113.5 c 128,-1,72
 870 1147 870 1147 950 1147 c 0,73,74
 1071 1147 1071 1147 1142.5 1070 c 128,-1,75
 1214 993 1214 993 1214 862 c 0,76,77
 1214 823 1214 823 1205.5 759.5 c 128,-1,78
 1197 696 1197 696 1180 604 c 1,79,-1
 1163 514 l 1,26,-1
EndSplineSet
EndChar
StartChar: eth
Encoding: 240 240 240
Width: 1233
Flags: W
LayerCount: 2
Fore
SplineSet
870 1327 m 1,0,1
 993 1156 993 1156 1049.5 1007 c 128,-1,2
 1106 858 1106 858 1106 707 c 0,3,4
 1106 568 1106 568 1068.5 439.5 c 128,-1,5
 1031 311 1031 311 961 207 c 0,6,7
 884 91 884 91 770.5 31 c 128,-1,8
 657 -29 657 -29 516 -29 c 0,9,10
 323 -29 323 -29 221 78.5 c 128,-1,11
 119 186 119 186 119 389 c 0,12,13
 119 515 119 515 157 637 c 128,-1,14
 195 759 195 759 266 864 c 0,15,16
 342 975 342 975 457.5 1036.5 c 128,-1,17
 573 1098 573 1098 707 1098 c 0,18,19
 724 1098 724 1098 772 1093 c 0,20,21
 793 1091 793 1091 805 1090 c 1,22,23
 786 1128 786 1128 759.5 1171 c 128,-1,24
 733 1214 733 1214 692 1272 c 1,25,-1
 395 1178 l 1,26,-1
 365 1270 l 1,27,-1
 639 1356 l 1,28,-1
 498 1556 l 1,29,-1
 711 1556 l 1,30,-1
 815 1411 l 1,31,-1
 1102 1499 l 1,32,-1
 1130 1407 l 1,33,-1
 870 1327 l 1,0,1
874 907 m 1,34,35
 837 926 837 926 797 935 c 128,-1,36
 757 944 757 944 713 944 c 0,37,38
 534 944 534 944 423.5 788 c 128,-1,39
 313 632 313 632 313 379 c 0,40,41
 313 259 313 259 370.5 193 c 128,-1,42
 428 127 428 127 532 127 c 0,43,44
 699 127 699 127 805 287.5 c 128,-1,45
 911 448 911 448 911 705 c 0,46,47
 911 769 911 769 902 819.5 c 128,-1,48
 893 870 893 870 874 907 c 1,34,35
EndSplineSet
EndChar
StartChar: divide
Encoding: 247 247 247
Width: 1233
Flags: W
LayerCount: 2
Fore
SplineSet
494 395 m 1,0,-1
 739 395 l 1,1,-1
 739 150 l 1,2,-1
 494 150 l 1,3,-1
 494 395 l 1,0,-1
494 1135 m 1,4,-1
 739 1135 l 1,5,-1
 739 889 l 1,6,-1
 494 889 l 1,7,-1
 494 1135 l 1,4,-1
88 727 m 1,8,-1
 1145 727 l 1,9,-1
 1145 557 l 1,10,-1
 88 557 l 1,11,-1
 88 727 l 1,8,-1
EndSplineSet
EndChar
StartChar: oslash
Encoding: 248 248 248
Width: 1233
Flags: W
LayerCount: 2
Fore
SplineSet
911 825 m 1,0,-1
 377 186 l 1,1,2
 407 156 407 156 446 141.5 c 128,-1,3
 485 127 485 127 537 127 c 0,4,5
 700 127 700 127 810 298.5 c 128,-1,6
 920 470 920 470 920 733 c 0,7,8
 920 759 920 759 918 782 c 128,-1,9
 916 805 916 805 911 825 c 1,0,-1
176 133 m 1,10,11
 147 181 147 181 133 245 c 128,-1,12
 119 309 119 309 119 389 c 0,13,14
 119 531 119 531 159 666 c 128,-1,15
 199 801 199 801 274 911 c 0,16,17
 355 1030 355 1030 466.5 1088.5 c 128,-1,18
 578 1147 578 1147 725 1147 c 0,19,20
 803 1147 803 1147 863 1129 c 128,-1,21
 923 1111 923 1111 969 1075 c 1,22,-1
 1081 1212 l 1,23,-1
 1174 1135 l 1,24,-1
 1051 989 l 1,25,26
 1083 939 1083 939 1098.5 875 c 128,-1,27
 1114 811 1114 811 1114 727 c 0,28,29
 1114 589 1114 589 1073 452.5 c 128,-1,30
 1032 316 1032 316 958 207 c 0,31,32
 879 89 879 89 766 30 c 128,-1,33
 653 -29 653 -29 506 -29 c 0,34,35
 432 -29 432 -29 370.5 -10.5 c 128,-1,36
 309 8 309 8 258 45 c 1,37,-1
 139 -96 l 1,38,-1
 47 -20 l 1,39,-1
 176 133 l 1,10,11
852 938 m 1,40,41
 821 966 821 966 784.5 978.5 c 128,-1,42
 748 991 748 991 696 991 c 0,43,44
 532 991 532 991 422.5 819 c 128,-1,45
 313 647 313 647 313 379 c 0,46,47
 313 359 313 359 314.5 339.5 c 128,-1,48
 316 320 316 320 319 302 c 1,49,-1
 852 938 l 1,40,41
EndSplineSet
EndChar
StartChar: thorn
Encoding: 254 254 254
Width: 1233
Flags: W
LayerCount: 2
Fore
SplineSet
293 141 m 1,0,-1
 182 -426 l 1,1,-1
 -2 -426 l 1,2,-1
 385 1567 l 1,3,-1
 569 1567 l 1,4,-1
 455 977 l 1,5,6
 516 1059 516 1059 602 1103 c 128,-1,7
 688 1147 688 1147 788 1147 c 0,8,9
 950 1147 950 1147 1039 1043 c 128,-1,10
 1128 939 1128 939 1128 752 c 0,11,12
 1128 609 1128 609 1088.5 465 c 128,-1,13
 1049 321 1049 321 979 211 c 0,14,15
 904 93 904 93 802 32 c 128,-1,16
 700 -29 700 -29 578 -29 c 0,17,18
 478 -29 478 -29 407.5 13 c 128,-1,19
 337 55 337 55 293 141 c 1,0,-1
569 127 m 0,20,21
 650 127 650 127 717 171.5 c 128,-1,22
 784 216 784 216 829 301 c 0,23,24
 878 393 878 393 906 508.5 c 128,-1,25
 934 624 934 624 934 737 c 0,26,27
 934 864 934 864 882.5 927.5 c 128,-1,28
 831 991 831 991 729 991 c 0,29,30
 644 991 644 991 575.5 946 c 128,-1,31
 507 901 507 901 459 813 c 0,32,33
 410 725 410 725 382 611 c 128,-1,34
 354 497 354 497 354 383 c 0,35,36
 354 260 354 260 410 193.5 c 128,-1,37
 466 127 466 127 569 127 c 0,20,21
EndSplineSet
EndChar
StartChar: dcroat
Encoding: 273 273 273
Width: 1233
Flags: W
LayerCount: 2
Fore
SplineSet
686 991 m 0,0,1
 598 991 598 991 531 947.5 c 128,-1,2
 464 904 464 904 418 817 c 0,3,4
 369 727 369 727 342 612.5 c 128,-1,5
 315 498 315 498 315 383 c 0,6,7
 315 255 315 255 366 191 c 128,-1,8
 417 127 417 127 518 127 c 0,9,10
 603 127 603 127 671.5 172 c 128,-1,11
 740 217 740 217 788 305 c 0,12,13
 837 392 837 392 865 507.5 c 128,-1,14
 893 623 893 623 893 737 c 0,15,16
 893 857 893 857 838.5 924 c 128,-1,17
 784 991 784 991 686 991 c 0,0,1
954 977 m 1,18,-1
 1016 1286 l 1,19,-1
 684 1286 l 1,20,-1
 709 1407 l 1,21,-1
 1038 1407 l 1,22,-1
 1069 1556 l 1,23,-1
 1253 1556 l 1,24,-1
 1223 1407 l 1,25,-1
 1415 1407 l 1,26,-1
 1393 1286 l 1,27,-1
 1200 1286 l 1,28,-1
 950 0 l 1,29,-1
 766 0 l 1,30,-1
 793 141 l 1,31,32
 728 57 728 57 645.5 14 c 128,-1,33
 563 -29 563 -29 463 -29 c 0,34,35
 300 -29 300 -29 209.5 76 c 128,-1,36
 119 181 119 181 119 369 c 0,37,38
 119 512 119 512 159 656.5 c 128,-1,39
 199 801 199 801 268 909 c 0,40,41
 343 1027 343 1027 444.5 1087 c 128,-1,42
 546 1147 546 1147 670 1147 c 0,43,44
 767 1147 767 1147 840 1103.5 c 128,-1,45
 913 1060 913 1060 954 977 c 1,18,-1
EndSplineSet
EndChar
StartChar: Hbar
Encoding: 294 294 294
Width: 1233
Flags: W
LayerCount: 2
Fore
SplineSet
282 1493 m 1,0,-1
 484 1493 l 1,1,-1
 441 1269 l 1,0,0
 995 1269 l 1,0,0
 1038 1493 l 1,4,-1
 1240 1493 l 1,5,-1
 1197 1269 l 1,0,0
 1332 1269 l 1,1,-1
 1300 1105 l 1,2,-1
 1165 1105 l 1,0,0
 950 0 l 1,6,-1
 748 0 l 1,7,-1
 886 711 l 1,8,-1
 332 711 l 1,9,-1
 194 0 l 1,10,-1
 -8 0 l 1,11,-1
 207 1105 l 1,0,0
 73 1105 l 1,3,-1
 105 1269 l 1,0,-1
 239 1269 l 1,0,0
 282 1493 l 1,0,-1
409 1105 m 1,0,0
 365 881 l 1,2,-1
 919 881 l 1,3,-1
 963 1105 l 1,0,0
 409 1105 l 1,0,0
EndSplineSet
EndChar
StartChar: hbar
Encoding: 295 295 295
Width: 1233
Flags: W
LayerCount: 2
Fore
SplineSet
1034.5 694 m 2,0,-1
 900 0 l 1,1,-1
 715 0 l 1,2,-1
 850 695 l 17,3,4
 862 759.5 862 759.5 862 809 c 0,0,0
 862 875 862 875 839.5 916 c 128,-1,5
 800 987 800 987 687.5 987 c 0,6,7
 562.5 987 562.5 987 471.5 895.5 c 128,-1,8
 384 808 384 808 351 633 c 9,9,-1
 228 0 l 1,10,-1
 44 0 l 1,11,-1
 291 1270 l 1,0,0
 166 1270 l 1,3,-1
 198 1434 l 1,0,-1
 323 1434 l 1,0,0
 346 1556 l 1,12,-1
 530 1556 l 1,13,-1
 507 1434 l 1,0,0
 860 1434 l 1,1,-1
 828 1270 l 1,2,-1
 475 1270 l 1,0,0
 413 952 l 1,14,15
 480 1048 480 1048 574 1097.5 c 128,-1,16
 667.5 1147 667.5 1147 782.5 1147 c 0,17,18
 953.5 1147 953.5 1147 1016.5 1034.5 c 128,-1,19
 1053 968.5 1053 968.5 1053 863 c 0,0,0
 1053 788.5 1053 788.5 1034.5 694 c 2,0,-1
EndSplineSet
EndChar
StartChar: dotlessi
Encoding: 305 305 305
Width: 1233
Flags: W
LayerCount: 2
Fore
SplineSet
358 1120 m 1,0,-1
 829 1120 l 1,1,-1
 639 143 l 1,2,-1
 1004 143 l 1,3,-1
 975 0 l 1,4,-1
 61 0 l 1,5,-1
 90 143 l 1,6,-1
 455 143 l 1,7,-1
 616 977 l 1,8,-1
 330 977 l 1,9,-1
 358 1120 l 1,0,-1
EndSplineSet
EndChar
StartChar: IJ
Encoding: 306 306 306
Width: 1233
Flags: W
LayerCount: 2
Fore
SplineSet
630.554 62 m 1,0,-1
 672.49 298 l 1,1,2
 715.393 219 715.393 219 773.361 177.5 c 128,-1,3
 831.33 136 831.33 136 898.69 136 c 0,4,5
 991.562 136 991.562 136 1041.53 209 c 128,-1,6
 1091.51 282 1091.51 282 1128.58 488 c 1,7,-1
 1280.14 1324 l 1,8,-1
 1030.96 1324 l 1,9,-1
 1061.55 1494 l 1,10,-1
 1443.49 1494 l 1,11,-1
 1261.35 488 l 1,12,13
 1209.41 199 1209.41 199 1124.92 85.5 c 128,-1,14
 1040.42 -28 1040.42 -28 884.77 -28 c 0,15,16
 821.33 -28 821.33 -28 757.148 -5 c 128,-1,17
 692.968 18 692.968 18 630.554 62 c 1,0,-1
283.416 1493 m 1,0,-1
 862.424 1493 l 1,1,-1
 830.396 1323 l 1,2,-1
 611.349 1323 l 1,3,-1
 394.69 170 l 1,4,-1
 613.737 170 l 1,5,-1
 581.708 0 l 1,6,-1
 2.7002 0 l 1,7,-1
 34.7285 170 l 1,8,-1
 253.078 170 l 1,9,-1
 470.434 1323 l 1,10,-1
 251.387 1323 l 1,11,-1
 283.416 1493 l 1,0,-1
EndSplineSet
EndChar
StartChar: ij
Encoding: 307 307 307
Width: 1233
Flags: W
LayerCount: 2
Fore
SplineSet
301 1121 m 1,0,-1
 772 1121 l 1,1,-1
 582 144 l 1,2,-1
 947 144 l 1,3,-1
 918 1 l 1,4,-1
 4 1 l 1,5,-1
 33 144 l 1,6,-1
 398 144 l 1,7,-1
 559 978 l 1,8,-1
 273 978 l 1,9,-1
 301 1121 l 1,0,-1
672 1557 m 1,10,-1
 856 1557 l 1,11,-1
 811 1324 l 1,12,-1
 627 1324 l 1,13,-1
 672 1557 l 1,10,-1
1020 -23 m 1,0,-1
 1212 974 l 1,1,-1
 895 974 l 1,2,-1
 923 1117 l 1,3,-1
 1425 1117 l 1,4,-1
 1204 -23 l 1,5,6
 1163 -236 1163 -236 1062 -332.5 c 128,-1,7
 961 -429 961 -429 780 -429 c 2,8,-1
 526 -429 l 1,9,-1
 557 -273 l 1,10,-1
 790 -273 l 2,11,12
 885 -273 885 -273 940 -213.5 c 128,-1,13
 995 -154 995 -154 1020 -23 c 1,0,-1
1325 1553 m 1,14,-1
 1509 1553 l 1,15,-1
 1464 1320 l 1,16,-1
 1280 1320 l 1,17,-1
 1325 1553 l 1,14,-1
EndSplineSet
EndChar
StartChar: kgreenlandic
Encoding: 312 312 312
Width: 1233
Flags: W
LayerCount: 2
Fore
SplineSet
345 1120 m 1,0,-1
 535 1120 l 1,1,-1
 444 655 l 1,2,-1
 1018 1120 l 1,3,-1
 1242 1120 l 1,4,-1
 719 698 l 1,5,-1
 1093 0 l 1,6,-1
 868 0 l 1,7,-1
 566 578 l 1,8,-1
 404 449 l 1,9,-1
 317 0 l 1,10,-1
 127 0 l 1,11,-1
 345 1120 l 1,0,-1
EndSplineSet
EndChar
StartChar: Lslash
Encoding: 321 321 321
Width: 1233
Flags: W
LayerCount: 2
Fore
SplineSet
371 1491 m 1,0,-1
 573 1491 l 1,1,-1
 459 899 l 1,2,-1
 756 1108 l 1,3,-1
 829 1008 l 1,4,-1
 430 729 l 1,5,-1
 317 168 l 1,6,-1
 1038 168 l 1,7,-1
 1006 0 l 1,8,-1
 82 0 l 1,9,-1
 195 563 l 1,10,-1
 45 459 l 1,11,-1
 -29 559 l 1,12,-1
 231 739 l 1,13,-1
 371 1491 l 1,0,-1
EndSplineSet
EndChar
StartChar: lslash
Encoding: 322 322 322
Width: 1233
Flags: W
LayerCount: 2
Fore
SplineSet
600 408 m 1,0,1
 593 371 593 371 589.5 344 c 128,-1,2
 586 317 586 317 586 301 c 0,3,4
 586 228 586 228 630.5 192 c 128,-1,5
 675 156 675 156 766 156 c 2,6,-1
 977 156 l 1,7,-1
 946 0 l 1,8,-1
 739 0 l 2,9,10
 566 0 566 0 481.5 63.5 c 128,-1,11
 397 127 397 127 397 258 c 0,12,13
 397 293 397 293 402 332.5 c 128,-1,14
 407 372 407 372 416 412 c 1,15,-1
 475 698 l 1,16,-1
 162 479 l 1,17,-1
 88 578 l 1,18,-1
 512 870 l 1,19,-1
 627 1423 l 1,20,-1
 311 1423 l 1,21,-1
 340 1567 l 1,22,-1
 840 1567 l 1,23,-1
 725 1014 l 1,24,-1
 1040 1231 l 1,25,-1
 1114 1133 l 1,26,-1
 690 840 l 1,27,-1
 600 408 l 1,0,1
EndSplineSet
EndChar
StartChar: Eng
Encoding: 330 330 330
Width: 1233
Flags: W
LayerCount: 2
Fore
SplineSet
974.592 -20 m 18,30,-1
 936.688 -215 936.688 -215 827.278 -320 c 0,2,3
 716.674 -426 716.674 -426 551.674 -426 c 2,4,-1
 346.674 -426 l 1,5,-1
 376.997 -270 l 1,6,-1
 543.997 -270 l 2,7,8
 633.997 -270 633.997 -270 691.049 -208 c 0,9,10
 747.1 -146 747.1 -146 775.479 0 c 10,11,-1
 971.674 1009.33 l 18,12,13
 1006.6 1189.02 1006.6 1189.02 965.024 1273.51 c 128,-1,14
 923.448 1358 923.448 1358 799.448 1358 c 0,15,16
 658.448 1358 658.448 1358 561.284 1249.12 c 128,-1,17
 464.118 1140.23 464.118 1140.23 424.563 936.74 c 2,18,-1
 242.479 0 l 1,19,-1
 40.4795 0 l 1,20,-1
 330.689 1493 l 1,21,-1
 532.689 1493 l 1,22,-1
 494.29 1295.45 l 1,23,24
 569.749 1405.85 569.749 1405.85 673.037 1463.92 c 128,-1,25
 776.326 1522 776.326 1522 902.326 1522 c 0,26,27
 1089.33 1522 1089.33 1522 1156.45 1391.47 c 128,-1,28
 1223.58 1260.95 1223.58 1260.95 1172.62 998.75 c 10,29,-1
 974.592 -20 l 18,30,-1
EndSplineSet
Substitution2: "'locl' Localized Forms in Latin lookup 0-1" Eng.alt
EndChar
StartChar: eng
Encoding: 331 331 331
Width: 1233
Flags: W
LayerCount: 2
Fore
SplineSet
1116 694 m 2,0,-1
 977 -20 l 2,5,6
 939 -215 939 -215 830 -320 c 128,-1,7
 719 -426 719 -426 554 -426 c 2,8,-1
 349 -426 l 1,9,-1
 379 -270 l 1,10,-1
 564 -270 l 2,11,12
 654 -270 654 -270 711 -208 c 128,-1,13
 768 -146 768 -146 792 -20 c 2,0,-1
 931 694 l 2,3,4
 943 759 943 759 943 809 c 0,0,0
 943 875 943 875 921 916 c 128,-1,5
 882 987 882 987 769 987 c 0,6,7
 640 987 640 987 552 896 c 128,-1,8
 465 804 465 804 432 633 c 2,9,-1
 309 0 l 1,10,-1
 125 0 l 1,11,-1
 343 1120 l 1,12,-1
 527 1120 l 1,13,-1
 494 952 l 1,14,15
 562 1048 562 1048 655 1098 c 128,-1,16
 749 1147 749 1147 864 1147 c 0,17,18
 1035 1147 1035 1147 1097 1034 c 128,-1,19
 1134 968 1134 968 1134 862 c 0,0,0
 1134 788 1134 788 1116 694 c 2,0,-1
EndSplineSet
EndChar
StartChar: OE
Encoding: 338 338 338
Width: 1233
Flags: W
LayerCount: 2
Fore
SplineSet
1104 170 m 1,0,-1
 1071 0 l 1,1,-1
 467 0 l 2,2,3
 249 0 249 0 142 102.5 c 128,-1,4
 35 205 35 205 35 414 c 0,5,6
 35 560 35 560 68 742 c 128,-1,7
 101 924 101 924 154 1067 c 0,8,9
 240 1298 240 1298 378.5 1395.5 c 128,-1,10
 517 1493 517 1493 758 1493 c 2,11,-1
 1352 1493 l 1,12,-1
 1319 1323 l 1,13,-1
 961 1323 l 1,14,-1
 874 881 l 1,15,-1
 1202 881 l 1,16,-1
 1169 711 l 1,17,-1
 842 711 l 1,18,-1
 735 170 l 1,19,-1
 1104 170 l 1,0,-1
702 1323 m 2,20,21
 584 1323 584 1323 501 1269 c 128,-1,22
 418 1215 418 1215 371 1106 c 0,23,24
 346 1051 346 1051 321.5 961 c 128,-1,25
 297 871 297 871 272 745 c 0,26,27
 251 639 251 639 240 556 c 128,-1,28
 229 473 229 473 229 412 c 0,29,30
 229 292 229 292 291.5 231 c 128,-1,31
 354 170 354 170 477 170 c 2,32,-1
 539 170 l 1,33,-1
 764 1323 l 1,34,-1
 702 1323 l 2,20,21
EndSplineSet
EndChar
StartChar: oe
Encoding: 339 339 339
Width: 1233
Flags: W
LayerCount: 2
Fore
SplineSet
735 1020 m 1,0,1
 793 1083 793 1083 860.5 1115 c 128,-1,2
 928 1147 928 1147 1008 1147 c 0,3,4
 1130 1147 1130 1147 1201 1071 c 128,-1,5
 1272 995 1272 995 1272 862 c 0,6,7
 1272 819 1272 819 1263.5 753.5 c 128,-1,8
 1255 688 1255 688 1239 604 c 1,9,-1
 1223 514 l 1,10,-1
 721 514 l 1,11,12
 703 423 703 423 694.5 368 c 128,-1,13
 686 313 686 313 686 285 c 0,14,15
 686 207 686 207 734.5 163 c 128,-1,16
 783 119 783 119 868 119 c 0,17,18
 938 119 938 119 1009.5 148 c 128,-1,19
 1081 177 1081 177 1135 227 c 1,20,-1
 1100 55 l 1,21,22
 1041 14 1041 14 975 -7.5 c 128,-1,23
 909 -29 909 -29 838 -29 c 0,24,25
 743 -29 743 -29 675 5.5 c 128,-1,26
 607 40 607 40 573 104 c 1,27,28
 515 39 515 39 443.5 5 c 128,-1,29
 372 -29 372 -29 291 -29 c 0,30,31
 147 -29 147 -29 70.5 54 c 128,-1,32
 -6 137 -6 137 -6 293 c 0,33,34
 -6 347 -6 347 1.5 414 c 128,-1,35
 9 481 9 481 25 559 c 1,36,37
 47 680 47 680 76.5 773.5 c 128,-1,38
 106 867 106 867 145 938 c 0,39,40
 201 1040 201 1040 291 1093.5 c 128,-1,41
 381 1147 381 1147 498 1147 c 0,42,43
 578 1147 578 1147 640 1113 c 128,-1,44
 702 1079 702 1079 735 1020 c 1,0,1
754 653 m 1,45,-1
 1083 653 l 1,46,-1
 1098 729 l 2,47,48
 1104 760 1104 760 1107 788 c 128,-1,49
 1110 816 1110 816 1110 842 c 0,50,51
 1110 913 1110 913 1077 952 c 128,-1,52
 1044 991 1044 991 983 991 c 0,53,54
 900 991 900 991 846.5 927 c 128,-1,55
 793 863 793 863 768 735 c 1,56,-1
 754 653 l 1,45,-1
311 123 m 0,57,58
 371 123 371 123 419 158.5 c 128,-1,59
 467 194 467 194 496 260 c 0,60,61
 514 304 514 304 534 378.5 c 128,-1,62
 554 453 554 453 575 559 c 1,63,64
 594 667 594 667 603 734.5 c 128,-1,65
 612 802 612 802 612 834 c 0,66,67
 612 911 612 911 576 953 c 128,-1,68
 540 995 540 995 473 995 c 0,69,70
 408 995 408 995 360.5 960.5 c 128,-1,71
 313 926 313 926 285 856 c 0,72,73
 263 803 263 803 243 729 c 128,-1,74
 223 655 223 655 205 559 c 0,75,76
 188 473 188 473 178 400 c 128,-1,77
 168 327 168 327 168 291 c 0,78,79
 168 210 168 210 205 166.5 c 128,-1,80
 242 123 242 123 311 123 c 0,57,58
EndSplineSet
EndChar
StartChar: Tbar
Encoding: 358 358 358
Width: 1233
Flags: W
LayerCount: 2
Fore
SplineSet
192 1493 m 1,0,-1
 1331 1493 l 1,1,-1
 1298 1323 l 1,2,-1
 831 1323 l 1,3,-1
 719 747 l 1,4,-1
 984 747 l 1,5,-1
 951 577 l 1,6,-1
 686 577 l 1,7,-1
 574 0 l 1,8,-1
 371 0 l 1,9,-1
 483 577 l 1,10,-1
 218 577 l 1,11,-1
 251 747 l 1,12,-1
 516 747 l 1,13,-1
 628 1323 l 1,14,-1
 159 1323 l 1,15,-1
 192 1493 l 1,0,-1
EndSplineSet
EndChar
StartChar: tbar
Encoding: 359 359 359
Width: 1233
Flags: W
LayerCount: 2
Fore
SplineSet
754 1438 m 1,0,-1
 692 1120 l 1,1,-1
 1110 1120 l 1,2,-1
 1082 977 l 1,3,-1
 664 977 l 1,4,-1
 619 744 l 1,0,0
 848 744 l 1,0,0
 820 602 l 1,0,0
 591 602 l 1,0,0
 546 369 l 2,5,6
 537 320 537 320 537 283 c 0,0,0
 537 226 537 226 559 196 c 128,-1,7
 597 147 597 147 714 147 c 2,8,-1
 921 147 l 1,9,-1
 892 0 l 1,10,-1
 667 0 l 2,11,12
 460 0 460 0 391 83 c 128,-1,13
 348 136 348 136 348 237 c 0,0,0
 348 295 348 295 362 369 c 2,14,-1
 407 602 l 1,0,0
 178 602 l 1,0,0
 206 744 l 1,0,0
 435 744 l 1,0,0
 480 977 l 1,15,-1
 181 977 l 1,16,-1
 209 1120 l 1,17,-1
 508 1120 l 1,18,-1
 570 1438 l 1,19,-1
 754 1438 l 1,0,-1
EndSplineSet
EndChar
StartChar: longs
Encoding: 383 383 383
Width: 1233
Flags: W
LayerCount: 2
Fore
SplineSet
557 0 m 1,10,-1
 373 0 l 1,11,-1
 563 977 l 1,12,-1
 264 977 l 1,13,-1
 293 1120 l 1,14,-1
 590 1120 l 1,15,-1
 606 1198 l 1,16,17
 644 1391 644 1391 740.5 1473.5 c 128,-1,18
 837 1556 837 1556 1024 1556 c 2,19,-1
 1245 1556 l 1,0,-1
 1214 1403 l 1,1,-1
 1006 1403 l 2,2,3
 911 1403 911 1403 863 1361.5 c 128,-1,4
 815 1320 815 1320 795 1219 c 1,5,-1
 557 0 l 1,10,-1
EndSplineSet
EndChar
StartChar: uni0180
Encoding: 384 384 384
Width: 1233
Flags: W
LayerCount: 2
Fore
SplineSet
434 977 m 1,0,1
 496 1061 496 1061 578 1104 c 128,-1,2
 660 1147 660 1147 762 1147 c 0,3,4
 926 1147 926 1147 1017 1043.5 c 128,-1,5
 1108 940 1108 940 1108 754 c 0,6,7
 1108 609 1108 609 1067 465 c 0,8,9
 1026 322 1026 322 954 213 c 0,10,11
 877.459 97.6861 877.459 97.6861 768.5 34.5 c 0,12,13
 659 -29 659 -29 535 -29 c 0,14,15
 437 -29 437 -29 370.5 14 c 128,-1,16
 304 57 304 57 270 141 c 1,17,-1
 244 0 l 1,18,-1
 59 0 l 1,19,-1
 306.307 1270 l 1,20,-1
 166 1270 l 1,21,-1
 198 1434 l 1,22,-1
 338.243 1434 l 1,23,-1
 362 1556 l 1,24,-1
 547 1556 l 1,25,-1
 523.19 1434 l 1,26,-1
 860 1434 l 1,27,-1
 828 1270 l 1,28,-1
 491.183 1270 l 1,29,-1
 434 977 l 1,0,1
539 127 m 0,30,31
 623 127 623 127 691 172 c 128,-1,32
 759 217 759 217 805 303 c 0,33,34
 854 397 854 397 882.5 513 c 128,-1,35
 911 629 911 629 911 737 c 0,36,37
 911 865 911 865 860.5 929 c 128,-1,38
 810 993 810 993 709 993 c 0,39,40
 626 993 626 993 557.5 947 c 128,-1,41
 489 901 489 901 438 813 c 0,42,43
 390 727 390 727 361 610.5 c 128,-1,44
 332 494 332 494 332 383 c 0,45,46
 332 260 332 260 385.5 193.5 c 128,-1,47
 439 127 439 127 539 127 c 0,30,31
EndSplineSet
EndChar
StartChar: uni0181
Encoding: 385 385 385
Width: 1233
Flags: W
LayerCount: 2
Fore
SplineSet
652.338 1327 m 1,0,-1
 564.866 877 l 1,1,-1
 680.866 877 l 2,2,3
 828.866 877 828.866 877 912.154 932.5 c 0,4,5
 995.443 988.004 995.443 988.004 1017.6 1102 c 0,6,7
 1039.57 1215 1039.57 1215 977.952 1271 c 0,8,9
 916.326 1327 916.326 1327 768.338 1327 c 2,10,-1
 652.338 1327 l 1,0,-1
815.604 1493 m 2,11,12
 1046.61 1493 1046.61 1493 1152.94 1397 c 0,13,14
 1259.28 1301 1259.28 1301 1224.88 1124 c 0,15,16
 1198.25 986.989 1198.25 986.989 1118.5 906 c 0,17,18
 1038.75 824.999 1038.75 824.999 910.871 805 c 1,19,20
 1053.65 772.998 1053.65 772.998 1116.42 671.5 c 0,21,22
 1179.19 570 1179.19 570 1149.65 418 c 0,23,24
 1110.77 217.993 1110.77 217.993 953.583 109 c 0,25,26
 796.385 0 796.385 0 545.396 0 c 2,27,-1
 192.396 0 l 1,28,-1
 450.338 1327 l 1,29,30
 396.832 1327 396.832 1327 327.702 1280 c 0,31,32
 271.815 1242 271.815 1242 249.656 1128 c 2,33,-1
 240.132 1079 l 1,34,-1
 84.1318 1079 l 1,35,-1
 97.7383 1149 l 2,36,37
 132.923 1330.01 132.923 1330.01 244.763 1411.5 c 0,38,39
 356.614 1493 356.614 1493 482.604 1493 c 2,40,-1
 815.604 1493 l 2,11,12
532.988 713 m 1,41,-1
 426.662 166 l 1,42,-1
 567.662 166 l 2,43,44
 730.667 166 730.667 166 822.283 233.5 c 0,45,46
 913.905 301.009 913.905 301.009 940.923 440 c 0,47,48
 968.134 579.992 968.134 579.992 902.562 646.5 c 0,49,50
 836.992 713 836.992 713 673.988 713 c 2,51,-1
 532.988 713 l 1,41,-1
EndSplineSet
EndChar
StartChar: uni0183
Encoding: 387 387 387
Width: 1233
Flags: W
LayerCount: 2
Fore
SplineSet
418.5 977 m 1,0,1
 478.439 1059 478.439 1059 564.492 1103 c 0,2,3
 650.545 1147 650.545 1147 752.545 1147 c 0,4,5
 954.545 1147 954.545 1147 1040.32 991.5 c 0,6,7
 1126.09 836 1126.09 836 1073.03 563 c 0,8,9
 1019.18 286 1019.18 286 872.068 128.5 c 0,10,11
 724.953 -29 724.953 -29 521.953 -29 c 0,12,13
 421.953 -29 421.953 -29 353.909 14.5 c 0,14,15
 285.864 58 285.864 58 255.998 141 c 1,16,-1
 228.591 0 l 1,17,-1
 44.5908 0 l 1,18,-1
 347.047 1556 l 1,19,-1
 1099.05 1556 l 1,20,-1
 1063.28 1372 l 1,21,-1
 495.28 1372 l 1,22,-1
 418.5 977 l 1,0,1
878.249 559 m 0,23,24
 919.847 773 919.847 773 873.034 882 c 0,25,26
 826.222 991 826.222 991 693.222 991 c 0,27,28
 559.222 991 559.222 991 468.937 881.5 c 0,29,30
 378.652 772 378.652 772 337.249 559 c 0,31,32
 296.041 347 296.041 347 343.659 237 c 0,33,34
 391.277 127 391.277 127 525.277 127 c 0,35,36
 658.277 127 658.277 127 747.465 236 c 0,37,38
 836.652 345 836.652 345 878.249 559 c 0,23,24
EndSplineSet
EndChar
StartChar: uni0184
Encoding: 388 388 388
Width: 1233
Flags: W
LayerCount: 2
Fore
SplineSet
410.488 713 m 1,0,-1
 304.162 166 l 1,1,-1
 543.162 166 l 2,2,3
 719.162 166 719.162 166 806.214 228 c 0,4,5
 893.071 289 893.071 289 920.479 430 c 0,6,7
 948.858 576 948.858 576 883.076 644 c 0,8,9
 817.488 713 817.488 713 649.488 713 c 2,10,-1
 410.488 713 l 1,0,-1
442.366 877 m 1,1,-1
 677.366 877 l 1,2,3
 1053.45 862 1053.45 862 1117.32 671 c 0,4,5
 1150.89 571 1150.89 571 1119.59 410 c 0,6,7
 1080.13 207 1080.13 207 927.11 104 c 0,8,9
 773.896 0 773.896 0 510.896 0 c 2,10,-1
 68.8955 0 l 1,11,-1
 253.168 948 l 1,0,0
 131.486 1176 l 1,12,-1
 562.104 1493 l 1,13,-1
 442.366 877 l 1,1,-1
EndSplineSet
EndChar
StartChar: uni0185
Encoding: 389 389 389
Width: 1233
Flags: W
LayerCount: 2
Fore
SplineSet
938.249 559 m 0,0,1
 979.847 773 979.847 773 933.034 882 c 128,-1,2
 886.222 991 886.222 991 754.222 991 c 0,3,4
 620.222 991 620.222 991 529.034 882 c 128,-1,5
 439.652 772 439.652 772 398.249 559 c 0,6,7
 357.041 347 357.041 347 403.659 237 c 128,-1,8
 452.277 127 452.277 127 586.277 127 c 0,9,10
 718.277 127 718.277 127 807.465 236 c 128,-1,11
 896.652 345 896.652 345 938.249 559 c 0,0,1
479.5 977 m 1,12,13
 539.439 1059 539.439 1059 624.992 1103 c 128,-1,14
 710.545 1147 710.545 1147 812.545 1147 c 0,15,16
 1014.54 1147 1014.54 1147 1100.42 992 c 128,-1,17
 1186.09 836 1186.09 836 1133.03 563 c 0,18,19
 1079.18 286 1079.18 286 932.472 128 c 128,-1,20
 785.953 -29 785.953 -29 581.953 -29 c 0,21,22
 481.953 -29 481.953 -29 414.312 14 c 128,-1,23
 346.864 58 346.864 58 316.998 141 c 1,24,-1
 289.591 0 l 1,25,-1
 105.591 0 l 1,26,-1
 289.863 948 l 1,0,0
 140.182 1176 l 1,27,-1
 592.047 1556 l 1,28,-1
 479.5 977 l 1,12,13
EndSplineSet
EndChar
StartChar: uni0186
Encoding: 390 390 390
Width: 1233
Flags: W
LayerCount: 2
Fore
SplineSet
4.3916 53 m 1,0,1
 44.6279 260 l 1,25,-1
 105.771 199 105.771 199 184.051 167 c 128,-1,24
 262.331 135 262.331 135 350.331 135 c 0,22,23
 547.331 135 547.331 135 674.877 287 c 128,-1,21
 802.423 439 802.423 439 861.902 745 c 0,19,20
 921.577 1052 921.577 1052 853.123 1204 c 128,-1,18
 784.669 1356 784.669 1356 587.669 1356 c 0,16,17
 501.669 1356 501.669 1356 410.449 1324 c 128,-1,15
 319.229 1292 319.229 1292 233.372 1231 c 1,13,14
 273.608 1438 l 1,12,-1
 358.578 1479 358.578 1479 443.562 1499.5 c 128,-1,11
 528.548 1520 528.548 1520 619.548 1520 c 0,9,10
 904.548 1520 904.548 1520 1024.3 1315.5 c 128,-1,8
 1144.05 1111 1144.05 1111 1072.9 745 c 0,6,7
 1001.37 377 1001.37 377 803.412 174 c 128,-1,5
 605.452 -29 605.452 -29 318.452 -29 c 0,3,4
 227.452 -29 227.452 -29 150.438 -8.5 c 128,-1,2
 73.4219 12 73.4219 12 4.3916 53 c 1,0,1
EndSplineSet
EndChar
StartChar: uni0187
Encoding: 391 391 391
Width: 1233
Flags: W
LayerCount: 2
Fore
SplineSet
847.826 53 m 1,0,1
 762.856 12 762.856 12 677.872 -8.5 c 0,2,3
 592.887 -29 592.887 -29 501.887 -29 c 0,4,5
 214.887 -29 214.887 -29 95.8457 174 c 0,6,7
 -23.1943 377 -23.1943 377 48.3369 745 c 0,8,9
 106.263 1043 106.263 1043 305.514 1247.5 c 0,10,11
 504.764 1452 504.764 1452 789.764 1452 c 0,12,13
 879.278 1452 879.278 1452 955.26 1432.16 c 1,14,15
 987.329 1482.92 987.329 1482.92 1039.51 1533 c 0,16,17
 1150.11 1639 1150.11 1639 1315.11 1639 c 2,18,-1
 1335.11 1639 l 1,19,-1
 1304.79 1483 l 1,20,21
 1220.92 1483 1220.92 1483 1157.74 1421 c 0,22,23
 1103.38 1367.66 1103.38 1367.66 1077.21 1233.09 c 0,24,-1
 1063.59 1163 l 1,25,26
 1001.45 1224 1001.45 1224 922.665 1256 c 0,27,28
 843.886 1288 843.886 1288 757.886 1288 c 0,29,30
 560.886 1288 560.886 1288 433.34 1136 c 0,31,32
 305.794 984 305.794 984 259.337 745 c 0,33,34
 199.856 439 199.856 439 268.311 287 c 0,35,36
 336.766 135 336.766 135 533.766 135 c 0,37,38
 621.766 135 621.766 135 712.485 167 c 0,39,40
 803.205 199 803.205 199 888.062 260 c 1,41,-1
 847.826 53 l 1,0,1
EndSplineSet
EndChar
StartChar: uni0188
Encoding: 392 392 392
Width: 1233
Flags: W
LayerCount: 2
Fore
SplineSet
835.693 57 m 1,0,1
 753.335 14 753.335 14 670.656 -7.5 c 0,2,3
 587.977 -29 587.977 -29 505.978 -29 c 0,4,5
 245.978 -29 245.978 -29 129.801 127 c 0,6,7
 13.624 283 13.624 283 67.2725 559 c 0,8,9
 120.922 835 120.922 835 297.745 991 c 0,10,11
 474.568 1147 474.568 1147 734.568 1147 c 0,12,13
 804.596 1147 804.596 1147 868.583 1131.3 c 1,14,15
 909.928 1244.51 909.928 1244.51 984.419 1316 c 0,16,17
 1095.02 1422 1095.02 1422 1260.02 1422 c 2,18,-1
 1280.02 1422 l 1,19,-1
 1249.7 1266 l 1,20,21
 1159.7 1266 1159.7 1266 1102.65 1204 c 0,22,23
 1046.6 1142 1046.6 1142 1022.1 1016 c 2,24,-1
 993.336 868 l 1,25,26
 932.971 933 932.971 933 865.108 962 c 0,27,28
 797.245 991 797.245 991 704.245 991 c 0,29,30
 531.245 991 531.245 991 416.475 879 c 0,31,32
 301.704 767 301.704 767 261.272 559 c 0,33,34
 221.036 352 221.036 352 292.668 239.5 c 0,35,36
 364.301 127 364.301 127 536.301 127 c 0,37,38
 632.301 127 632.301 127 714.034 156.5 c 0,39,40
 795.769 186 795.769 186 872.82 248 c 1,41,-1
 835.693 57 l 1,0,1
EndSplineSet
EndChar
StartChar: uni018A
Encoding: 394 394 394
Width: 1233
Flags: W
LayerCount: 2
Fore
SplineSet
471.104 1493 m 2,0,-1
 704.104 1493 l 2,1,2
 1046.11 1493 1046.11 1493 1172.73 1311 c 0,3,4
 1299.35 1129 1299.35 1129 1224.71 745 c 0,5,6
 1150.46 363 1150.46 363 953.175 181.5 c 0,7,8
 755.896 0 755.896 0 413.896 0 c 2,9,-1
 180.896 0 l 1,10,-1
 438.838 1327 l 1,11,12
 385.332 1327 385.332 1327 316.202 1280 c 0,13,14
 260.315 1242 260.315 1242 238.156 1128 c 2,15,-1
 228.632 1079 l 1,16,-1
 72.6318 1079 l 1,17,-1
 86.2383 1149 l 2,18,19
 121.423 1330.01 121.423 1330.01 233.263 1411.5 c 0,20,21
 345.114 1493 345.114 1493 471.104 1493 c 2,0,-1
442.162 166 m 2,22,23
 697.163 166 697.163 166 822.557 291.5 c 0,24,25
 947.951 417 947.951 417 1011.71 745 c 0,26,27
 1076.05 1076 1076.05 1076 999.943 1201.5 c 0,28,29
 923.839 1327 923.839 1327 667.838 1327 c 2,30,-1
 641.838 1327 l 1,31,-1
 416.162 166 l 1,32,-1
 442.162 166 l 2,22,23
EndSplineSet
EndChar
StartChar: uni018B
Encoding: 395 395 395
Width: 1233
Flags: W
LayerCount: 2
Fore
SplineSet
927.488 713 m 1,0,-1
 688.488 713 l 2,10,-1
 520.488 713 520.488 713 428.173 644.5 c 0,8,9
 335.858 576 335.858 576 307.479 430 c 0,6,7
 280.071 289 280.071 289 343.116 227.5 c 0,4,5
 406.162 166 406.162 166 582.162 166 c 2,2,3
 821.162 166 l 1,1,-1
 927.488 713 l 1,0,-1
347.838 1327 m 129,-1,-1
 380.104 1493 l 1,13,-1
 1282.1 1493 l 1,12,-1
 991.896 0 l 1,11,-1
 549.896 0 l 2,10,-1
 286.896 0 286.896 0 174.014 103.5 c 0,8,9
 61.1309 206.996 61.1309 206.996 100.591 410 c 0,6,7
 131.84 570.76 131.84 570.76 204.324 671 c 0,4,5
 342.966 862.441 342.966 862.441 724.366 877 c 1,2,3
 959.366 877 l 1,1,-1
 1046.84 1327 l 1,0,-1
 347.838 1327 l 129,-1,-1
EndSplineSet
EndChar
StartChar: uni018C
Encoding: 396 396 396
Width: 1233
Flags: W
LayerCount: 2
Fore
SplineSet
311.5 559 m 128,-1,1
 270 345 270 345 316.5 236 c 128,-1,2
 363 127 363 127 496 127 c 0,3,4
 630 127 630 127 720.5 237 c 128,-1,5
 811 347 811 347 852 559 c 0,6,7
 893 772 893 772 845.5 881.5 c 128,-1,8
 798 991 798 991 664 991 c 0,9,10
 531 991 531 991 442 882 c 128,-1,0
 353 773 353 773 311.5 559 c 128,-1,1
442 1372 m 1,11,-1
 478 1556 l 1,12,-1
 1230 1556 l 1,13,-1
 928 0 l 1,14,-1
 744 0 l 1,15,-1
 771 141 l 1,16,17
 709 58 709 58 624 14.5 c 128,-1,18
 539 -29 539 -29 439 -29 c 0,19,20
 236 -29 236 -29 150 128.5 c 128,-1,21
 64 286 64 286 118 563 c 0,22,23
 171 836 171 836 317.5 991.5 c 128,-1,24
 464 1147 464 1147 666 1147 c 0,25,26
 768 1147 768 1147 836.5 1103 c 0,27,28
 906 1059 906 1059 934 977 c 1,29,-1
 1010 1372 l 1,30,-1
 442 1372 l 1,11,-1
EndSplineSet
EndChar
StartChar: uni018D
Encoding: 397 397 397
Width: 1233
Flags: W
LayerCount: 2
Fore
SplineSet
573 127 m 0,0,1
 713 127 713 127 806 236 c 128,-1,2
 899 345 899 345 941 559 c 0,3,4
 982 772 982 772 931.5 881.5 c 128,-1,5
 881 991 881 991 741 991 c 0,6,7
 600 991 600 991 506.5 881.5 c 128,-1,8
 413 772 413 772 372 559 c 0,9,10
 330 345 330 345 381 236 c 128,-1,11
 432 127 432 127 573 127 c 0,0,1
840 51 m 1,12,13
 857 42 857 42 890 2 c 0,14,15
 940 -59 940 -59 922 -151 c 0,16,17
 896 -287 896 -287 761 -369 c 128,-1,18
 626 -451 626 -451 430 -451 c 0,19,20
 328 -451 328 -451 280 -439 c 0,21,-1
 136 -403 l 1,22,-1
 170 -230 l 1,23,24
 231 -254 231 -254 299 -269 c 0,25,26
 371 -284 371 -284 443 -284 c 0,27,28
 453 -284 453 -284 462 -284 c 2,29,-1
 494 -283 l 2,30,31
 568 -281 568 -281 636 -238 c 2,32,-1
 680 -210 l 1,33,34
 711 -187 711 -187 721 -140 c 0,35,36
 727 -107 727 -107 718 -88 c 0,37,38
 706 -64 706 -64 669 -43 c 0,39,40
 648 -30 648 -30 543 -29 c 0,41,42
 308 -26 308 -26 216 122 c 0,43,44
 122 273 122 273 177 559 c 0,45,46
 233 846 233 846 385 996.5 c 128,-1,47
 537 1147 537 1147 771 1147 c 0,48,49
 1004 1147 1004 1147 1098 996.5 c 128,-1,50
 1192 846 1192 846 1136 559 c 0,51,52
 1080 273 1080 273 928 122 c 0,53,54
 889 84 889 84 840 51 c 1,12,13
EndSplineSet
EndChar
StartChar: uni018E
Encoding: 398 398 398
Width: 1233
Flags: W
LayerCount: 2
Fore
SplineSet
1247.1 1493 m 1,0,-1
 956.896 0 l 1,11,-1
 51.8955 0 l 1,10,-1
 84.9395 170 l 1,9,-1
 787.939 170 l 1,8,-1
 893.1 711 l 1,7,-1
 239.1 711 l 1,6,-1
 272.145 881 l 1,5,-1
 926.145 881 l 1,4,-1
 1012.06 1323 l 1,3,-1
 328.061 1323 l 1,2,-1
 361.104 1493 l 1,1,-1
 1247.1 1493 l 1,0,-1
EndSplineSet
EndChar
StartChar: uni018F
Encoding: 399 399 399
Width: 1233
Flags: W
LayerCount: 2
Fore
SplineSet
116.902 745 m 2,0,-1
 133.036 828 l 1,1,-1
 919.877 828 l 1,2,3
 963.6 1092.48 963.6 1092.48 928.762 1215 c 0,4,5
 888.669 1356 888.669 1356 734.669 1356 c 0,6,7
 648.669 1356 648.669 1356 557.449 1324 c 0,8,9
 466.229 1292 466.229 1292 380.372 1231 c 1,10,-1
 420.608 1438 l 1,11,12
 505.578 1479 505.578 1479 590.562 1499.5 c 0,13,14
 675.548 1520 675.548 1520 766.548 1520 c 0,15,16
 1019.55 1520 1019.55 1520 1105.73 1328 c 0,17,18
 1191.91 1136 1191.91 1136 1115.9 745 c 0,19,20
 1040.09 355 1040.09 355 879.273 163 c 0,21,22
 718.452 -29 718.452 -29 465.452 -29 c 0,23,24
 212.452 -29 212.452 -29 126.579 162 c 0,25,26
 40.7061 353 40.7061 353 116.902 745 c 2,0,-1
883.522 644 m 1,27,-1
 310.028 644 l 1,28,29
 270.616 394.244 270.616 394.244 304.238 276 c 0,30,31
 344.331 135 344.331 135 497.331 135 c 0,32,33
 651.331 135 651.331 135 746.142 275.5 c 0,34,35
 825.695 393.392 825.695 393.392 883.522 644 c 1,27,-1
EndSplineSet
EndChar
StartChar: uni0190
Encoding: 400 400 400
Width: 1233
Flags: W
LayerCount: 2
Fore
SplineSet
450.399 799 m 1,0,1
 326.008 833 326.008 833 273.447 915 c 128,-1,40
 220.887 997 220.887 997 244.796 1120 c 0,38,39
 279.979 1301 279.979 1301 431.763 1410.5 c 128,-1,37
 583.548 1520 583.548 1520 801.548 1520 c 0,35,36
 874.548 1520 874.548 1520 965.938 1504 c 128,-1,34
 1057.33 1488 1057.33 1488 1172.11 1456 c 1,32,33
 1135.95 1270 l 1,31,-1
 1039.73 1310 1039.73 1310 948.615 1330 c 128,-1,30
 857.503 1350 857.503 1350 768.503 1350 c 0,28,29
 634.503 1350 634.503 1350 550.049 1288.5 c 128,-1,27
 465.594 1227 465.594 1227 443.24 1112 c 0,25,26
 422.053 1003 422.053 1003 488.195 942 c 128,-1,24
 554.339 881 554.339 881 693.339 881 c 2,22,23
 847.339 881 l 1,21,-1
 815.071 715 l 1,20,-1
 661.071 715 l 2,19,-1
 509.071 715 509.071 715 405.201 638.5 c 128,-1,18
 301.331 562 301.331 562 276.062 432 c 0,16,17
 248.654 291 248.654 291 323.075 216 c 128,-1,15
 397.497 141 397.497 141 563.497 141 c 0,13,14
 661.497 141 661.497 141 765.551 167 c 128,-1,12
 869.604 193 869.604 193 981.907 246 c 1,10,11
 942.837 45 l 1,9,-1
 832.839 9 832.839 9 722.146 -10 c 128,-1,8
 611.452 -29 611.452 -29 508.452 -29 c 0,6,7
 263.452 -29 263.452 -29 147.792 88.5 c 128,-1,5
 32.1318 206 32.1318 206 72.1738 412 c 0,3,4
 101.137 561 101.137 561 198.478 660.5 c 128,-1,2
 295.818 760 295.818 760 450.399 799 c 1,0,1
EndSplineSet
EndChar
StartChar: uni0191
Encoding: 401 401 401
Width: 1233
Flags: W
LayerCount: 2
Fore
SplineSet
566.508 1493 m 1,0,-1
 1356.51 1493 l 1,1,-1
 1323.46 1323 l 1,2,-1
 736.463 1323 l 1,3,-1
 650.936 883 l 1,4,-1
 1174.94 883 l 1,5,-1
 1141.89 713 l 1,6,-1
 617.892 713 l 1,7,-1
 475.41 -20 l 2,8,9
 437.506 -215 437.506 -215 328.097 -320 c 0,10,11
 217.492 -426 217.492 -426 52.4922 -426 c 2,12,-1
 -123.508 -426 l 1,13,-1
 -93.1846 -270 l 1,14,-1
 44.8154 -270 l 2,15,16
 134.815 -270 134.815 -270 191.867 -208 c 0,17,18
 247.919 -146 247.919 -146 272.41 -20 c 2,19,-1
 566.508 1493 l 1,0,-1
EndSplineSet
EndChar
StartChar: florin
Encoding: 402 402 402
Width: 1233
Flags: W
LayerCount: 2
Fore
SplineSet
1255.63 1556 m 1,0,-1
 1225.89 1403 l 1,1,-1
 1016.89 1403 l 1,2,-1
 1015.13 1403 l 2,3,4
 917.471 1402.64 917.471 1402.64 870.921 1362 c 0,5,6
 825.146 1322 825.146 1322 805.125 1219 c 2,7,-1
 785.881 1120 l 1,8,-1
 1170.88 1120 l 1,9,-1
 1143.08 977 l 1,10,-1
 758.085 977 l 1,11,-1
 564.287 -20 l 2,12,13
 522.69 -234 522.69 -234 423.029 -330 c 0,14,15
 322.369 -426 322.369 -426 141.369 -426 c 2,16,-1
 71.3691 -426 l 1,17,-1
 101.692 -270 l 1,18,-1
 150.692 -270 l 2,19,20
 255.692 -270 255.692 -270 303.022 -222 c 0,21,22
 350.547 -173 350.547 -173 380.287 -20 c 2,23,-1
 571.638 977 l 1,24,-1
 275.085 977 l 1,25,-1
 302.881 1120 l 1,26,-1
 599.076 1120 l 1,27,-1
 614.043 1198 l 2,28,29
 648.555 1377.87 648.555 1377.87 753.914 1470 c 0,30,31
 798.426 1508.92 798.426 1508.92 862.641 1530.24 c 0,32,33
 937.222 1556 937.222 1556 1034.63 1556 c 2,34,-1
 1043.32 1556 l 1,35,-1
 1046.56 1556 l 1,36,-1
 1255.63 1556 l 1,0,-1
EndSplineSet
EndChar
StartChar: uni0193
Encoding: 403 403 403
Width: 1233
Flags: W
LayerCount: 2
Fore
SplineSet
920.933 123 m 1,0,1
 825.354 48 825.354 48 716.37 9.5 c 0,2,3
 607.387 -29 607.387 -29 489.387 -29 c 0,4,5
 205.387 -29 205.387 -29 86.9434 174.5 c 0,6,7
 -31.5 378 -31.5 378 39.8369 745 c 0,8,9
 110.98 1111 110.98 1111 310.731 1315.5 c 0,10,11
 510.482 1520 510.482 1520 795.481 1520 c 0,12,13
 889.482 1520 889.482 1520 970.331 1493.5 c 0,14,15
 986.279 1488.27 986.279 1488.27 1001.79 1481.97 c 1,16,17
 1021.66 1507.71 1021.66 1507.71 1048.01 1533 c 0,18,19
 1158.61 1639 1158.61 1639 1323.61 1639 c 2,20,-1
 1343.61 1639 l 1,21,-1
 1313.29 1483 l 1,22,23
 1229.42 1483 1229.42 1483 1166.24 1421 c 0,24,25
 1111.88 1367.66 1111.88 1367.66 1085.71 1233.09 c 0,26,-1
 1080.45 1206 l 1,27,28
 1014.41 1283 1014.41 1283 936.509 1319.5 c 0,29,30
 858.604 1356 858.604 1356 763.604 1356 c 0,31,32
 566.604 1356 566.604 1356 438.461 1203.5 c 0,33,34
 310.317 1051 310.317 1051 250.837 745 c 0,35,36
 190.385 434 190.385 434 256.825 284.5 c 0,37,38
 323.266 135 323.266 135 521.266 135 c 0,39,40
 588.266 135 588.266 135 641.778 150.5 c 0,41,42
 695.291 166 695.291 166 742.705 199 c 1,43,-1
 820.652 600 l 1,44,-1
 603.652 600 l 1,45,-1
 635.919 766 l 1,46,-1
 1045.92 766 l 1,47,-1
 920.933 123 l 1,0,1
EndSplineSet
EndChar
StartChar: uni0194
Encoding: 404 404 404
Width: 1233
Flags: W
LayerCount: 2
Fore
SplineSet
767.141 650 m 1,5,-1
 1006.86 201 1006.86 201 927.084 -194 c 8,0,0
 878.21 -430 878.21 -430 465.21 -430 c 8,0,0
 57.21 -430 57.21 -430 71.084 -194 c 16,0,0
 93.2266 172 93.2266 172 530.501 657 c 1,0,0
 200.79 1353 l 1,0,-1
 417.79 1353 l 1,1,-1
 680.909 798 l 1,2,-1
 1161.79 1353 l 1,3,-1
 1378.79 1353 l 1,4,-1
 767.141 650 l 1,5,-1
607.012 495 m 1,0,0
 342.503 194 342.503 194 286.524 -130 c 8,0,0
 262.699 -268 262.699 -268 475.699 -268 c 16,0,0
 680.699 -268 680.699 -268 706.524 -130 c 16,0,0
 767.67 200 767.67 200 607.012 495 c 1,0,0
EndSplineSet
EndChar
StartChar: uni0195
Encoding: 405 405 405
Width: 1233
Flags: W
LayerCount: 2
Fore
SplineSet
738.547 694 m 2,0,-1
 682.565 406 l 1,1,-1
 681.665 406 l 1,2,3
 651.926 253 651.926 253 676.601 204 c 0,4,5
 704.124 151.635 704.124 151.635 759.971 156 c 0,6,7
 779.865 157.555 779.865 157.555 847.449 231 c 0,8,9
 907.918 296.719 907.918 296.719 938.296 453 c 2,10,-1
 1018.19 864 l 1,11,-1
 1184.69 864 l 1,12,-1
 1104.8 453 l 2,13,14
 1060.48 225.008 1060.48 225.008 962.56 112.5 c 0,15,16
 864.647 0 864.647 0 710.747 0 c 0,17,18
 583.847 0 583.847 0 528.708 96 c 0,19,20
 474.468 192 474.468 192 516.065 406 c 2,21,-1
 572.047 694 l 2,22,23
 601.398 844.999 601.398 844.999 567.499 916 c 0,24,25
 533.601 987 533.601 987 467.9 987 c 0,26,27
 396.351 987 396.351 987 316.015 895.5 c 0,28,29
 235.679 804 235.679 804 202.439 633 c 2,30,-1
 79.3975 0 l 1,31,-1
 -86.2021 0 l 1,32,-1
 216.253 1556 l 1,33,-1
 381.853 1556 l 1,34,-1
 264.447 952 l 1,35,36
 367.83 1086.49 367.83 1086.49 386.779 1097.5 c 0,37,38
 472.001 1147 472.001 1147 556.602 1147 c 0,39,40
 674.5 1147 674.5 1147 728.684 1034.5 c 0,41,42
 782.866 922.002 782.866 922.002 738.547 694 c 2,0,-1
EndSplineSet
EndChar
StartChar: uni0196
Encoding: 406 406 406
Width: 1233
Flags: W
LayerCount: 2
Fore
SplineSet
626.061 1323 m 1,0,-1
 313.061 1323 l 1,1,-1
 346.104 1493 l 1,2,-1
 1175.1 1493 l 1,3,-1
 1142.06 1323 l 1,4,-1
 829.061 1323 l 1,5,-1
 653.729 421 l 2,6,7
 628.973 293.637 628.973 293.637 661.186 233 c 0,8,9
 694.134 171 694.134 171 784.134 171 c 2,10,-1
 969.134 171 l 1,11,-1
 936.896 0 l 1,12,-1
 719.896 0 l 2,13,14
 550.346 0 550.346 0 478.499 106 c 0,15,16
 409.336 208.052 409.336 208.052 447.813 406 c 2,17,-1
 626.061 1323 l 1,0,-1
EndSplineSet
EndChar
StartChar: uni0197
Encoding: 407 407 407
Width: 1233
Flags: W
LayerCount: 2
Fore
SplineSet
346.104 1493 m 1,0,-1
 1175.1 1493 l 1,1,-1
 1142.06 1323 l 1,2,-1
 829.061 1323 l 1,3,-1
 717.098 747 l 1,4,-1
 719.098 747 l 1,5,-1
 984.098 747 l 1,6,-1
 951.053 577 l 1,7,-1
 686.053 577 l 1,8,-1
 684.053 577 l 1,9,-1
 604.939 170 l 1,10,-1
 917.939 170 l 1,11,-1
 884.896 0 l 1,12,-1
 55.8955 0 l 1,13,-1
 88.9395 170 l 1,14,-1
 401.939 170 l 1,15,-1
 481.053 577 l 1,16,-1
 218.053 577 l 1,17,-1
 251.098 747 l 1,18,-1
 514.098 747 l 1,19,-1
 626.061 1323 l 1,20,-1
 313.061 1323 l 1,21,-1
 346.104 1493 l 1,0,-1
EndSplineSet
EndChar
StartChar: uni0198
Encoding: 408 408 408
Width: 1233
Flags: W
LayerCount: 2
Fore
SplineSet
731 1180 m 2,0,1
 925 1350 925 1350 1033 1362 c 0,2,3
 1189 1380 1189 1380 1273 1266 c 2,4,-1
 1310 1215 l 1,5,-1
 1182 1101 l 1,6,-1
 1156 1138 l 2,7,8
 1111 1204 1111 1204 1024 1185 c 0,9,10
 955 1170 955 1170 824 1055 c 2,11,12
 627 883 l 1,13,-1
 1053 0 l 1,14,-1
 809 0 l 1,15,-1
 467 748 l 1,16,-1
 281 584 l 1,17,-1
 168 0 l 1,18,-1
 -35 0 l 1,19,-1
 255 1493 l 1,20,-1
 458 1493 l 1,21,-1
 329 829 l 1,22,-1
 731 1180 l 2,0,1
EndSplineSet
EndChar
StartChar: uni0199
Encoding: 409 409 409
Width: 1233
Flags: W
LayerCount: 2
Fore
SplineSet
279.541 1002 m 1,0,-1
 308.31 1150 l 2,1,2
 346.214 1345 346.214 1345 455.624 1450 c 0,3,4
 566.228 1556 566.228 1556 731.228 1556 c 2,5,-1
 936.228 1556 l 1,6,-1
 905.904 1400 l 1,7,-1
 720.904 1400 l 2,8,9
 630.904 1400 630.904 1400 573.853 1338 c 0,10,11
 517.802 1276 517.802 1276 493.31 1150 c 1,12,-1
 498.31 1150 l 1,13,-1
 402.091 655 l 1,14,-1
 975.479 1120 l 1,15,-1
 1199.48 1120 l 1,16,-1
 676.449 698 l 1,17,-1
 1050.77 0 l 1,18,-1
 825.772 0 l 1,19,-1
 524.124 578 l 1,20,-1
 362.049 449 l 1,21,-1
 274.772 0 l 1,22,-1
 84.7725 0 l 1,23,-1
 279.541 1002 l 1,0,-1
EndSplineSet
EndChar
StartChar: uni019A
Encoding: 410 410 410
Width: 1233
Flags: W
LayerCount: 2
Fore
SplineSet
565.621 406 m 2,0,1
 541.519 282 541.519 282 574.772 219 c 0,2,3
 608.026 156 608.026 156 697.026 156 c 2,4,-1
 912.026 156 l 1,5,-1
 881.703 0 l 1,6,-1
 648.703 0 l 2,7,8
 483.703 0 483.703 0 413.808 106 c 0,9,10
 343.912 212 343.912 212 381.621 406 c 2,11,-1
 419.72 602 l 1,12,-1
 191.72 602 l 1,13,-1
 219.322 744 l 1,14,-1
 447.322 744 l 1,15,-1
 579.307 1423 l 1,16,-1
 284.307 1423 l 1,17,-1
 312.297 1567 l 1,18,-1
 791.297 1567 l 1,19,-1
 631.322 744 l 1,20,-1
 640.322 744 l 1,21,-1
 861.322 744 l 1,22,-1
 833.72 602 l 1,23,-1
 612.72 602 l 1,24,-1
 603.72 602 l 1,25,-1
 565.621 406 l 2,0,1
EndSplineSet
EndChar
StartChar: uni019B
Encoding: 411 411 411
Width: 1233
Flags: W
LayerCount: 2
Fore
SplineSet
669.556 1213.1 m 1,0,-1
 1064.72 1455 l 1,1,-1
 1123.34 1345 l 1,2,-1
 702.641 1087.02 l 1,3,-1
 987.896 0 l 1,4,-1
 796.896 0 l 1,5,-1
 612.283 703.503 l 1,6,-1
 145.896 0 l 1,7,-1
 -45.1045 0 l 1,8,-1
 557.241 913.255 l 1,9,-1
 538.004 986.562 l 1,10,-1
 126.959 736 l 1,11,-1
 68.5352 847 l 1,12,-1
 504.879 1112.79 l 1,13,-1
 405.104 1493 l 1,14,-1
 596.104 1493 l 1,15,-1
 669.556 1213.1 l 1,0,-1
EndSplineSet
EndChar
StartChar: uni019C
Encoding: 412 412 412
Width: 1233
Flags: W
LayerCount: 2
Fore
SplineSet
447.679 114 m 1,0,1
 399.684 42 399.684 42 340.478 7.5 c 0,2,3
 281.271 -27 281.271 -27 207.271 -27 c 0,4,5
 72.2705 -27 72.2705 -27 37.084 77.5 c 0,6,7
 1.89648 182 1.89648 182 58.0723 471 c 2,8,-1
 256.729 1493 l 1,9,-1
 424.729 1493 l 1,10,-1
 227.627 479 l 2,11,12
 181.56 242 181.56 242 196.883 184.5 c 0,13,14
 212.205 127 212.205 127 282.205 127 c 0,15,16
 362.205 127 362.205 127 403.66 188.5 c 0,17,18
 445.114 250 445.114 250 489.627 479 c 2,19,-1
 686.729 1493 l 1,20,-1
 854.729 1493 l 1,21,-1
 657.627 479 l 2,22,23
 610.977 239 610.977 239 628.591 183 c 0,24,25
 646.205 127 646.205 127 720.205 127 c 0,26,27
 793.205 127 793.205 127 833.66 188.5 c 0,28,29
 874.114 250 874.114 250 918.627 479 c 2,30,-1
 1115.73 1493 l 1,31,-1
 1282.73 1493 l 1,32,-1
 992.52 0 l 1,33,-1
 825.52 0 l 1,34,-1
 844.18 96 l 1,35,36
 799.517 36 799.517 36 743.894 4.5 c 0,37,38
 688.271 -27 688.271 -27 625.271 -27 c 0,39,40
 549.271 -27 549.271 -27 505.574 8 c 0,41,42
 461.878 43 461.878 43 447.679 114 c 1,0,1
EndSplineSet
EndChar
StartChar: uni019D
Encoding: 413 413 413
Width: 1233
Flags: W
LayerCount: 2
Fore
SplineSet
376.508 1493 m 1,0,-1
 606.908 1493 l 1,1,-1
 821.614 264 l 1,2,-1
 1060.51 1493 l 1,3,-1
 1236.01 1493 l 1,4,-1
 945.798 0 l 1,5,-1
 715.399 0 l 1,6,-1
 500.691 1229 l 1,7,-1
 257.91 -20 l 2,8,9
 220.006 -215 220.006 -215 119.496 -320 c 0,10,11
 17.8916 -426 17.8916 -426 -130.607 -426 c 2,12,-1
 -157.607 -426 l 1,13,-1
 -127.284 -270 l 1,14,15
 -46.2842 -270 -46.2842 -270 6.2666 -208 c 0,16,17
 57.9189 -146 57.9189 -146 82.4102 -20 c 2,18,-1
 376.508 1493 l 1,0,-1
EndSplineSet
EndChar
StartChar: uni019E
Encoding: 414 414 414
Width: 1233
Flags: W
LayerCount: 2
Fore
SplineSet
1116.21 694 m 2,0,-1
 897.731 -430 l 1,1,-1
 712.731 -430 l 1,2,-1
 931.215 694 l 2,3,4
 960.566 845 960.566 845 921.367 916 c 128,-1,5
 882.168 987 882.168 987 769.168 987 c 0,6,7
 640.168 987 640.168 987 552.882 895.5 c 128,-1,8
 465.597 804 465.597 804 432.357 633 c 2,9,-1
 309.314 0 l 1,10,-1
 125.314 0 l 1,11,-1
 343.021 1120 l 1,12,-1
 527.021 1120 l 1,13,-1
 494.364 952 l 1,14,15
 562.025 1048 562.025 1048 655.647 1097.5 c 128,-1,16
 749.269 1147 749.269 1147 864.269 1147 c 0,17,18
 1035.27 1147 1035.27 1147 1097.9 1034.5 c 128,-1,19
 1160.53 922 1160.53 922 1116.21 694 c 2,0,-1
EndSplineSet
EndChar
StartChar: uni019F
Encoding: 415 415 415
Width: 1233
Flags: W
LayerCount: 2
Fore
SplineSet
1115.9 745 m 0,0,1
 1040.09 355 1040.09 355 879.273 163 c 0,2,3
 718.452 -29 718.452 -29 465.452 -29 c 0,4,5
 212.452 -29 212.452 -29 126.579 162 c 0,6,7
 40.7061 353 40.7061 353 116.902 745 c 0,8,9
 192.905 1136 192.905 1136 353.727 1328 c 0,10,11
 514.548 1520 514.548 1520 766.548 1520 c 0,12,13
 1019.55 1520 1019.55 1520 1105.73 1328 c 0,14,15
 1191.91 1136 1191.91 1136 1115.9 745 c 0,0,1
919.877 828 m 1,16,17
 963.6 1092.48 963.6 1092.48 928.762 1215 c 0,18,19
 888.669 1356 888.669 1356 734.669 1356 c 0,20,21
 581.669 1356 581.669 1356 486.762 1215 c 0,22,23
 404.291 1092.48 404.291 1092.48 345.195 828 c 1,24,-1
 919.877 828 l 1,16,17
310.028 644 m 1,25,26
 270.616 394.244 270.616 394.244 304.238 276 c 0,27,28
 344.331 135 344.331 135 497.331 135 c 0,29,30
 651.331 135 651.331 135 746.142 275.5 c 0,31,32
 825.695 393.392 825.695 393.392 883.522 644 c 1,33,-1
 310.028 644 l 1,25,26
EndSplineSet
EndChar
StartChar: uni01A2
Encoding: 418 418 418
Width: 1233
Flags: W
LayerCount: 2
Fore
SplineSet
44.6777 745 m 0,0,1
 175.21 1416.53 175.21 1416.53 526.314 1505.77 c 0,2,3
 582.279 1520 582.279 1520 644.423 1520 c 0,4,5
 850.76 1520 850.76 1520 930.745 1362.34 c 1,6,-1
 1103.12 1493 l 1,7,-1
 1333.52 1493 l 1,8,-1
 1043.31 0 l 1,9,-1
 867.81 0 l 1,10,-1
 1106.7 1229 l 1,11,-1
 895.604 1068.98 l 1,12,-1
 719.498 163 l 1,13,14
 571.026 -29 571.026 -29 343.327 -29 c 0,15,16
 115.626 -29 115.626 -29 42.0537 162 c 0,17,18
 -31.5186 353 -31.5186 353 44.6777 745 c 0,0,1
784.486 1215 m 1,19,20
 751.145 1356 751.145 1356 612.544 1356 c 0,21,22
 474.843 1356 474.843 1356 386.686 1215 c 0,23,24
 298.528 1074 298.528 1074 234.577 745 c 0,25,26
 170.82 417 170.82 417 204.162 276 c 0,27,28
 237.505 135 237.505 135 375.206 135 c 0,29,30
 513.806 135 513.806 135 601.866 275.5 c 1,31,-1
 784.486 1215 l 1,19,20
EndSplineSet
EndChar
StartChar: uni01A3
Encoding: 419 419 419
Width: 1233
Flags: W
LayerCount: 2
Fore
SplineSet
125.062 559 m 0,0,1
 209.882 995.367 209.882 995.367 481.857 1110.07 c 0,2,3
 569.433 1147 569.433 1147 670.457 1147 c 0,4,5
 880.157 1147 880.157 1147 961.955 996 c 1,6,-1
 953.71 953.469 l 1,7,-1
 1101.41 1063 l 1,8,-1
 1331.8 1063 l 1,9,-1
 1041.59 -430 l 1,10,-1
 866.091 -430 l 1,11,-1
 1104.98 799 l 1,12,-1
 893.334 642.036 l 1,13,-1
 792.419 121.5 l 1,14,15
 652.466 -29 652.466 -29 441.865 -29 c 0,16,17
 207.42 -29 207.42 -29 133.508 158.794 c 0,18,19
 75.7803 305.47 75.7803 305.47 125.062 559 c 0,0,1
300.562 559 m 0,20,21
 223.692 163.542 223.692 163.542 432.927 129.973 c 0,22,23
 451.455 127 451.455 127 472.188 127 c 0,24,25
 599.089 127 599.089 127 685.174 236.5 c 1,26,-1
 810.646 882 l 1,27,28
 767.033 991 767.033 991 640.134 991 c 0,29,30
 433.601 991 433.601 991 338.111 705.021 c 0,31,32
 316.175 639.325 316.175 639.325 300.562 559 c 0,20,21
EndSplineSet
EndChar
StartChar: uni01A4
Encoding: 420 420 420
Width: 1233
Flags: W
LayerCount: 2
Fore
SplineSet
1235.66 1047 m 0,0,1
 1168.08 699.302 1168.08 699.302 840.66 621.5 c 0,2,3
 750.181 600 750.181 600 640.773 600 c 2,4,-1
 547.273 600 l 1,5,-1
 430.646 0 l 1,6,-1
 228.646 0 l 1,7,-1
 486.588 1327 l 1,8,9
 433.082 1327 433.082 1327 363.952 1280 c 0,10,11
 308.065 1242 308.065 1242 285.906 1128 c 2,12,-1
 276.382 1079 l 1,13,-1
 120.382 1079 l 1,14,-1
 133.988 1149 l 2,15,16
 169.173 1330.01 169.173 1330.01 281.013 1411.5 c 0,17,18
 392.865 1493 392.865 1493 518.854 1493 c 2,19,-1
 814.354 1493 l 2,20,21
 1220.45 1493 1220.45 1493 1246.03 1201.43 c 0,22,23
 1252.14 1131.77 1252.14 1131.77 1235.66 1047 c 0,0,1
673.04 766 m 2,24,25
 884.133 766 884.133 766 978.053 923.011 c 0,26,27
 1011.4 978.752 1011.4 978.752 1024.66 1047 c 0,28,29
 1050.51 1180 1050.51 1180 986.801 1253.5 c 0,30,31
 923.088 1327 923.088 1327 782.088 1327 c 2,32,-1
 688.588 1327 l 1,33,-1
 579.54 766 l 1,34,-1
 673.04 766 l 2,24,25
EndSplineSet
EndChar
StartChar: uni01A5
Encoding: 421 421 421
Width: 1233
Flags: W
LayerCount: 2
Fore
SplineSet
385.886 559 m 0,0,1
 312.951 183.785 312.951 183.785 511.823 134.103 c 0,2,3
 540.254 127 540.254 127 573.913 127 c 0,4,5
 706.913 127 706.913 127 795.601 236 c 0,6,7
 884.288 345 884.288 345 925.886 559 c 0,8,9
 1007.1 976.831 1007.1 976.831 758.507 990.55 c 0,10,11
 750.354 991 750.354 991 741.857 991 c 0,12,13
 527.464 991 527.464 991 428.773 718.5 c 0,14,15
 403.121 647.67 403.121 647.67 385.886 559 c 0,0,1
467.137 977 m 1,16,17
 589.597 1140.59 589.597 1140.59 784.923 1146.78 c 0,18,19
 791.991 1147 791.991 1147 799.181 1147 c 0,20,21
 1002.18 1147 1002.18 1147 1087.16 990 c 0,22,23
 1172.15 833 1172.15 833 1118.11 555 c 0,24,25
 1065.04 282 1065.04 282 918.815 126.5 c 0,26,27
 772.59 -29 772.59 -29 570.59 -29 c 0,28,29
 468.59 -29 468.59 -29 400.545 14.5 c 0,30,31
 332.501 58 332.501 58 304.635 141 c 1,32,-1
 194.421 -426 l 1,33,-1
 9.4209 -426 l 1,34,-1
 291.661 1026 l 2,35,36
 350.379 1328.08 350.379 1328.08 568.877 1407.29 c 0,37,38
 637.042 1432 637.042 1432 714.579 1432 c 2,39,-1
 919.579 1432 l 1,40,-1
 889.256 1276 l 1,41,-1
 704.256 1276 l 2,42,43
 535.71 1276 535.71 1276 482.948 1055.12 c 0,44,45
 479.58 1041.02 479.58 1041.02 476.661 1026 c 2,46,-1
 467.137 977 l 1,16,17
EndSplineSet
EndChar
StartChar: uni01A6
Encoding: 422 422 422
Width: 1233
Flags: W
LayerCount: 2
Fore
SplineSet
726.275 441 m 1,0,1
 800.388 421 800.388 421 844.121 366.101 c 0,2,3
 887.854 311.202 887.854 311.202 938.544 144 c 2,3,-1
 1062.24 -264 l 1,4,-1
 845.237 -264 l 1,5,-1
 740.519 113 l 1,6,7
 694.813 274 694.813 274 642.353 320.5 c 128,-1,8
 589.891 367 589.891 367 490.891 367 c 2,9,-1
 297.891 367 l 1,10,-1
 226.554 0 l 1,11,-1
 23.5537 0 l 1,12,-1
 313.763 1493 l 1,13,-1
 516.763 1493 l 1,0,0
 465.446 1229 l 1,0,0
 678.446 1229 l 2,14,15
 924.446 1229 924.446 1229 1033.87 1118 c 128,-1,16
 1113.56 1037.16 1113.56 1037.16 1113.56 903.802 c 0,0,0
 1113.56 686.768 1113.56 686.768 975.031 555.5 c 128,-1,19
 876.357 462 876.357 462 726.275 441 c 1,0,1
433.18 1063 m 1,20,-1
 330.158 533 l 1,21,-1
 551.158 533 l 2,22,23
 838.158 533 838.158 533 889.475 797 c 0,25,26
 896.68 834.069 896.68 834.069 896.68 866.143 c 0,0,0
 896.68 945.684 896.68 945.684 852.364 994.5 c 128,-1,27
 790.18 1063 790.18 1063 646.18 1063 c 2,28,-1
 433.18 1063 l 1,20,-1
EndSplineSet
EndChar
StartChar: uni01A7
Encoding: 423 423 423
Width: 1233
Flags: W
LayerCount: 2
Fore
SplineSet
360.386 1442 m 1,0,-1
 472.967 1481 472.967 1481 571.757 1500.5 c 128,-1,39
 670.548 1520 670.548 1520 756.548 1520 c 0,37,38
 979.548 1520 979.548 1520 1090.62 1399.5 c 128,-1,36
 1201.7 1279 1201.7 1279 1162.83 1079 c 0,34,35
 1131.72 919 1131.72 919 1019.26 824 c 128,-1,33
 906.793 729 906.793 729 689.657 682 c 2,31,32
 576.797 657 l 2,30,-1
 425.577 625 425.577 625 355.608 566 c 128,-1,29
 285.641 507 285.641 507 263.87 395 c 0,27,28
 239.961 272 239.961 272 311.646 203.5 c 128,-1,26
 383.331 135 383.331 135 536.331 135 c 0,24,25
 640.331 135 640.331 135 749.439 169 c 128,-1,23
 858.549 203 858.549 203 987.738 276 c 1,21,22
 945.946 61 l 1,20,-1
 830.199 16 830.199 16 719.826 -6.5 c 128,-1,19
 609.452 -29 609.452 -29 504.452 -29 c 0,17,18
 252.452 -29 252.452 -29 142.223 83 c 128,-1,16
 31.9932 195 31.9932 195 73.3965 408 c 0,14,15
 108.579 589 108.579 589 224.989 694 c 128,-1,13
 341.399 799 341.399 799 560.924 848 c 2,11,12
 671.589 872 l 2,10,-1
 827.393 907 827.393 907 892 959 c 128,-1,9
 956.608 1011 956.608 1011 975.852 1110 c 0,7,8
 997.816 1223 997.816 1223 927.743 1289.5 c 128,-1,6
 857.669 1356 857.669 1356 714.669 1356 c 0,4,5
 620.669 1356 620.669 1356 522.338 1326 c 128,-1,3
 424.007 1296 424.007 1296 320.538 1237 c 1,1,2
 360.386 1442 l 1,0,-1
EndSplineSet
EndChar
StartChar: uni01A8
Encoding: 424 424 424
Width: 1233
Flags: W
LayerCount: 2
Fore
SplineSet
371.467 1081 m 1,0,-1
 457.881 1114 457.881 1114 544.088 1130.5 c 128,-1,39
 630.296 1147 630.296 1147 720.296 1147 c 0,37,38
 922.296 1147 922.296 1147 1014.29 1059.5 c 128,-1,36
 1106.28 972 1106.28 972 1074.98 811 c 0,34,35
 1050.3 684 1050.3 684 963.011 610.5 c 128,-1,33
 875.724 537 875.724 537 710.698 506 c 2,31,32
 638.977 492 l 1,30,-1
 630.588 490 l 2,29,-1
 376.063 441 376.063 441 351.183 313 c 0,27,28
 333.883 224 333.883 224 391.261 174.5 c 128,-1,26
 448.639 125 448.639 125 570.639 125 c 0,24,25
 654.639 125 654.639 125 753.79 151.5 c 128,-1,23
 852.941 178 852.941 178 966.243 231 c 1,21,22
 929.311 41 l 1,20,-1
 816.508 6 816.508 6 722.106 -11.5 c 128,-1,19
 627.704 -29 627.704 -29 544.704 -29 c 0,17,18
 334.704 -29 334.704 -29 234.879 64.5 c 128,-1,16
 135.054 158 135.054 158 167.32 324 c 0,14,15
 191.618 449 191.618 449 277.28 527 c 128,-1,13
 362.941 605 362.941 605 504.995 631 c 2,11,12
 581.717 645 l 2,10,-1
 771.52 680 771.52 680 824.712 717 c 128,-1,9
 877.904 754 877.904 754 892.482 829 c 0,7,8
 908.616 912 908.616 912 854.988 952.5 c 128,-1,6
 801.361 993 801.361 993 676.361 993 c 0,4,5
 593.361 993 593.361 993 508.891 970 c 128,-1,3
 424.42 947 424.42 947 336.479 901 c 1,1,2
 371.467 1081 l 1,0,-1
EndSplineSet
EndChar
StartChar: uni01AA
Encoding: 426 426 426
Width: 1233
Flags: W
LayerCount: 2
Fore
SplineSet
707.76 1284 m 1,0,-1
 709.48 1329.16 709.48 1329.16 695.978 1352 c 1,7,8
 672.308 1400 672.308 1400 562.308 1400 c 0,5,6
 438.331 1400 438.331 1400 422.673 1335 c 0,3,4
 409.76 1284 409.76 1284 528.76 1284 c 2,1,2
 707.76 1284 l 1,0,-1
874.825 1130 m 1,9,-1
 635.875 -89 l 1,33,-1
 615.757 -192.5 615.757 -192.5 646.885 -233 c 0,31,32
 676.146 -273 676.146 -273 776.109 -273 c 2,29,30
 952.109 -273 l 1,28,-1
 922.369 -426 l 1,27,-1
 748.369 -426 l 2,26,-1
 553.843 -426 553.843 -426 489.086 -340 c 0,24,25
 419.872 -248.5 419.872 -248.5 454.957 -68 c 2,22,23
 687.825 1130 l 1,21,-1
 497.825 1130 l 2,20,-1
 227.825 1130 227.825 1130 268.645 1340 c 0,18,19
 310.631 1556 310.631 1556 613.631 1556 c 0,16,17
 794.131 1556 794.131 1556 857.971 1460 c 0,14,15
 898.775 1396.14 898.775 1396.14 894.954 1285 c 1,12,13
 1085.95 1285 l 1,11,-1
 1055.83 1130 l 1,10,-1
 874.825 1130 l 1,9,-1
EndSplineSet
EndChar
StartChar: uni01AB
Encoding: 427 427 427
Width: 1233
Flags: W
LayerCount: 2
Fore
SplineSet
795.162 1438 m 1,0,-1
 733.35 1120 l 1,1,-1
 1151.35 1120 l 1,2,-1
 1123.55 977 l 1,3,-1
 705.553 977 l 1,4,-1
 587.37 369 l 2,5,6
 563.267 245 563.267 245 600.742 196 c 0,7,8
 638.218 147 638.218 147 755.218 147 c 2,9,-1
 962.218 147 l 1,10,-1
 933.644 0 l 1,11,-1
 929.756 -20 l 2,12,13
 891.852 -215 891.852 -215 782.441 -320 c 0,14,15
 671.838 -426 671.838 -426 506.838 -426 c 2,16,-1
 301.838 -426 l 1,17,-1
 332.161 -270 l 1,18,-1
 517.161 -270 l 2,19,20
 607.161 -270 607.161 -270 664.213 -208 c 0,21,22
 720.264 -146 720.264 -146 744.756 -20 c 2,23,-1
 748.644 0 l 1,24,-1
 708.644 0 l 2,25,26
 501.644 0 501.644 0 432.777 83 c 0,27,28
 363.911 166 363.911 166 403.37 369 c 2,29,-1
 521.553 977 l 1,30,-1
 222.553 977 l 1,31,-1
 250.35 1120 l 1,32,-1
 549.35 1120 l 1,33,-1
 611.162 1438 l 1,34,-1
 795.162 1438 l 1,0,-1
EndSplineSet
EndChar
StartChar: uni01AC
Encoding: 428 428 428
Width: 1233
Flags: W
LayerCount: 2
Fore
SplineSet
565.838 1327 m 2,0,1
 436.556 1335.31 436.556 1335.31 355.202 1280 c 0,2,3
 299.315 1242 299.315 1242 277.156 1128 c 2,4,-1
 267.632 1079 l 1,5,-1
 111.632 1079 l 1,6,-1
 125.238 1149 l 2,7,8
 160.423 1330.01 160.423 1330.01 272.263 1411.5 c 0,9,10
 384.115 1493 384.115 1493 598.104 1493 c 2,11,-1
 1331.1 1493 l 1,12,-1
 1298.06 1323 l 1,13,-1
 831.061 1323 l 1,14,-1
 573.896 0 l 1,15,-1
 370.896 0 l 1,16,-1
 628.061 1323 l 1,17,-1
 565.838 1327 l 2,0,1
EndSplineSet
EndChar
StartChar: uni01AD
Encoding: 429 429 429
Width: 1233
Flags: W
LayerCount: 2
Fore
SplineSet
680.479 1120 m 1,0,-1
 1098.48 1120 l 1,1,-1
 1070.68 977 l 1,2,-1
 652.682 977 l 1,3,-1
 534.498 369 l 2,4,5
 510.396 245 510.396 245 547.871 196 c 0,6,7
 585.346 147 585.346 147 702.346 147 c 2,8,-1
 909.346 147 l 1,9,-1
 880.772 0 l 1,10,-1
 655.772 0 l 2,11,12
 448.772 0 448.772 0 379.905 83 c 0,13,14
 311.039 166 311.039 166 350.498 369 c 2,15,-1
 468.682 977 l 1,16,-1
 169.682 977 l 1,17,-1
 197.479 1120 l 1,18,-1
 495.479 1120 l 1,19,-1
 501.31 1150 l 2,20,21
 539.214 1345 539.214 1345 648.624 1450 c 0,22,23
 759.228 1556 759.228 1556 924.228 1556 c 2,24,-1
 1129.23 1556 l 1,25,-1
 1098.9 1400 l 1,26,-1
 913.904 1400 l 2,27,28
 823.904 1400 823.904 1400 766.853 1338 c 0,29,30
 710.802 1276 710.802 1276 686.31 1150 c 2,31,-1
 680.479 1120 l 1,0,-1
EndSplineSet
EndChar
StartChar: uni01AE
Encoding: 430 430 430
Width: 1233
Flags: W
LayerCount: 2
Fore
SplineSet
560.319 -117.301 m 0,0,1
 560.319 -270 560.319 -270 701.352 -270 c 2,2,-1
 886.352 -270 l 1,3,-1
 856.029 -426 l 1,4,-1
 633.029 -426 l 2,5,6
 468.029 -426 468.029 -426 398.634 -320 c 0,7,8
 354.456 -252.372 354.456 -252.372 354.456 -170.888 c 128,-1,9
 354.456 -89.4049 354.456 -89.4049 367.947 -20 c 2,10,-1
 629 1323 l 1,11,-1
 160 1323 l 1,12,-1
 193.045 1493 l 1,13,-1
 1332.05 1493 l 1,14,-1
 1299 1323 l 1,15,-1
 832 1323 l 1,16,-1
 570.947 -20 l 2,17,18
 560.319 -74.6762 560.319 -74.6762 560.319 -117.301 c 0,0,1
EndSplineSet
EndChar
StartChar: uni01B1
Encoding: 433 433 433
Width: 1233
Flags: W
LayerCount: 2
Fore
SplineSet
1300.9 1460 m 1,0,-1
 1267.46 1288 l 1,1,-1
 1022.46 1288 l 1,2,3
 1119.42 1154 1119.42 1154 1146.43 1010 c 128,-1,4
 1173.44 866 1173.44 866 1136.89 678 c 0,5,6
 1076.44 367 1076.44 367 896.771 183.5 c 128,-1,7
 717.103 0 717.103 0 477.103 0 c 0,8,9
 235.103 0 235.103 0 126.174 183 c 128,-1,10
 17.2451 366 17.2451 366 77.8926 678 c 0,11,12
 114.436 866 114.436 866 198.023 1010.5 c 128,-1,13
 281.611 1155 281.611 1155 430.464 1288 c 1,14,-1
 182.464 1288 l 1,15,-1
 215.897 1460 l 1,16,-1
 678.897 1460 l 1,17,-1
 645.464 1288 l 1,18,19
 510.691 1212 510.691 1212 411.716 1047.5 c 128,-1,20
 312.74 883 312.74 883 269.588 661 c 0,21,22
 224.88 431 224.88 431 289.125 298.5 c 128,-1,23
 353.369 166 353.369 166 507.369 166 c 0,24,25
 661.369 166 661.369 166 776.625 298.5 c 128,-1,26
 891.88 431 891.88 431 936.588 661 c 0,27,28
 979.74 883 979.74 883 944.716 1047.5 c 128,-1,29
 909.691 1212 909.691 1212 804.464 1288 c 1,30,-1
 837.897 1460 l 1,31,-1
 1300.9 1460 l 1,0,-1
EndSplineSet
EndChar
StartChar: uni01B2
Encoding: 434 434 434
Width: 1233
Flags: W
LayerCount: 2
Fore
SplineSet
360.396 0 m 0,0,1
 190.846 0 190.846 0 118.999 106 c 0,2,3
 49.8359 208.052 49.8359 208.052 88.3135 406 c 2,4,-1
 299.604 1493 l 1,5,-1
 502.604 1493 l 1,6,-1
 294.229 421 l 2,7,8
 269.737 295 269.737 295 301.686 233 c 0,9,10
 334.634 171 334.634 171 424.634 171 c 0,11,12
 578.634 171 578.634 171 693.89 303.5 c 0,13,14
 809.145 436 809.145 436 853.853 666 c 0,15,16
 897.005 888 897.005 888 861.98 1052.5 c 0,17,18
 826.956 1217 826.956 1217 721.729 1293 c 1,19,-1
 939.729 1293 l 1,20,21
 1036.68 1159 1036.68 1159 1063.69 1015 c 0,22,23
 1090.7 871 1090.7 871 1054.16 683 c 0,24,25
 993.705 372 993.705 372 814.036 188.5 c 0,26,27
 629.471 0 629.471 0 360.396 0 c 0,0,1
EndSplineSet
EndChar
StartChar: uni01B3
Encoding: 435 435 435
Width: 1233
Flags: W
LayerCount: 2
Fore
SplineSet
951.136 1140 m 2,0,-1
 613.584 670 l 1,1,-1
 483.349 0 l 1,2,-1
 300.648 0 l 1,3,-1
 430.884 670 l 1,4,-1
 161.559 1493 l 1,5,-1
 355.059 1493 l 1,6,-1
 554.562 834 l 1,7,-1
 831.306 1235 l 2,8,9
 969.615 1435.41 969.615 1435.41 1086.56 1477.12 c 0,10,11
 1136.71 1495 1136.71 1495 1181.65 1495 c 0,12,13
 1261.62 1495 1261.62 1495 1325.11 1438.37 c 2,14,-1
 1346.87 1418.96 l 1,15,-1
 1249.23 1284.73 l 1,16,-1
 1240.98 1293.95 l 2,17,18
 1213.6 1324.53 1213.6 1324.53 1173.57 1324.53 c 0,19,20
 1145.41 1324.53 1145.41 1324.53 1111 1309.41 c 0,21,22
 1055.18 1284.87 1055.18 1284.87 951.136 1140 c 2,0,-1
EndSplineSet
EndChar
StartChar: uni01B4
Encoding: 436 436 436
Width: 1233
Flags: W
LayerCount: 2
Fore
SplineSet
533.139 -104 m 2,0,1
 412.733 -306.508 412.733 -306.508 330.405 -365 c 0,2,3
 244.548 -426 244.548 -426 120.548 -426 c 2,4,-1
 -26.4521 -426 l 1,5,-1
 3.48242 -272 l 1,6,-1
 111.482 -272 l 2,7,8
 187.482 -272 187.482 -272 236.48 -236 c 0,9,10
 285.479 -200 285.479 -200 362.525 -66 c 2,11,-1
 411.854 18 l 1,12,-1
 173.061 1120 l 1,13,-1
 368.061 1120 l 1,14,-1
 547.783 244 l 1,15,-1
 962.655 943 l 2,16,17
 1037.47 1069.06 1037.47 1069.06 1126 1110.19 c 0,18,19
 1219.16 1153.47 1219.16 1153.47 1324.94 1112.04 c 2,20,-1
 1369.48 1094.59 l 1,21,-1
 1287.63 948 l 1,22,-1
 1261.43 958.261 l 2,23,24
 1182.99 988.981 1182.99 988.981 1146.74 928 c 2,25,-1
 533.139 -104 l 2,0,1
EndSplineSet
EndChar
StartChar: uni01B5
Encoding: 437 437 437
Width: 1233
Flags: W
LayerCount: 2
Fore
SplineSet
323.104 1493 m 1,0,-1
 1292.1 1493 l 1,1,-1
 1262.17 1339 l 1,2,-1
 752.093 747 l 1,3,-1
 984.098 747 l 1,4,-1
 951.053 577 l 1,5,-1
 686.053 577 l 1,6,-1
 605.617 577 l 1,7,-1
 254.939 170 l 1,8,-1
 1056.94 170 l 1,9,-1
 1023.9 0 l 1,10,-1
 10.8955 0 l 1,11,-1
 40.8301 154 l 1,12,-1
 397.694 577 l 1,13,-1
 218.053 577 l 1,14,-1
 251.098 747 l 1,15,-1
 541.116 747 l 1,16,-1
 1027.06 1323 l 1,17,-1
 290.061 1323 l 1,18,-1
 323.104 1493 l 1,0,-1
EndSplineSet
EndChar
StartChar: uni01B6
Encoding: 438 438 438
Width: 1233
Flags: W
LayerCount: 2
Fore
SplineSet
331.047 1122 m 1,0,-1
 1144.05 1122 l 1,1,-1
 1111.39 954 l 1,2,-1
 775.375 616 l 1,3,-1
 1087.44 616 l 1,4,-1
 1055.56 452 l 1,5,-1
 702.062 452 l 1,6,-1
 612.338 452 l 1,7,-1
 312.109 150 l 1,8,-1
 955.109 150 l 1,9,-1
 925.953 0 l 1,10,-1
 88.9531 0 l 1,11,-1
 121.997 170 l 1,12,-1
 402.062 452 l 1,13,-1
 135.062 452 l 1,14,-1
 166.94 616 l 1,15,-1
 564.937 616 l 1,16,-1
 921.474 975 l 1,17,-1
 302.474 975 l 1,18,-1
 331.047 1122 l 1,0,-1
EndSplineSet
EndChar
StartChar: uni01B7
Encoding: 439 439 439
Width: 1233
Flags: W
LayerCount: 2
Fore
SplineSet
169.672 435 m 1,0,1
 141.949 292.378 141.949 292.378 227.297 217 c 0,2,3
 312.217 142 312.217 142 501.719 142 c 0,4,5
 691.221 142 691.221 142 805.297 217 c 0,6,7
 919.949 292.378 919.949 292.378 947.672 435 c 0,8,9
 973.679 568.796 973.679 568.796 895.908 642 c 0,10,11
 817.293 716 817.293 716 652.293 716 c 2,12,-1
 478.293 716 l 1,13,-1
 510.56 882 l 1,14,-1
 966.281 1323 l 1,15,-1
 229.281 1323 l 1,16,-1
 262.326 1493 l 1,17,-1
 1231.33 1493 l 1,18,-1
 1198.67 1325 l 1,19,-1
 736.948 884 l 1,20,21
 841.627 884 841.627 884 960.063 828 c 0,22,23
 1050.29 785.337 1050.29 785.337 1114.71 677 c 0,24,25
 1175.5 573 1175.5 573 1148.67 435 c 0,26,27
 1105.71 214 1105.71 214 930.193 93 c 0,28,29
 754.674 -28 754.674 -28 474.674 -28 c 0,30,31
 182.674 -28 182.674 -28 54.1934 93 c 0,32,33
 -74.2861 214 -74.2861 214 -31.3281 435 c 1,34,-1
 169.672 435 l 1,0,1
EndSplineSet
EndChar
StartChar: uni01B8
Encoding: 440 440 440
Width: 1233
Flags: W
LayerCount: 2
Fore
SplineSet
947.672 435 m 1,0,-1
 1148.67 435 l 1,1,2
 1105.71 214 1105.71 214 930.193 93 c 0,3,4
 754.674 -28 754.674 -28 462.674 -28 c 0,5,6
 182.674 -28 182.674 -28 54.1934 93 c 0,7,8
 -74.2861 214 -74.2861 214 -31.3281 435 c 0,9,10
 -4.50391 573 -4.50391 573 96.7119 677 c 0,11,12
 203.247 785.337 203.247 785.337 310.063 828 c 0,13,14
 450.271 884 450.271 884 554.948 884 c 1,15,-1
 264.67 1325 l 1,16,-1
 297.326 1493 l 1,17,-1
 1266.33 1493 l 1,18,-1
 1233.28 1323 l 1,19,-1
 496.281 1323 l 1,20,-1
 780.56 882 l 1,21,-1
 748.293 716 l 1,22,-1
 574.293 716 l 2,23,24
 409.293 716 409.293 716 301.908 642 c 0,25,26
 195.679 568.796 195.679 568.796 169.672 435 c 0,27,28
 141.949 292.378 141.949 292.378 227.297 217 c 0,29,30
 312.217 142 312.217 142 501.719 142 c 0,31,32
 691.221 142 691.221 142 805.297 217 c 0,33,34
 919.949 292.378 919.949 292.378 947.672 435 c 1,0,-1
EndSplineSet
EndChar
StartChar: uni01B9
Encoding: 441 441 441
Width: 1233
Flags: W
LayerCount: 2
Fore
SplineSet
676.094 476 m 1,0,0
 450.144 952 l 1,2,-1
 515.456 1120 l 1,1,-1
 1389.46 1120 l 1,0,-1
 1332.3 973 l 1,9,-1
 665.308 973 l 1,8,-1
 901.316 474 l 1,0,0
 836.782 308 l 1,20,-1
 662.782 308 l 2,19,-1
 497.782 308 497.782 308 376.014 234 c 128,-1,18
 254.857 159 254.857 159 203.541 27 c 0,16,17
 147.948 -116 147.948 -116 218.791 -191 c 128,-1,15
 288.633 -266 288.633 -266 478.633 -266 c 0,13,14
 587.633 -266 587.633 -266 697.354 -241 c 128,-1,12
 807.072 -216 807.072 -216 910.12 -167 c 1,10,11
 834.312 -362 l 1,9,-1
 713.928 -399 713.928 -399 606.542 -418 c 128,-1,8
 500.544 -436 500.544 -436 406.544 -436 c 0,6,7
 126.544 -436 126.544 -436 21.584 -315 c 128,-1,5
 -83.375 -194 -83.375 -194 2.54102 27 c 0,3,4
 56.1895 165 56.1895 165 177.621 269 c 128,-1,2
 305.996 378 305.996 378 420.323 420 c 0,0,1
 570.094 476 570.094 476 676.094 476 c 1,0,0
EndSplineSet
EndChar
StartChar: uni01BA
Encoding: 442 442 442
Width: 1233
Flags: W
LayerCount: 2
Fore
SplineSet
472 -274 m 0,0,1
 556 -274 556 -274 637 -253 c 0,2,3
 720 -232 720 -232 810 -188 c 1,4,-1
 775 -367 l 1,5,6
 681 -399 681 -399 599 -412 c 0,7,8
 510 -426 510 -426 413 -426 c 16,9,10
 -18 -426 -18 -426 -18 -199 c 0,11,12
 -18 -174 -18 -174 -12 -145 c 0,13,14
 34 93 34 93 450 146 c 0,15,16
 742 183 742 183 761 281 c 0,17,18
 763 293 763 293 763 303 c 0,19,20
 763 405 763 405 550 405 c 2,21,-1
 260 405 l 9,22,-1
 855 973 l 1,23,-1
 188 973 l 1,24,-1
 217 1120 l 1,25,-1
 1091 1120 l 1,26,-1
 1058 952 l 1,27,-1
 624 540 l 17,28,29
 951 540 951 540 951 358 c 0,30,31
 951 336 951 336 947 311 c 0,32,33
 893 35 893 35 419 -14 c 0,34,35
 189 -38 189 -38 170 -135 c 0,36,37
 168 -146 168 -146 168 -155 c 0,38,39
 168 -274 168 -274 472 -274 c 0,0,1
EndSplineSet
EndChar
StartChar: uni01BB
Encoding: 443 443 443
Width: 1233
Flags: W
LayerCount: 2
Fore
SplineSet
292.485 1421 m 1,0,1
 519.831 1520 519.831 1520 710.729 1520 c 0,2,3
 929.729 1520 929.729 1520 1040.58 1403.5 c 0,4,5
 1151.44 1287 1151.44 1287 1114.7 1098 c 0,6,7
 1096.04 1002 1096.04 1002 1032.88 906 c 0,8,9
 984.471 832.421 984.471 832.421 901.075 747 c 1,10,-1
 981.473 747 l 1,11,-1
 948.429 577 l 1,12,-1
 718.804 577 l 1,13,-1
 649.683 514 l 1,14,-1
 258.315 170 l 1,15,-1
 944.315 170 l 1,16,-1
 911.271 0 l 1,17,-1
 4.27051 0 l 1,18,-1
 37.3154 170 l 1,19,-1
 497.937 577 l 1,20,-1
 215.429 577 l 1,21,-1
 248.473 747 l 1,22,-1
 682.469 747 l 1,23,24
 812.259 876.914 812.259 876.914 859.379 961.254 c 0,25,26
 892.72 1020.93 892.72 1020.93 904.785 1083 c 0,27,28
 940.769 1268.12 940.769 1268.12 802.338 1327.55 c 0,29,30
 750.039 1350 750.039 1350 681.685 1350 c 0,31,32
 501.014 1350 501.014 1350 252.832 1217 c 1,33,-1
 292.485 1421 l 1,0,1
EndSplineSet
EndChar
StartChar: uni01BC
Encoding: 444 444 444
Width: 1233
Flags: W
LayerCount: 2
Fore
SplineSet
501.219 142 m 0,0,1
 817.162 142 817.162 142 916.708 341.035 c 0,2,3
 938.298 384.204 938.298 384.204 948.172 435 c 0,4,5
 974.219 569 974.219 569 896.408 642 c 0,6,7
 816.793 716 816.793 716 652.793 716 c 2,8,-1
 211.793 716 l 1,9,-1
 362.826 1493 l 1,10,-1
 1286.83 1493 l 1,11,-1
 1253.78 1323 l 1,12,-1
 532.781 1323 l 1,13,-1
 447.448 884 l 1,14,-1
 737.448 884 l 2,15,16
 842.127 884 842.127 884 960.563 828 c 0,17,18
 1050.79 785.337 1050.79 785.337 1115.21 677 c 0,19,20
 1175.5 575.605 1175.5 575.605 1148.17 435 c 0,21,22
 1105.21 214 1105.21 214 929.693 93 c 0,23,24
 754.174 -28 754.174 -28 474.174 -28 c 0,25,26
 44.1729 -28 44.1729 -28 -28.5098 227.914 c 0,27,28
 -54.3779 318.993 -54.3779 318.993 -31.8281 435 c 1,29,-1
 170.172 435 l 1,30,31
 134.978 253.939 134.978 253.939 279.045 182.831 c 0,32,33
 361.771 142 361.771 142 501.219 142 c 0,0,1
EndSplineSet
EndChar
StartChar: uni01BD
Encoding: 445 445 445
Width: 1233
Flags: W
LayerCount: 2
Fore
SplineSet
399.816 -266 m 0,0,1
 711.098 -266 711.098 -266 812.205 -70.9238 c 0,2,3
 835.456 -26.0635 835.456 -26.0635 845.771 27 c 0,4,5
 871.777 160.796 871.777 160.796 794.007 234 c 0,6,7
 715.391 308 715.391 308 550.391 308 c 2,8,-1
 250.391 308 l 1,9,-1
 408.228 1120 l 1,10,-1
 1160.23 1120 l 1,11,-1
 1124.46 936 l 1,12,-1
 556.462 936 l 1,13,-1
 466.758 474.513 l 1,14,-1
 635.047 476 l 2,15,16
 737.82 476.908 737.82 476.908 858.162 420 c 0,17,18
 948.397 377.329 948.397 377.329 1012.81 269 c 0,19,20
 1073.59 165 1073.59 165 1046.77 27 c 0,21,22
 1003.81 -194 1003.81 -194 828.292 -315 c 0,23,24
 652.772 -436 652.772 -436 372.772 -436 c 0,25,26
 185.772 -436 185.772 -436 -11.8438 -362 c 1,27,-1
 26.0605 -167 l 1,28,29
 176.531 -266 176.531 -266 399.816 -266 c 0,0,1
EndSplineSet
EndChar
StartChar: uni01BE
Encoding: 446 446 446
Width: 1233
Flags: W
LayerCount: 2
Fore
SplineSet
793.392 439 m 0,0,1
 815.622 553.365 815.622 553.365 757.236 632.032 c 0,2,3
 686.754 727 686.754 727 513.374 727 c 2,4,-1
 451.374 727 l 1,5,-1
 504.051 998 l 1,6,-1
 275.051 998 l 1,7,-1
 306.929 1162 l 1,8,-1
 535.929 1162 l 1,9,-1
 589.578 1438 l 1,10,-1
 791.578 1438 l 1,11,-1
 737.929 1162 l 1,12,-1
 968.929 1162 l 1,13,-1
 937.051 998 l 1,14,-1
 706.051 998 l 1,15,-1
 681.753 873 l 1,16,17
 841.471 843.814 841.471 843.814 927.875 734.076 c 0,18,19
 1021.61 615.028 1021.61 615.028 987.392 439 c 0,20,21
 951.34 253.527 951.34 253.527 816.939 128 c 0,22,23
 648.842 -29 648.842 -29 374.422 -29 c 0,24,25
 203.402 -29 203.402 -29 65.0283 41 c 1,26,-1
 98.4619 213 l 1,27,28
 237.752 127 237.752 127 396.745 127 c 0,29,30
 575.262 127 575.262 127 696.904 241 c 0,31,32
 766.604 306.321 766.604 306.321 793.392 439 c 0,0,1
EndSplineSet
EndChar
StartChar: uni01BF
Encoding: 447 447 447
Width: 1233
Flags: W
LayerCount: 2
Fore
SplineSet
213 -122 m 1,0,-1
 154 -426 l 1,1,-1
 -31 -426 l 1,2,-1
 270 1120 l 1,3,-1
 455 1120 l 1,4,-1
 422 950 l 1,5,6
 490 1020 490 1020 638 1098 c 0,7,8
 728 1147 728 1147 938 1147 c 0,9,10
 1122 1147 1122 1147 1177 1035 c 0,11,12
 1214 961 1214 961 1214 870 c 0,13,14
 1214 822 1214 822 1204 769 c 0,15,16
 1121 344 1121 344 213 -122 c 1,0,-1
249 60 m 17,17,18
 953 460 953 460 1001 709 c 0,19,20
 1011 759 1011 759 1011 799 c 0,21,22
 1011 868 1011 868 983 908 c 0,23,24
 941 973 941 973 823 973 c 0,25,-1
 819 973 l 0,26,27
 599 973 599 973 380 734 c 1,28,29
 314 397 314 397 249 60 c 17,17,18
EndSplineSet
EndChar
StartChar: uni01C0
Encoding: 448 448 448
Width: 1233
Flags: W
LayerCount: 2
Fore
SplineSet
660.604 1493 m 1,0,-1
 862.604 1493 l 1,1,-1
 572.396 0 l 1,2,-1
 370.396 0 l 1,3,-1
 660.604 1493 l 1,0,-1
EndSplineSet
EndChar
StartChar: uni01C2
Encoding: 450 450 450
Width: 1233
Flags: W
LayerCount: 2
Fore
SplineSet
660.604 1493 m 1,0,-1
 862.604 1493 l 1,1,-1
 784.075 1089 l 1,2,-1
 1135.08 1089 l 1,3,-1
 1102.42 921 l 1,4,-1
 751.419 921 l 1,5,-1
 704.769 681 l 1,6,-1
 1055.77 681 l 1,7,-1
 1022.72 511 l 1,8,-1
 671.724 511 l 1,9,-1
 572.396 0 l 1,10,-1
 370.396 0 l 1,11,-1
 469.724 511 l 1,12,-1
 118.724 511 l 1,13,-1
 151.769 681 l 1,14,-1
 502.769 681 l 1,15,-1
 549.419 921 l 1,16,-1
 198.419 921 l 1,17,-1
 231.075 1089 l 1,18,-1
 582.075 1089 l 1,19,-1
 660.604 1493 l 1,0,-1
EndSplineSet
EndChar
StartChar: uni01F6
Encoding: 502 502 502
Width: 1233
Flags: W
LayerCount: 2
Fore
SplineSet
761.005 135 m 0,0,1
 814.949 135 814.949 135 855.668 214.362 c 0,2,3
 907.77 315.908 907.77 315.908 960.271 586 c 2,4,-1
 1017.61 881 l 1,5,-1
 1200.31 881 l 1,6,-1
 1138.11 561 l 2,7,8
 1065.52 187.567 1065.52 187.567 934.444 48 c 0,9,10
 862.127 -29 862.127 -29 729.127 -29 c 0,11,12
 600.846 -29 600.846 -29 544.913 53.5 c 0,13,14
 441.043 206.707 441.043 206.707 509.911 561 c 2,15,-1
 539.068 711 l 1,16,-1
 240.268 711 l 1,17,-1
 102.063 0 l 1,18,-1
 -80.6357 0 l 1,19,-1
 209.574 1493 l 1,20,-1
 392.273 1493 l 1,21,-1
 273.312 881 l 1,22,-1
 572.112 881 l 1,23,-1
 691.073 1493 l 1,24,-1
 873.773 1493 l 1,25,-1
 697.471 586 l 2,26,27
 644.382 312.882 644.382 312.882 699.286 174 c 0,28,29
 714.704 135 714.704 135 761.005 135 c 0,0,1
EndSplineSet
EndChar
StartChar: uni021C
Encoding: 540 540 540
Width: 1233
Flags: W
LayerCount: 2
Fore
SplineSet
1323 1200 m 0,0,1
 1323 1153 1323 1153 1313.5 1107 c 128,-1,2
 1304 1061 1304 1061 1288.5 1023.5 c 128,-1,3
 1273 986 1273 986 1250 949 c 128,-1,4
 1227 912 1227 912 1204 883.5 c 128,-1,5
 1181 855 1181 855 1151.5 826.5 c 128,-1,6
 1122 798 1122 798 1099 779 c 128,-1,7
 1076 760 1076 760 1047.5 740 c 128,-1,8
 1019 720 1019 720 1002.5 710 c 128,-1,9
 986 700 986 700 965.5 688 c 128,-1,10
 945 676 945 676 943 674 c 1,11,12
 1013 658 1013 658 1063 626.5 c 128,-1,13
 1113 595 1113 595 1138 553.5 c 128,-1,14
 1163 512 1163 512 1174 472 c 128,-1,15
 1185 432 1185 432 1185 388 c 0,16,17
 1185 129 1185 129 886 -92 c 128,-1,18
 587 -313 587 -313 34 -430 c 1,19,-1
 68 -270 l 1,20,21
 266 -219 266 -219 423.5 -156 c 128,-1,22
 581 -93 581 -93 683.5 -29.5 c 128,-1,23
 786 34 786 34 854 102 c 128,-1,24
 922 170 922 170 951 232.5 c 128,-1,25
 980 295 980 295 980 356 c 0,26,27
 980 441 980 441 932.5 490.5 c 128,-1,28
 885 540 885 540 793 545 c 128,-1,29
 701 550 701 550 565 496 c 2,30,-1
 387 424 l 1,31,-1
 423 595 l 1,32,-1
 694 701 l 2,33,34
 803 744 803 744 887 803 c 128,-1,35
 971 862 971 862 1019 925 c 128,-1,36
 1067 988 1067 988 1091 1050.5 c 128,-1,37
 1115 1113 1115 1113 1115 1173 c 0,38,39
 1115 1223 1115 1223 1094 1259.5 c 128,-1,40
 1073 1296 1073 1296 1037.5 1314.5 c 128,-1,41
 1002 1333 1002 1333 964 1341.5 c 128,-1,42
 926 1350 926 1350 884 1350 c 0,43,44
 699 1350 699 1350 418 1166 c 1,45,-1
 458 1356 l 1,46,47
 732 1520 732 1520 938 1520 c 0,48,49
 1109 1520 1109 1520 1216 1434 c 128,-1,50
 1323 1348 1323 1348 1323 1200 c 0,0,1
EndSplineSet
EndChar
StartChar: uni021D
Encoding: 541 541 541
Width: 1233
Flags: W
LayerCount: 2
Fore
SplineSet
880 461 m 1,0,1
 927 455 927 455 965.5 436.5 c 128,-1,2
 1004 418 1004 418 1028.5 392.5 c 128,-1,3
 1053 367 1053 367 1069.5 335.5 c 128,-1,4
 1086 304 1086 304 1092.5 273.5 c 128,-1,5
 1099 243 1099 243 1099 213 c 0,6,7
 1099 116 1099 116 1029 20 c 128,-1,8
 959 -76 959 -76 830 -160.5 c 128,-1,9
 701 -245 701 -245 508.5 -316 c 128,-1,10
 316 -387 316 -387 82 -433 c 1,11,-1
 110 -303 l 1,12,13
 526 -191 526 -191 722.5 -65 c 128,-1,14
 919 61 919 61 919 216 c 0,15,16
 919 286 919 286 872.5 328 c 128,-1,17
 826 370 826 370 746 370 c 0,18,19
 687 370 687 370 618 345 c 2,20,-1
 384 259 l 1,21,-1
 414 398 l 1,22,-1
 655 483 l 2,23,24
 833 547 833 547 928.5 650.5 c 128,-1,25
 1024 754 1024 754 1024 862 c 0,26,27
 1024 903 1024 903 1005.5 933.5 c 128,-1,28
 987 964 987 964 954.5 979.5 c 128,-1,29
 922 995 922 995 887.5 1002 c 128,-1,30
 853 1009 853 1009 813 1009 c 0,31,32
 745 1009 745 1009 654.5 979.5 c 128,-1,33
 564 950 564 950 398 860 c 1,34,-1
 431 1014 l 1,35,36
 725 1147 725 1147 859 1147 c 0,37,38
 958 1147 958 1147 1037 1118 c 128,-1,39
 1116 1089 1116 1089 1163.5 1031 c 128,-1,40
 1211 973 1211 973 1211 894 c 0,41,42
 1211 859 1211 859 1203.5 825.5 c 128,-1,43
 1196 792 1196 792 1185 764 c 128,-1,44
 1174 736 1174 736 1154.5 706.5 c 128,-1,45
 1135 677 1135 677 1118.5 655.5 c 128,-1,46
 1102 634 1102 634 1075.5 609 c 128,-1,47
 1049 584 1049 584 1032.5 569 c 128,-1,48
 1016 554 1016 554 987 533.5 c 128,-1,49
 958 513 958 513 946 504.5 c 128,-1,50
 934 496 934 496 908.5 479.5 c 128,-1,51
 883 463 883 463 880 461 c 1,0,1
EndSplineSet
EndChar
StartChar: uni0221
Encoding: 545 545 545
Width: 1233
Flags: W
LayerCount: 2
Fore
SplineSet
768.147 144 m 25,0,1
 776.186 126.045 776.186 126.045 842.843 127 c 0,2,3
 965.57 126.989 965.57 126.989 998.972 282 c 0,4,5
 1015.02 344 1015.02 344 951.023 344 c 128,-1,6
 887.023 344 887.023 344 768.147 144 c 25,0,1
730.074 406 m 2,7,8
 707.499 289.857 707.499 289.857 713.724 255 c 1,9,10
 874.903 498.729 874.903 498.729 979.347 500 c 0,11,12
 1143.74 502 1143.74 502 1101.36 284 c 0,13,14
 1040.52 -29 1040.52 -29 790.52 -29 c 0,15,16
 720.02 -29 720.02 -29 674.323 -12 c 1,17,18
 629.11 -90.5645 629.11 -90.5645 598.719 -148 c 1,19,-1
 479.655 -148 l 1,20,-1
 585.098 46 l 1,21,22
 556.079 59.1367 556.079 59.1367 534.925 148 c 2,23,-1
 526.116 185 l 1,24,25
 480.739 94.6191 480.739 94.6191 414.32 42 c 0,26,27
 323.278 -30.127 323.278 -30.127 223.229 -29 c 0,28,29
 60.6123 -27.168 60.6123 -27.168 -0.957031 128.5 c 0,30,31
 -63.251 286 -63.251 286 -9.40723 563 c 0,32,33
 43.6582 836 43.6582 836 167.192 991.5 c 128,-1,34
 290.726 1147 290.726 1147 451.82 1147 c 0,35,36
 532.368 1147 532.368 1147 585.32 1103.5 c 128,-1,37
 638.271 1060 638.271 1060 657.228 977 c 1,38,-1
 769.774 1556 l 1,39,-1
 953.612 1556 l 1,40,-1
 730.074 406 l 2,7,8
144.53 559 m 128,-1,42
 102.933 345 102.933 345 135.975 236 c 128,-1,43
 169.018 127 169.018 127 275.085 127 c 128,-1,44
 381.152 127 381.152 127 457.96 237 c 128,-1,45
 534.769 347 534.769 347 575.977 559 c 0,46,47
 617.38 772 617.38 772 583.238 881.5 c 128,-1,48
 549.097 991 549.097 991 443.029 991 c 128,-1,49
 336.962 991 336.962 991 261.545 882 c 128,-1,41
 186.127 773 186.127 773 144.53 559 c 128,-1,42
EndSplineSet
EndChar
StartChar: uni0224
Encoding: 548 548 548
Width: 1233
Flags: W
LayerCount: 2
Fore
SplineSet
364.508 1493 m 1,0,-1
 1333.51 1493 l 1,1,-1
 1303.57 1339 l 1,2,-1
 296.343 170 l 1,3,-1
 1098.34 170 l 1,4,-1
 1090.18 128 l 1,5,-1
 1091.18 128 l 1,6,-1
 1062.41 -20 l 2,7,8
 1024.51 -215 1024.51 -215 915.097 -320 c 0,9,10
 804.492 -426 804.492 -426 639.492 -426 c 2,11,-1
 434.492 -426 l 1,12,-1
 464.815 -270 l 1,13,-1
 649.815 -270 l 2,14,15
 739.815 -270 739.815 -270 796.867 -208 c 0,16,17
 852.919 -146 852.919 -146 877.41 -20 c 2,18,-1
 881.298 0 l 1,19,-1
 52.2979 0 l 1,20,-1
 82.2324 154 l 1,21,-1
 1068.46 1323 l 1,22,-1
 331.463 1323 l 1,23,-1
 364.508 1493 l 1,0,-1
EndSplineSet
EndChar
StartChar: uni0225
Encoding: 549 549 549
Width: 1233
Flags: W
LayerCount: 2
Fore
SplineSet
377.45 1122 m 1,0,-1
 1190.45 1122 l 1,1,-1
 1157.79 954 l 1,2,-1
 358.513 150 l 1,3,-1
 1001.51 150 l 1,4,-1
 972.355 0 l 1,5,-1
 964.355 0 l 1,6,-1
 960.468 -20 l 2,7,8
 922.563 -215 922.563 -215 813.154 -320 c 0,9,10
 702.55 -426 702.55 -426 537.55 -426 c 2,11,-1
 332.55 -426 l 1,12,-1
 362.873 -270 l 1,13,-1
 547.873 -270 l 2,14,15
 637.873 -270 637.873 -270 694.925 -208 c 0,16,17
 750.977 -146 750.977 -146 775.468 -20 c 2,18,-1
 779.355 0 l 1,19,-1
 135.355 0 l 1,20,-1
 168.4 170 l 1,21,-1
 967.876 975 l 1,22,-1
 348.876 975 l 1,23,-1
 377.45 1122 l 1,0,-1
EndSplineSet
EndChar
StartChar: uni0234
Encoding: 564 564 564
Width: 1233
Flags: W
LayerCount: 2
Fore
SplineSet
618.078 144 m 25,0,0
 626.117 126.045 626.117 126.045 692.773 127 c 0,1,2
 815.5 126.989 815.5 126.989 848.902 282 c 0,3,4
 864.954 344 864.954 344 800.954 344 c 128,-1,5
 736.954 344 736.954 344 618.078 144 c 25,0,0
524.255 -12 m 1,0,0
 479.041 -90.5645 479.041 -90.5645 448.649 -148 c 1,1,-1
 329.586 -148 l 1,2,-1
 435.028 46 l 1,3,4
 417.417 51.0107 417.417 51.0107 384.855 148 c 0,5,6
 360.156 221.572 360.156 221.572 396.006 406 c 2,7,-1
 593.69 1423 l 1,8,-1
 298.69 1423 l 1,9,-1
 326.681 1567 l 1,10,-1
 805.681 1567 l 1,11,-1
 580.006 406 l 2,12,13
 557.434 289.875 557.434 289.875 563.654 255 c 1,14,15
 724.834 498.729 724.834 498.729 829.277 500 c 0,16,17
 993.666 502 993.666 502 951.291 284 c 0,18,19
 890.45 -29 890.45 -29 640.45 -29 c 0,20,21
 569.95 -29 569.95 -29 524.255 -12 c 1,0,0
EndSplineSet
EndChar
StartChar: uni0235
Encoding: 565 565 565
Width: 1233
Flags: W
LayerCount: 2
Fore
SplineSet
750.896 144 m 25,0,0
 758.936 126.045 758.936 126.045 825.593 127 c 0,1,2
 948.321 126.989 948.321 126.989 981.723 282 c 0,3,4
 997.773 344 997.773 344 933.772 344 c 128,-1,5
 869.772 344 869.772 344 750.896 144 c 25,0,0
696.824 406 m 2,7,-1
 674.719 292.275 674.719 292.275 687.724 246 c 1,8,9
 858.54 497.749 858.54 497.749 962.097 500 c 0,10,11
 1121.75 501.942 1121.75 501.942 1086.29 295.941 c 0,12,13
 1085.28 290.058 1085.28 290.058 1084.11 284 c 0,14,15
 1023.72 -28.001 1023.72 -28.001 773.269 -29 c 0,16,17
 702.769 -29 702.769 -29 657.073 -12 c 1,18,19
 611.86 -90.5645 611.86 -90.5645 581.469 -148 c 1,20,-1
 462.404 -148 l 1,21,-1
 567.848 46 l 1,22,23
 550.235 51.0107 550.235 51.0107 517.675 148 c 0,24,25
 492.976 221.572 492.976 221.572 528.824 406 c 2,26,-1
 574.504 641 l 2,27,28
 620.567 877.979 620.567 877.979 605.249 935.5 c 128,-1,29
 589.926 993 589.926 993 499.926 993 c 0,30,31
 426.926 993 426.926 993 386.472 931.5 c 128,-1,32
 346.017 870 346.017 870 301.504 641 c 2,33,-1
 176.906 0 l 1,34,-1
 9.90625 0 l 1,35,-1
 227.612 1120 l 1,36,-1
 394.612 1120 l 1,37,-1
 375.951 1024 l 1,38,39
 420.614 1084 420.614 1084 476.237 1115.5 c 128,-1,40
 531.86 1147 531.86 1147 594.86 1147 c 0,41,42
 728.098 1147 728.098 1147 765.048 1042.5 c 0,43,44
 800.86 941.217 800.86 941.217 744.059 649 c 2,45,-1
 696.824 406 l 2,7,-1
EndSplineSet
EndChar
StartChar: uni0236
Encoding: 566 566 566
Width: 1233
Flags: W
LayerCount: 2
Fore
SplineSet
605.615 144 m 25,0,0
 613.654 126.045 613.654 126.045 680.311 127 c 0,1,2
 803.038 126.989 803.038 126.989 836.44 282 c 0,3,4
 852.491 344 852.491 344 788.491 344 c 128,-1,5
 724.491 344 724.491 344 605.615 144 c 25,0,0
567.543 406 m 2,5,6
 544.971 289.875 544.971 289.875 551.191 255 c 1,7,8
 712.372 498.729 712.372 498.729 816.814 500 c 0,9,10
 981.203 502 981.203 502 938.829 284 c 0,11,12
 877.987 -29 877.987 -29 627.987 -29 c 0,13,14
 557.487 -29 557.487 -29 511.792 -12 c 1,15,16
 466.579 -90.5645 466.579 -90.5645 436.188 -148 c 1,17,-1
 317.123 -148 l 1,18,-1
 422.566 46 l 1,19,20
 404.954 51.0107 404.954 51.0107 372.393 148 c 0,21,22
 347.694 221.572 347.694 221.572 383.543 406 c 2,23,-1
 494.534 977 l 1,24,-1
 195.534 977 l 1,25,-1
 223.331 1120 l 1,26,-1
 522.331 1120 l 1,27,-1
 584.144 1438 l 1,28,-1
 768.144 1438 l 1,29,-1
 706.331 1120 l 1,30,-1
 1124.33 1120 l 1,31,-1
 1096.53 977 l 1,32,-1
 678.534 977 l 1,33,-1
 567.543 406 l 2,5,6
EndSplineSet
EndChar
StartChar: dotlessj
Encoding: 567 567 567
Width: 1233
Flags: W
LayerCount: 2
Fore
SplineSet
498 -20 m 1,0,-1
 690 977 l 1,1,-1
 373 977 l 1,2,-1
 401 1120 l 1,3,-1
 903 1120 l 1,4,-1
 682 -20 l 1,5,6
 641 -233 641 -233 540 -329.5 c 128,-1,7
 439 -426 439 -426 258 -426 c 2,8,-1
 4 -426 l 1,9,-1
 35 -270 l 1,10,-1
 268 -270 l 2,11,12
 363 -270 363 -270 418 -210.5 c 128,-1,13
 473 -151 473 -151 498 -20 c 1,0,-1
EndSplineSet
EndChar
StartChar: uni0238
Encoding: 568 568 568
Width: 1233
Flags: W
LayerCount: 2
Fore
SplineSet
196.949 559 m 0,0,1
 155.352 345 155.352 345 174.965 236 c 0,2,3
 194.577 127 194.577 127 274.378 127 c 0,4,5
 354.178 127 354.178 127 417.26 237 c 0,6,7
 480.341 347 480.341 347 521.549 559 c 0,8,9
 562.952 772 562.952 772 542.537 881.5 c 0,10,11
 522.122 991 522.122 991 442.322 991 c 0,12,13
 362.521 991 362.521 991 300.534 882 c 0,14,15
 238.547 773 238.547 773 196.949 559 c 0,0,1
956.549 559 m 0,16,17
 998.146 773 998.146 773 978.534 882 c 0,18,19
 958.922 991 958.922 991 879.122 991 c 0,20,21
 798.722 991 798.722 991 736.036 881.5 c 0,22,23
 673.353 772 673.353 772 631.949 559 c 0,24,25
 590.741 347 590.741 347 610.759 237 c 0,26,27
 630.777 127 630.777 127 711.178 127 c 0,28,29
 790.978 127 790.978 127 852.965 236 c 0,30,31
 914.951 345 914.951 345 956.549 559 c 0,16,17
713.2 977 m 1,32,33
 755.539 1059 755.539 1059 810.592 1103 c 0,34,35
 865.645 1147 865.645 1147 926.845 1147 c 0,36,37
 1048.04 1147 1048.04 1147 1087.42 991.5 c 0,38,39
 1126.79 836 1126.79 836 1073.73 563 c 0,40,41
 1019.88 286 1019.88 286 919.368 128.5 c 0,42,43
 818.854 -29 818.854 -29 697.053 -29 c 0,44,45
 637.053 -29 637.053 -29 599.609 14.5 c 0,46,47
 562.164 58 562.164 58 550.698 141 c 1,48,-1
 523.291 0 l 1,49,-1
 412.891 0 l 1,50,-1
 440.298 141 l 1,51,52
 396.564 58 396.564 58 342.209 14.5 c 0,53,54
 287.854 -29 287.854 -29 227.854 -29 c 0,55,56
 106.054 -29 106.054 -29 66.7686 128.5 c 0,57,58
 27.4834 286 27.4834 286 81.3262 563 c 0,59,60
 134.393 836 134.393 836 234.818 991.5 c 0,61,62
 335.245 1147 335.245 1147 456.445 1147 c 0,63,64
 517.045 1147 517.045 1147 554.789 1103.5 c 0,65,66
 592.534 1060 592.534 1060 602.8 977 c 1,67,-1
 715.347 1556 l 1,68,-1
 825.747 1556 l 1,69,-1
 713.2 977 l 1,32,33
EndSplineSet
EndChar
StartChar: uni0239
Encoding: 569 569 569
Width: 1233
Flags: W
LayerCount: 2
Fore
SplineSet
1036.05 559 m 0,0,1
 1077.65 773 1077.65 773 1058.04 882 c 0,2,3
 1038.42 991 1038.42 991 958.623 991 c 0,4,5
 878.822 991 878.822 991 815.741 881 c 0,6,7
 752.673 771.023 752.673 771.023 711.468 559.087 c 0,8,9
 670.048 346 670.048 346 690.464 236.5 c 0,10,11
 710.878 127 710.878 127 790.679 127 c 0,12,13
 870.479 127 870.479 127 932.466 236 c 0,14,15
 994.453 345 994.453 345 1036.05 559 c 0,0,1
276.451 559 m 0,16,17
 234.854 345 234.854 345 254.466 236 c 0,18,19
 274.078 127 274.078 127 353.879 127 c 0,20,21
 434.278 127 434.278 127 496.964 236.5 c 0,22,23
 559.642 345.99 559.642 345.99 601.043 558.961 c 0,24,25
 642.259 771 642.259 771 622.241 881 c 0,26,27
 602.223 991 602.223 991 521.823 991 c 0,28,29
 442.022 991 442.022 991 380.035 882 c 0,30,31
 318.049 773 318.049 773 276.451 559 c 0,16,17
519.8 141 m 1,32,33
 477.461 59 477.461 59 422.408 15 c 0,34,35
 367.355 -29 367.355 -29 306.155 -29 c 0,36,37
 184.955 -29 184.955 -29 145.582 126.5 c 0,38,39
 106.207 282 106.207 282 159.273 555 c 0,40,41
 213.116 832 213.116 832 313.632 989.5 c 0,42,43
 414.147 1147 414.147 1147 535.947 1147 c 0,44,45
 595.947 1147 595.947 1147 633.391 1103.5 c 0,46,47
 670.836 1060 670.836 1060 682.302 977 c 1,48,-1
 709.709 1118 l 1,49,-1
 820.109 1118 l 1,50,-1
 792.702 977 l 1,51,52
 836.436 1060 836.436 1060 890.791 1103.5 c 0,53,54
 945.146 1147 945.146 1147 1005.15 1147 c 0,55,56
 1126.95 1147 1126.95 1147 1166.23 989.5 c 0,57,58
 1205.52 832 1205.52 832 1151.67 555 c 0,59,60
 1098.61 282 1098.61 282 998.182 126.5 c 0,61,62
 897.755 -29 897.755 -29 776.555 -29 c 0,63,64
 715.955 -29 715.955 -29 678.211 14.5 c 0,65,66
 640.466 58 640.466 58 630.2 141 c 1,67,-1
 517.653 -438 l 1,68,-1
 407.253 -438 l 1,69,-1
 519.8 141 l 1,32,33
EndSplineSet
EndChar
StartChar: uni023A
Encoding: 570 570 570
Width: 1233
Flags: W
LayerCount: 2
Fore
SplineSet
639.494 1493 m 1,0,-1
 884.494 1493 l 1,1,-1
 919.43 1180.28 l 1,2,-1
 1258.32 1559 l 1,3,-1
 1343.94 1485 l 1,4,-1
 936.287 1029.37 l 1,5,-1
 1051.28 0 l 1,6,-1
 842.284 0 l 1,7,-1
 807.897 389 l 1,8,-1
 363.346 389 l 1,9,-1
 197.295 203.407 l 1,10,-1
 101.284 0 l 1,11,-1
 15.3066 0 l 1,12,-1
 -47.3232 -70 l 1,13,-1
 -136.716 0 l 1,14,-1
 -70.9121 73.5381 l 1,15,-1
 639.494 1493 l 1,0,-1
508.287 551 m 1,16,-1
 791.388 551 l 1,17,-1
 766.979 840.138 l 1,18,-1
 508.287 551 l 1,16,-1
753.884 995.274 m 1,19,-1
 726.894 1315 l 1,20,-1
 375.547 572.469 l 1,21,-1
 753.884 995.274 l 1,19,-1
EndSplineSet
EndChar
StartChar: uni023B
Encoding: 571 571 571
Width: 1233
Flags: W
LayerCount: 2
Fore
SplineSet
323.099 513.5 m 1,0,0
 1043.08 1317.67 l 1,1,-1
 1026.64 1324 l 2,2,3
 947.863 1356 947.863 1356 861.863 1356 c 0,4,5
 664.863 1356 664.863 1356 537.317 1204 c 0,6,7
 409.771 1052 409.771 1052 350.098 745 c 0,8,9
 325.626 619.109 325.626 619.109 323.099 513.5 c 1,0,0
938.586 53 m 1,0,1
 853.616 12 853.616 12 768.632 -8.5 c 0,2,3
 683.646 -29 683.646 -29 592.646 -29 c 0,4,5
 305.646 -29 305.646 -29 186.606 174 c 2,6,-1
 180.539 184.679 l 1,7,-1
 -47.3232 -70 l 1,8,-1
 -136.716 0 l 1,9,-1
 134.296 302.865 l 1,10,11
 87.916 481.698 87.916 481.698 139.098 745 c 0,12,13
 210.24 1111 210.24 1111 409.491 1315.5 c 0,14,15
 608.742 1520 608.742 1520 893.742 1520 c 0,16,17
 984.742 1520 984.742 1520 1061.76 1499.5 c 0,18,19
 1117.45 1484.68 1117.45 1484.68 1168.96 1459.13 c 1,20,-1
 1258.32 1559 l 1,21,-1
 1343.94 1485 l 1,22,-1
 1181.69 1303.65 l 1,23,-1
 1167.57 1231 l 1,24,25
 1153.9 1244.41 1153.9 1244.41 1139.43 1256.42 c 1,26,-1
 335.825 358.241 l 1,27,28
 344.582 319.171 344.582 319.171 359.071 287 c 0,29,30
 427.525 135 427.525 135 624.525 135 c 0,31,32
 712.525 135 712.525 135 803.245 167 c 0,33,34
 893.966 199 893.966 199 978.822 260 c 1,35,-1
 938.586 53 l 1,0,1
EndSplineSet
EndChar
StartChar: uni023C
Encoding: 572 572 572
Width: 1233
Flags: W
LayerCount: 2
Fore
SplineSet
375.183 406 m 1,0,0
 961.467 973.363 l 1,1,2
 903.615 991 903.615 991 832.167 991 c 0,3,4
 659.167 991 659.167 991 544.396 879 c 0,5,6
 429.625 767 429.625 767 389.194 559 c 0,7,8
 373.042 475.901 373.042 475.901 375.183 406 c 1,0,0
963.615 57 m 1,0,1
 881.257 14 881.257 14 798.578 -7.5 c 0,2,3
 715.898 -29 715.898 -29 633.898 -29 c 0,4,5
 373.898 -29 373.898 -29 257.722 127 c 2,6,-1
 251.554 135.538 l 1,7,-1
 11.875 -96 l 1,8,-1
 -65.3516 -20 l 1,9,-1
 201.171 237.842 l 1,10,11
 158.535 370.406 158.535 370.406 195.194 559 c 0,12,13
 248.844 835 248.844 835 425.667 991 c 0,14,15
 602.49 1147 602.49 1147 862.49 1147 c 0,16,17
 943.49 1147 943.49 1147 1016.41 1126 c 0,18,19
 1053.95 1115.19 1053.95 1115.19 1090.58 1098.28 c 1,20,-1
 1208.12 1212 l 1,21,-1
 1286.16 1135 l 1,22,-1
 1147.03 1000.6 l 1,23,-1
 1121.26 868 l 1,24,25
 1093.4 897.999 1093.4 897.999 1063.94 920.331 c 1,26,-1
 400.073 279.013 l 1,27,28
 408.822 257.981 408.822 257.981 420.59 239.5 c 0,29,30
 492.222 127 492.222 127 664.222 127 c 0,31,32
 760.222 127 760.222 127 841.956 156.5 c 0,33,34
 923.69 186 923.69 186 1000.74 248 c 1,35,-1
 963.615 57 l 1,0,1
EndSplineSet
EndChar
StartChar: uni023D
Encoding: 573 573 573
Width: 1233
Flags: W
LayerCount: 2
Fore
SplineSet
433.104 1493 m 1,0,-1
 636.104 1493 l 1,1,-1
 491.098 747 l 1,2,-1
 754.098 747 l 1,3,-1
 721.053 577 l 1,4,-1
 458.053 577 l 1,5,-1
 378.939 170 l 1,6,-1
 1099.94 170 l 1,7,-1
 1066.9 0 l 1,8,-1
 142.896 0 l 1,9,-1
 255.053 577 l 1,10,-1
 -11.9473 577 l 1,11,-1
 21.0977 747 l 1,12,-1
 288.098 747 l 1,13,-1
 433.104 1493 l 1,0,-1
EndSplineSet
EndChar
StartChar: uni023E
Encoding: 574 574 574
Width: 1233
Flags: W
LayerCount: 2
Fore
SplineSet
762.057 976.296 m 1,0,0
 1072.31 1323 l 1,2,-1
 829.449 1323 l 1,1,-1
 762.057 976.296 l 1,0,0
502.766 686.702 m 1,0,-1
 626.449 1323 l 1,15,-1
 159.449 1323 l 1,14,-1
 192.494 1493 l 1,13,-1
 1224.26 1493 l 1,12,-1
 1283.32 1559 l 1,11,-1
 1368.94 1485 l 1,10,-1
 1319.11 1429.31 l 1,9,-1
 1298.45 1323 l 1,8,-1
 1224 1323 l 1,7,-1
 719.938 759.619 l 1,6,-1
 572.284 0 l 1,5,-1
 369.284 0 l 1,4,-1
 460.595 469.752 l 1,3,-1
 -22.3232 -70 l 1,2,-1
 -111.716 0 l 1,1,-1
 502.766 686.702 l 1,0,-1
EndSplineSet
EndChar
StartChar: uni023F
Encoding: 575 575 575
Width: 1233
Flags: W
LayerCount: 2
Fore
SplineSet
1119.85 1081 m 1,0,-1
 1084.87 901 l 1,1,2
 1014.81 947 1014.81 947 939.278 970 c 0,3,4
 863.749 993 863.749 993 780.749 993 c 0,5,6
 655.749 993 655.749 993 586.376 952.5 c 0,7,8
 517.004 912 517.004 912 500.87 829 c 0,9,10
 486.292 754 486.292 754 525.1 717 c 0,11,12
 563.908 680 563.908 680 740.104 645 c 2,13,-1
 811.383 631 l 2,14,15
 943.329 605 943.329 605 998.668 527 c 0,16,17
 1054.01 449 1054.01 449 1029.71 324 c 0,18,19
 997.441 158 997.441 158 861.267 64.5 c 0,20,21
 740.973 -18.0967 740.973 -18.0967 563.067 -27.7285 c 1,22,-1
 685.741 -180 l 1,23,-1
 808.249 -306 l 2,24,25
 843.251 -342 843.251 -342 919.251 -342 c 1,26,-1
 889.316 -496 l 1,27,-1
 850.316 -496 l 2,28,29
 766.336 -496 766.336 -496 664.174 -435 c 0,30,31
 600.122 -396.755 600.122 -396.755 529.249 -306 c 2,32,-1
 339.483 -63 l 2,33,34
 298.391 -10.3799 298.391 -10.3799 204.253 25.334 c 2,35,-1
 157.699 41 l 1,36,-1
 194.631 231 l 1,37,38
 318.338 235.665 318.338 235.665 421.647 139.602 c 1,39,40
 486.673 125 486.673 125 549.026 125 c 0,41,42
 671.026 125 671.026 125 747.648 174.5 c 0,43,44
 824.271 224 824.271 224 841.57 313 c 0,45,46
 866.451 441 866.451 441 630.976 490 c 2,47,-1
 623.364 492 l 1,48,-1
 557.086 506 l 2,49,50
 402.851 538.579 402.851 538.579 345.398 610.5 c 0,51,52
 286.686 684 286.686 684 311.372 811 c 0,53,54
 342.667 972 342.667 972 468.675 1059.5 c 0,55,56
 594.684 1147 594.684 1147 796.684 1147 c 0,57,58
 886.684 1147 886.684 1147 966.477 1130.5 c 0,59,60
 1046.27 1114 1046.27 1114 1119.85 1081 c 1,0,-1
EndSplineSet
EndChar
StartChar: uni0240
Encoding: 576 576 576
Width: 1233
Flags: W
LayerCount: 2
Fore
SplineSet
384.254 1122 m 1,0,-1
 1197.25 1122 l 1,1,-1
 1164.6 954 l 1,2,-1
 343.378 133.319 l 1,3,4
 389.038 115.589 389.038 115.589 414.487 84 c 2,5,-1
 627.171 -180 l 1,6,-1
 749.679 -306 l 2,7,8
 784.681 -342 784.681 -342 860.681 -342 c 2,9,-1
 912.681 -342 l 1,10,-1
 882.746 -496 l 1,11,-1
 791.746 -496 l 2,12,13
 707.766 -496 707.766 -496 605.604 -435 c 0,14,15
 541.552 -396.755 541.552 -396.755 470.679 -306 c 2,16,-1
 280.913 -63 l 2,17,18
 231.715 0 231.715 0 142.159 0 c 1,19,-1
 172.482 156 l 1,20,-1
 175.204 170 l 1,21,-1
 974.68 975 l 1,22,-1
 355.68 975 l 1,23,-1
 384.254 1122 l 1,0,-1
EndSplineSet
EndChar
StartChar: uni0241
Encoding: 577 577 577
Width: 1233
Flags: W
LayerCount: 2
Fore
SplineSet
486.588 1327 m 2,0,-1
 433.082 1327 433.082 1327 363.952 1280 c 0,31,32
 308.065 1242 308.065 1242 285.906 1128 c 2,33,-1
 276.382 1079 l 1,34,-1
 120.382 1079 l 1,35,-1
 133.988 1149 l 2,36,37
 169.173 1330.01 169.173 1330.01 281.013 1411.5 c 0,38,39
 392.863 1493 392.863 1493 518.854 1493 c 2,9,-1
 814.354 1493 l 2,10,11
 1064.35 1493 1064.35 1493 1171.29 1379.5 c 128,-1,12
 1278.23 1266 1278.23 1266 1235.66 1047 c 0,13,14
 1192.7 826 1192.7 826 1042.24 713 c 128,-1,15
 891.773 600 891.773 600 640.773 600 c 1,17,-1
 524.146 0 l 1,18,-1
 322.146 0 l 1,19,-1
 471.04 766 l 1,1,-1
 673.04 766 l 2,2,3
 813.04 766 813.04 766 905.925 840 c 128,-1,4
 998.809 914 998.809 914 1024.66 1047 c 0,5,6
 1050.51 1180 1050.51 1180 986.801 1253.5 c 128,-1,7
 923.088 1327 923.088 1327 782.088 1327 c 2,8,-1
 486.588 1327 l 2,0,-1
EndSplineSet
EndChar
StartChar: uni0243
Encoding: 579 579 579
Width: 1233
Flags: W
LayerCount: 2
Fore
SplineSet
483 1327 m 1,0,-1
 395 877 l 1,1,-1
 639 877 l 2,2,3
 790 877 790 877 876.5 949.5 c 128,-1,4
 963 1022 963 1022 963 1149 c 0,5,6
 963 1243 963 1243 907.5 1285 c 128,-1,7
 852 1327 852 1327 727 1327 c 2,8,-1
 483 1327 l 1,0,-1
313 1493 m 1,9,-1
 756 1493 l 2,10,11
 959 1493 959 1493 1063 1413.5 c 128,-1,12
 1167 1334 1167 1334 1167 1180 c 0,13,14
 1167 1026 1167 1026 1075 922.5 c 128,-1,15
 983 819 983 819 827 799 c 1,16,17
 952 776 952 776 1018.5 697 c 128,-1,18
 1085 618 1085 618 1085 494 c 0,19,20
 1085 260 1085 260 925.5 130 c 128,-1,21
 766 3.05176e-05 766 3.05176e-05 475 0 c 2,22,-1
 23 0 l 1,23,-1
 94.0918 366 l 1,24,-1
 -66 366 l 1,25,-1
 -37 515 l 1,26,-1
 123.033 515 l 1,27,-1
 313 1493 l 1,9,-1
297.122 366 m 1,28,-1
 258 166 l 1,29,-1
 506 166 l 2,30,31
 690 166 690 166 787.5 253 c 128,-1,32
 885 340 885 340 885 504 c 0,33,34
 885 611 885 611 817 662 c 128,-1,35
 749 713 749 713 606 713 c 2,36,-1
 365 713 l 1,37,-1
 326.269 515 l 1,38,-1
 559 515 l 1,39,-1
 530 366 l 1,40,-1
 297.122 366 l 1,28,-1
EndSplineSet
EndChar
StartChar: uni0244
Encoding: 580 580 580
Width: 1233
Flags: W
LayerCount: 2
Fore
SplineSet
80 317 m 0,0,1
 86 440 86 440 116 577 c 1,2,-1
 -9 577 l 1,3,-1
 24 747 l 1,4,-1
 149 747 l 1,5,-1
 293 1493 l 1,6,-1
 496 1493 l 1,7,-1
 351 747 l 1,8,-1
 884 747 l 1,9,-1
 1028 1493 l 1,10,-1
 1231 1493 l 1,11,-1
 1087 747 l 1,12,-1
 1215 747 l 1,13,-1
 1182 577 l 1,14,-1
 1054 577 l 1,15,16
 1011 355 1011 355 963.5 252 c 128,-1,17
 916 149 916 149 842 90 c 0,18,19
 693 -29 693 -29 490 -29 c 0,20,21
 287 -29 287 -29 183.5 61 c 128,-1,22
 80 151 80 151 80 317 c 0,0,1
279 319 m 0,23,24
 279 135 279 135 498 135 c 0,25,26
 670 135 670 135 756 254 c 0,27,28
 800 318 800 318 851 577 c 1,29,-1
 318 577 l 1,30,31
 284 413 284 413 279 319 c 0,23,24
EndSplineSet
EndChar
StartChar: uni0245
Encoding: 581 581 581
Width: 1233
Flags: W
LayerCount: 2
Fore
SplineSet
723 1303 m 1,0,-1
 125 0 l 1,1,-1
 -90 0 l 1,2,-1
 629 1493 l 1,3,-1
 887 1493 l 1,4,-1
 1034 0 l 1,5,-1
 836 0 l 1,6,-1
 723 1303 l 1,0,-1
EndSplineSet
EndChar
StartChar: uni024C
Encoding: 588 588 588
Width: 1233
Flags: W
LayerCount: 2
Fore
SplineSet
547 1327 m 1,0,-1
 445 797 l 1,1,-1
 590 797 l 2,2,3
 753 797 753 797 850.5 882.5 c 128,-1,4
 948 968 948 968 948 1110 c 0,5,6
 948 1222 948 1222 885 1274.5 c 128,-1,7
 822 1327 822 1327 686 1327 c 2,8,-1
 547 1327 l 1,0,-1
766 705 m 1,9,10
 838 691 838 691 881.5 638 c 128,-1,11
 925 585 925 585 979 408 c 2,12,-1
 1100 0 l 1,13,-1
 899 0 l 1,14,-1
 793 377 l 2,15,16
 749 533 749 533 694.5 582 c 128,-1,17
 640 631 640 631 530 631 c 2,18,-1
 412 631 l 1,19,-1
 289 0 l 1,20,-1
 86 0 l 1,21,-1
 208 631 l 1,22,-1
 -1 631 l 1,23,-1
 31 797 l 1,24,-1
 240 797 l 1,25,-1
 375 1493 l 1,26,-1
 717 1493 l 2,27,28
 924 1493 924 1493 1037.5 1403.5 c 128,-1,29
 1151 1314 1151 1314 1151 1151 c 0,30,31
 1151 968 1151 968 1047.5 848 c 128,-1,32
 944 728 944 728 766 705 c 1,9,10
EndSplineSet
EndChar
StartChar: uni024D
Encoding: 589 589 589
Width: 1233
Flags: W
LayerCount: 2
Fore
SplineSet
1184 889 m 1,0,1
 1094 977 1094 977 937 977 c 0,2,3
 780 977 780 977 673.5 873 c 128,-1,4
 567 769 567 769 524 616 c 1,5,-1
 1070 616 l 1,6,-1
 1038 452 l 1,7,-1
 489 452 l 1,8,-1
 401 0 l 1,9,-1
 217 0 l 1,10,-1
 305 452 l 1,11,-1
 118 452 l 1,12,-1
 150 616 l 1,13,-1
 336 616 l 1,14,-1
 434 1120 l 1,15,-1
 618 1120 l 1,16,-1
 578 901 l 1,17,18
 645 1021 645 1021 751.5 1084 c 128,-1,19
 858 1147 858 1147 997 1147 c 0,20,21
 1137 1147 1137 1147 1219 1075 c 1,22,-1
 1184 889 l 1,0,1
EndSplineSet
EndChar
StartChar: uni0250
Encoding: 592 592 592
Width: 1233
Flags: W
LayerCount: 2
Fore
SplineSet
509.723 555 m 1,0,-1
 570.723 555 l 2,1,2
 731.723 555 731.723 555 824.205 611.5 c 128,-1,3
 916.688 668 916.688 668 938.458 780 c 0,4,5
 958.091 881 958.091 881 907.976 937 c 128,-1,6
 857.861 993 857.861 993 749.861 993 c 0,7,8
 597.861 993 597.861 993 490.354 887.5 c 128,-1,9
 382.847 782 382.847 782 345.692 596 c 1,10,-1
 337.723 555 l 1,11,-1
 509.723 555 l 1,0,-1
137.949 479 m 2,12,-1
 262.158 1118 l 1,13,-1
 447.158 1118 l 1,14,-1
 414.892 952 l 1,15,16
 493.329 1052 493.329 1052 592.062 1099.5 c 128,-1,17
 690.796 1147 690.796 1147 818.796 1147 c 0,18,19
 989.796 1147 989.796 1147 1073.04 1050.5 c 128,-1,20
 1156.28 954 1156.28 954 1124.79 792 c 0,21,22
 1088.44 605 1088.44 605 944.087 508 c 128,-1,23
 799.731 411 799.731 411 556.731 411 c 2,24,-1
 309.731 411 l 1,25,-1
 304.095 382 l 1,26,27
 279.048 248 279.048 248 334.288 187.5 c 128,-1,28
 389.527 127 389.527 127 536.527 127 c 0,29,30
 630.527 127 630.527 127 731.776 154 c 128,-1,31
 833.024 181 833.024 181 934.132 233 c 1,32,-1
 898.366 49 l 1,33,34
 788.785 10 788.785 10 691.495 -9.5 c 128,-1,35
 594.204 -29 594.204 -29 506.204 -29 c 0,36,37
 367.204 -29 367.204 -29 276.674 12 c 128,-1,38
 186.144 53 186.144 53 141.083 135 c 0,39,40
 112.802 185 112.802 185 111.089 258.5 c 128,-1,41
 109.376 332 109.376 332 137.949 479 c 2,12,-1
EndSplineSet
EndChar
StartChar: uni0251
Encoding: 593 593 593
Width: 1233
Flags: W
LayerCount: 2
Fore
SplineSet
973.251 977 m 1,0,-1
 1000.27 1116 l 1,1,-1
 1184.27 1116 l 1,2,-1
 967.342 0 l 1,3,-1
 783.342 0 l 1,4,-1
 810.749 141 l 1,5,6
 748.615 58 748.615 58 663.66 14.5 c 128,-1,7
 578.704 -29 578.704 -29 478.704 -29 c 0,8,9
 275.704 -29 275.704 -29 189.819 128.5 c 128,-1,10
 103.935 286 103.935 286 157.777 563 c 0,11,12
 210.844 836 210.844 836 358.069 991.5 c 128,-1,13
 505.296 1147 505.296 1147 707.296 1147 c 0,14,15
 808.296 1147 808.296 1147 876.84 1103.5 c 128,-1,16
 945.385 1060 945.385 1060 973.251 977 c 1,0,-1
351 559 m 0,17,18
 309.402 345 309.402 345 356.215 236 c 128,-1,19
 403.027 127 403.027 127 536.027 127 c 0,20,21
 669.027 127 669.027 127 759.909 237 c 128,-1,22
 850.791 347 850.791 347 892 559 c 0,23,24
 933.403 772 933.403 772 885.188 881.5 c 128,-1,25
 836.973 991 836.973 991 703.973 991 c 0,26,27
 570.973 991 570.973 991 481.785 882 c 128,-1,28
 392.598 773 392.598 773 351 559 c 0,17,18
EndSplineSet
EndChar
StartChar: uni0252
Encoding: 594 594 594
Width: 1233
Flags: W
LayerCount: 2
Fore
SplineSet
259.749 141 m 1,0,-1
 232.73 2 l 1,1,-1
 48.7305 2 l 1,2,-1
 265.658 1118 l 1,3,-1
 449.658 1118 l 1,4,-1
 422.251 977 l 1,5,6
 484.385 1060 484.385 1060 569.34 1103.5 c 128,-1,7
 654.296 1147 654.296 1147 754.296 1147 c 0,8,9
 957.296 1147 957.296 1147 1043.18 989.5 c 128,-1,10
 1129.07 832 1129.07 832 1075.22 555 c 0,11,12
 1022.16 282 1022.16 282 874.931 126.5 c 128,-1,13
 727.704 -29 727.704 -29 525.704 -29 c 0,14,15
 424.704 -29 424.704 -29 356.16 14.5 c 128,-1,16
 287.615 58 287.615 58 259.749 141 c 1,0,-1
882 559 m 0,17,18
 923.598 773 923.598 773 876.785 882 c 128,-1,19
 829.973 991 829.973 991 696.973 991 c 0,20,21
 563.973 991 563.973 991 473.091 881 c 128,-1,22
 382.209 771 382.209 771 341 559 c 0,23,24
 299.597 346 299.597 346 347.812 236.5 c 128,-1,25
 396.027 127 396.027 127 529.027 127 c 0,26,27
 662.027 127 662.027 127 751.215 236 c 128,-1,28
 840.402 345 840.402 345 882 559 c 0,17,18
EndSplineSet
EndChar
StartChar: uni0253
Encoding: 595 595 595
Width: 1233
Flags: W
LayerCount: 2
Fore
SplineSet
842.249 559 m 0,0,1
 883.847 773 883.847 773 837.034 882 c 128,-1,2
 790.222 991 790.222 991 657.222 991 c 0,3,4
 523.222 991 523.222 991 432.937 881.5 c 128,-1,5
 342.652 772 342.652 772 301.249 559 c 0,6,7
 260.041 347 260.041 347 307.659 237 c 128,-1,8
 355.277 127 355.277 127 489.277 127 c 0,9,10
 622.277 127 622.277 127 711.465 236 c 128,-1,11
 800.652 345 800.652 345 842.249 559 c 0,0,1
383.524 977.125 m 1,13,-1
 443.808 1059.12 443.808 1059.12 528.492 1103 c 128,-1,14
 614.545 1147 614.545 1147 716.545 1147 c 0,15,16
 918.545 1147 918.545 1147 1004.32 991.5 c 128,-1,17
 1090.09 836 1090.09 836 1037.03 563 c 0,18,19
 983.184 286 983.184 286 836.068 128.5 c 128,-1,20
 688.953 -29 688.953 -29 485.953 -29 c 0,21,22
 385.953 -29 385.953 -29 317.909 14.5 c 128,-1,23
 249.864 58 249.864 58 219.998 141 c 1,24,-1
 192.591 0 l 1,25,-1
 8.59082 0 l 1,26,-1
 203.359 1002 l 1,27,-1
 232.128 1150 l 2,5,6
 270.032 1345 270.032 1345 379.442 1450 c 128,-1,7
 491.497 1556 491.497 1556 655.047 1556 c 2,8,-1
 860.047 1556 l 1,9,-1
 829.723 1400 l 1,10,-1
 644.723 1400 l 2,11,12
 554.726 1400 554.726 1400 497.672 1338 c 128,-1,13
 441.925 1277.57 441.925 1277.57 417.128 1150 c 2,0,-1
 383.524 977.125 l 1,13,-1
EndSplineSet
EndChar
StartChar: uni0254
Encoding: 596 596 596
Width: 1233
Flags: W
LayerCount: 2
Fore
SplineSet
281.079 1061 m 1,0,1
 363.438 1104 363.438 1104 446.116 1125.5 c 128,-1,2
 528.796 1147 528.796 1147 610.796 1147 c 0,3,4
 870.796 1147 870.796 1147 986.973 991 c 128,-1,5
 1103.15 835 1103.15 835 1049.5 559 c 0,6,7
 995.851 283 995.851 283 819.027 127 c 128,-1,8
 642.204 -29 642.204 -29 382.204 -29 c 0,9,10
 301.204 -29 301.204 -29 228.286 -8 c 128,-1,11
 155.368 13 155.368 13 85.9209 57 c 1,12,-1
 123.437 250 l 1,13,14
 183.802 185 183.802 185 251.665 156 c 128,-1,15
 319.527 127 319.527 127 412.527 127 c 0,16,17
 585.527 127 585.527 127 700.298 239 c 128,-1,18
 815.069 351 815.069 351 855.5 559 c 0,19,20
 895.736 766 895.736 766 824.104 878.5 c 128,-1,21
 752.473 991 752.473 991 580.473 991 c 0,22,23
 484.473 991 484.473 991 402.738 961.5 c 128,-1,24
 321.004 932 321.004 932 243.952 870 c 1,25,-1
 281.079 1061 l 1,0,1
EndSplineSet
EndChar
StartChar: uni0255
Encoding: 597 597 597
Width: 1233
Flags: W
LayerCount: 2
Fore
SplineSet
540.617 142.487 m 1,0,1
 597.367 123 597.367 123 671.702 123 c 0,2,3
 817.702 123 817.702 123 828.782 180 c 0,4,5
 842.361 255 842.361 255 711.36 255 c 0,6,7
 610.062 255 610.062 255 540.617 142.487 c 1,0,1
472.526 -19.8467 m 1,8,9
 455.91 -76.5703 455.91 -76.5703 442.608 -145 c 1,10,-1
 289.025 -148 l 1,11,12
 309.213 -44.1465 309.213 -44.1465 338.042 39.9541 c 1,13,14
 287.62 74.998 287.62 74.998 250.286 126 c 0,15,16
 132.581 287 132.581 287 184.675 555 c 0,17,18
 237.936 829 237.936 829 419.453 986 c 0,19,20
 599.972 1143 599.972 1143 861.971 1143 c 0,21,22
 946.976 1143 946.976 1143 1024.67 1126 c 0,23,24
 1102.17 1108 1102.17 1108 1171.37 1073 c 1,25,-1
 1137.93 901 l 1,26,27
 1068.28 944.003 1068.28 944.003 993.565 966 c 0,28,29
 919.647 987 919.647 987 839.647 987 c 0,30,31
 660.646 987 660.646 987 539.683 874 c 0,32,33
 418.522 760 418.522 760 378.675 555 c 0,34,35
 338.827 350 338.827 350 415.668 236 c 0,36,37
 420.463 228.965 420.463 228.965 425.654 222.369 c 1,38,39
 544.487 398 544.487 398 740.157 398 c 0,40,41
 1039.16 398 1039.16 398 992.342 152 c 0,42,43
 956.604 -37 956.604 -37 622.602 -37 c 0,44,45
 540.529 -37 540.529 -37 472.526 -19.8467 c 1,8,9
EndSplineSet
EndChar
StartChar: uni0256
Encoding: 598 598 598
Width: 1233
Flags: W
LayerCount: 2
Fore
SplineSet
330.31 559 m 128,-1,1
 288.712 344.999 288.712 344.999 321.958 236 c 128,-1,2
 355.207 127 355.207 127 461.677 127 c 128,-1,3
 568.146 127 568.146 127 645.164 237 c 128,-1,4
 722.184 347.005 722.184 347.005 763.392 559 c 0,5,6
 804.794 771.996 804.794 771.996 770.442 881.5 c 128,-1,7
 736.089 991 736.089 991 629.621 991 c 128,-1,8
 523.151 991 523.151 991 447.527 882 c 128,-1,0
 371.907 773.001 371.907 773.001 330.31 559 c 128,-1,1
844.643 977 m 1,9,-1
 957.188 1556 l 1,10,-1
 1138.8 1556 l 1,11,-1
 832.46 -20 l 2,12,13
 807.969 -145.999 807.969 -145.999 831.137 -208 c 0,14,15
 855.111 -270 855.111 -270 927.153 -270 c 2,16,-1
 932.865 -270 l 1,17,-1
 902.542 -426 l 1,18,-1
 846.502 -426 l 2,19,20
 714.42 -426 714.42 -426 662.977 -320 c 0,21,22
 612.14 -215.001 612.14 -215.001 650.044 -20 c 2,23,-1
 681.34 141 l 1,24,25
 628.013 57.998 628.013 57.998 559.486 14.5 c 0,26,27
 489.792 -29 489.792 -29 409.738 -29 c 0,28,29
 229.377 -29 229.377 -29 156.488 128.5 c 128,-1,30
 83.5957 286.002 83.5957 286.002 137.438 563 c 0,31,32
 190.504 835.999 190.504 835.999 324.681 991.5 c 128,-1,33
 458.859 1147 458.859 1147 638.329 1147 c 0,34,35
 719.183 1147 719.183 1147 772.367 1103.5 c 128,-1,36
 825.552 1060 825.552 1060 844.643 977 c 1,9,-1
EndSplineSet
EndChar
StartChar: uni0257
Encoding: 599 599 599
Width: 1233
Flags: W
LayerCount: 2
Fore
SplineSet
272.552 559 m 128,-1,1
 230.955 344.999 230.955 344.999 264.2 236 c 128,-1,3
 297.45 127 297.45 127 403.92 127 c 128,-1,5
 510.388 127 510.388 127 587.407 237 c 128,-1,7
 664.427 347.005 664.427 347.005 705.634 559 c 0,8,9
 747.036 771.996 747.036 771.996 712.685 881.5 c 128,-1,11
 678.332 991 678.332 991 571.864 991 c 128,-1,13
 465.395 991 465.395 991 389.771 882 c 128,-1,15
 314.149 773.001 314.149 773.001 272.552 559 c 128,-1,1
790.943 1002 m 1,16,-1
 819.712 1150 l 2,17,18
 857.616 1345 857.616 1345 949.272 1450 c 0,19,20
 1041.92 1556 1041.92 1556 1174.01 1556 c 2,21,-1
 1230.05 1556 l 1,22,-1
 1199.72 1400 l 1,23,-1
 1195.01 1400 l 2,24,25
 1122.97 1400 1122.97 1400 1074.89 1338 c 0,26,27
 1027.62 1276 1027.62 1276 1003.13 1150 c 2,28,-1
 779.591 0 l 1,31,-1
 596.976 0 l 1,32,-1
 624.383 141 l 1,33,34
 571.428 58.0029 571.428 58.0029 501.729 14.5 c 128,-1,36
 432.034 -29 432.034 -29 351.98 -29 c 0,37,38
 172.421 -29 172.421 -29 99.9922 128.5 c 128,-1,40
 27.5596 286.002 27.5596 286.002 81.4023 563 c 0,41,42
 134.469 835.999 134.469 835.999 268.182 991.5 c 128,-1,44
 401.9 1147 401.9 1147 580.572 1147 c 0,45,46
 661.426 1147 661.426 1147 714.61 1103.5 c 128,-1,48
 767.795 1060 767.795 1060 786.885 977 c 1,49,-1
 790.943 1002 l 1,16,-1
EndSplineSet
EndChar
StartChar: uni0258
Encoding: 600 600 600
Width: 1233
Flags: W
LayerCount: 2
Fore
SplineSet
131.136 606 m 2,0,-1
 179.926 857 179.926 857 331.61 1002 c 128,-1,21
 483.296 1147 483.296 1147 697.296 1147 c 0,19,20
 937.296 1147 937.296 1147 1050.19 987 c 128,-1,18
 1163.09 827 1163.09 827 1111 559 c 0,16,17
 1057.55 284 1057.55 284 880.125 127.5 c 128,-1,15
 702.704 -29 702.704 -29 441.704 -29 c 0,13,14
 350.704 -29 350.704 -29 257.384 -7.5 c 128,-1,12
 164.062 14 164.062 14 67.4209 57 c 1,10,11
 102.993 240 l 1,9,-1
 200.913 183 200.913 183 291.471 155 c 128,-1,8
 382.027 127 382.027 127 470.027 127 c 0,6,7
 644.027 127 644.027 127 758.966 227 c 128,-1,5
 873.903 327 873.903 327 909.476 510 c 2,3,4
 910.642 516 l 1,2,-1
 113.642 516 l 1,1,-1
 131.136 606 l 2,0,-1
325.633 660 m 1,22,23
 931.438 659 l 1,28,-1
 945.762 815 945.762 815 876.867 903 c 128,-1,27
 807.973 991 807.973 991 674.973 991 c 0,25,26
 538.973 991 538.973 991 450.047 906.5 c 128,-1,24
 361.122 822 361.122 822 325.633 660 c 1,22,23
EndSplineSet
EndChar
StartChar: uni0259
Encoding: 601 601 601
Width: 1233
Flags: W
LayerCount: 2
Fore
SplineSet
112.864 512 m 2,0,-1
 130.358 602 l 1,1,-1
 927.358 602 l 1,2,-1
 928.524 608 l 2,3,4
 964.097 791 964.097 791 888.034 891 c 128,-1,5
 811.973 991 811.973 991 637.973 991 c 0,6,7
 549.973 991 549.973 991 448.529 963 c 128,-1,8
 347.087 935 347.087 935 227.007 878 c 1,9,-1
 262.579 1061 l 1,10,11
 375.938 1104 375.938 1104 477.616 1125.5 c 128,-1,12
 579.296 1147 579.296 1147 670.296 1147 c 0,13,14
 931.296 1147 931.296 1147 1047.88 990.5 c 128,-1,15
 1164.45 834 1164.45 834 1111 559 c 0,16,17
 1058.91 291 1058.91 291 883.806 131 c 128,-1,18
 708.704 -29 708.704 -29 468.704 -29 c 0,19,20
 254.704 -29 254.704 -29 159.39 116 c 128,-1,21
 64.0742 261 64.0742 261 112.864 512 c 2,0,-1
286.367 458 m 1,22,23
 258.878 296 258.878 296 314.953 211.5 c 128,-1,24
 371.027 127 371.027 127 507.027 127 c 0,25,26
 640.027 127 640.027 127 743.133 215 c 128,-1,27
 846.238 303 846.238 303 892.562 459 c 1,28,-1
 286.367 458 l 1,22,23
EndSplineSet
EndChar
